<svg xmlns="http://www.w3.org/2000/svg" xmlns:xlink="http://www.w3.org/1999/xlink" width="400" zoomAndPan="magnify" viewBox="0 0 300 187.499995" height="250" preserveAspectRatio="xMidYMid meet" version="1.0"><defs><clipPath id="05f605a77a"><path d="M 0.398438 0 L 299.601562 0 L 299.601562 187 L 0.398438 187 Z M 0.398438 0 " clip-rule="nonzero"/></clipPath><clipPath id="e171b92564"><path d="M 78.882812 80.792969 L 91.511719 80.792969 L 91.511719 93.65625 L 78.882812 93.65625 Z M 78.882812 80.792969 " clip-rule="nonzero"/></clipPath><clipPath id="ca16397880"><path d="M 79.121094 81.03125 C 79 81.148438 78.9375 81.292969 78.9375 81.460938 L 78.9375 83.574219 C 78.9375 83.742188 79 83.886719 79.121094 84.007812 C 79.238281 84.125 79.382812 84.1875 79.550781 84.1875 L 82.773438 84.1875 C 83.046875 84.1875 83.269531 84.410156 83.269531 84.683594 L 83.269531 93.019531 C 83.269531 93.183594 83.332031 93.328125 83.449219 93.449219 C 83.570312 93.566406 83.714844 93.628906 83.878906 93.628906 L 86.546875 93.628906 C 86.714844 93.628906 86.859375 93.570312 86.976562 93.449219 C 87.097656 93.328125 87.160156 93.183594 87.160156 93.019531 L 87.160156 84.683594 C 87.160156 84.410156 87.382812 84.1875 87.65625 84.1875 L 90.878906 84.1875 C 91.046875 84.1875 91.191406 84.125 91.308594 84.007812 C 91.429688 83.886719 91.488281 83.742188 91.488281 83.574219 L 91.488281 81.460938 C 91.488281 81.292969 91.429688 81.148438 91.308594 81.03125 C 91.1875 80.910156 91.042969 80.847656 90.878906 80.847656 L 79.550781 80.847656 C 79.382812 80.847656 79.238281 80.910156 79.121094 81.03125 " clip-rule="nonzero"/></clipPath><clipPath id="9237b9b9cb"><path d="M 74.234375 80.792969 L 81.980469 80.792969 L 81.980469 87.84375 L 74.234375 87.84375 Z M 74.234375 80.792969 " clip-rule="nonzero"/></clipPath><clipPath id="7163a1c8a7"><path d="M 74.675781 80.847656 C 74.441406 80.847656 74.253906 81.039062 74.253906 81.273438 L 74.253906 86.511719 C 74.253906 87.210938 74.824219 87.78125 75.527344 87.78125 L 81.550781 87.78125 C 81.78125 87.78125 81.972656 87.59375 81.972656 87.363281 L 81.972656 85.480469 L 80.371094 85.480469 L 80.371094 86.179688 L 75.855469 86.179688 L 75.855469 82.402344 L 77.652344 82.402344 L 77.652344 80.847656 Z M 74.675781 80.847656 " clip-rule="nonzero"/></clipPath><clipPath id="03fd369ad5"><path d="M 71.289062 77.847656 L 83.84375 77.847656 L 83.84375 90.789062 L 71.289062 90.789062 Z M 71.289062 77.847656 " clip-rule="nonzero"/></clipPath><clipPath id="97ea0b6cde"><path d="M 83.777344 79.5625 C 83.414062 78.597656 82.484375 77.914062 81.394531 77.914062 L 71.714844 77.914062 C 71.480469 77.914062 71.292969 78.105469 71.292969 78.335938 L 71.292969 87.765625 C 71.292969 89.40625 72.621094 90.734375 74.257812 90.734375 L 81.972656 90.734375 L 81.972656 89.089844 L 74.449219 89.089844 C 73.628906 89.089844 72.964844 88.425781 72.964844 87.605469 L 72.964844 79.5625 Z M 83.777344 79.5625 " clip-rule="nonzero"/></clipPath><clipPath id="555addf95b"><path d="M 68.265625 74.90625 L 87.097656 74.90625 L 87.097656 93.65625 L 68.265625 93.65625 Z M 68.265625 74.90625 " clip-rule="nonzero"/></clipPath><clipPath id="14c1812993"><path d="M 81.972656 91.933594 L 73.804688 91.933594 C 71.699219 91.933594 69.988281 90.222656 69.988281 88.121094 L 69.988281 76.625 L 81.632812 76.625 C 83.394531 76.625 84.878906 77.929688 85.3125 79.558594 L 87.050781 79.558594 C 86.589844 76.984375 84.339844 74.929688 81.632812 74.929688 L 68.71875 74.929688 C 68.484375 74.929688 68.292969 75.121094 68.292969 75.355469 L 68.292969 88.121094 C 68.292969 91.160156 70.761719 93.628906 73.804688 93.628906 L 81.972656 93.628906 Z M 81.972656 91.933594 " clip-rule="nonzero"/></clipPath><clipPath id="af738ee1f7"><path d="M 80.058594 100.089844 L 92.148438 100.089844 L 92.148438 111.996094 L 80.058594 111.996094 Z M 80.058594 100.089844 " clip-rule="nonzero"/></clipPath><clipPath id="96e0187ebc"><path d="M 92.140625 100.089844 L 92.140625 111.949219 L 90.582031 111.949219 L 90.582031 102.484375 L 86.800781 111.949219 L 85.414062 111.949219 L 81.613281 102.519531 L 81.613281 111.949219 L 80.058594 111.949219 L 80.058594 100.089844 L 81.921875 100.089844 L 86.132812 110.050781 L 90.273438 100.089844 Z M 92.140625 100.089844 " clip-rule="nonzero"/></clipPath><clipPath id="115578d799"><path d="M 94.175781 102.433594 L 103.609375 102.433594 L 103.609375 112.085938 L 94.175781 112.085938 Z M 94.175781 102.433594 " clip-rule="nonzero"/></clipPath><clipPath id="9b1042543b"><path d="M 97.351562 104.179688 C 96.878906 104.429688 96.496094 104.816406 96.207031 105.335938 C 95.914062 105.855469 95.769531 106.496094 95.769531 107.261719 C 95.769531 108.015625 95.914062 108.648438 96.207031 109.167969 C 96.496094 109.6875 96.878906 110.074219 97.351562 110.324219 C 97.824219 110.574219 98.34375 110.699219 98.902344 110.699219 C 99.460938 110.699219 99.976562 110.574219 100.449219 110.324219 C 100.925781 110.074219 101.304688 109.6875 101.597656 109.167969 C 101.890625 108.648438 102.035156 108.015625 102.035156 107.261719 C 102.035156 106.496094 101.886719 105.855469 101.597656 105.335938 C 101.308594 104.816406 100.925781 104.429688 100.449219 104.179688 C 99.976562 103.929688 99.460938 103.804688 98.902344 103.804688 C 98.339844 103.804688 97.824219 103.929688 97.351562 104.179688 M 101.324219 103.015625 C 102.035156 103.402344 102.59375 103.964844 103 104.691406 C 103.40625 105.421875 103.609375 106.277344 103.609375 107.261719 C 103.609375 108.242188 103.40625 109.09375 103 109.820312 C 102.59375 110.542969 102.035156 111.101562 101.324219 111.488281 C 100.609375 111.875 99.804688 112.070312 98.902344 112.070312 C 98 112.070312 97.191406 111.875 96.480469 111.488281 C 95.765625 111.101562 95.203125 110.542969 94.792969 109.820312 C 94.382812 109.09375 94.175781 108.242188 94.175781 107.261719 C 94.175781 106.28125 94.382812 105.421875 94.792969 104.691406 C 95.203125 103.960938 95.765625 103.402344 96.480469 103.015625 C 97.195312 102.628906 98 102.433594 98.902344 102.433594 C 99.800781 102.433594 100.609375 102.628906 101.324219 103.015625 " clip-rule="nonzero"/></clipPath><clipPath id="5541f49442"><path d="M 105.644531 102.398438 L 114.289062 102.398438 L 114.289062 111.984375 L 105.644531 111.984375 Z M 105.644531 102.398438 " clip-rule="nonzero"/></clipPath><clipPath id="00804050f5"><path d="M 113.246094 103.453125 C 113.917969 104.152344 114.253906 105.167969 114.253906 106.488281 L 114.253906 111.949219 L 112.695312 111.949219 L 112.695312 106.628906 C 112.695312 105.691406 112.457031 104.972656 111.976562 104.46875 C 111.5 103.96875 110.847656 103.714844 110.027344 103.714844 C 109.171875 103.714844 108.484375 103.992188 107.972656 104.546875 C 107.460938 105.101562 107.203125 105.90625 107.203125 106.96875 L 107.203125 111.949219 L 105.644531 111.949219 L 105.644531 102.554688 L 107.203125 102.554688 L 107.203125 104.777344 C 107.441406 104.015625 107.867188 103.425781 108.476562 103.015625 C 109.089844 102.605469 109.792969 102.398438 110.589844 102.398438 C 111.6875 102.398438 112.570312 102.75 113.246094 103.453125 " clip-rule="nonzero"/></clipPath><clipPath id="53bbaa36b7"><path d="M 92.765625 80.816406 L 104.324219 80.816406 L 104.324219 93.679688 L 92.765625 93.679688 Z M 92.765625 80.816406 " clip-rule="nonzero"/></clipPath><clipPath id="c59dacf746"><path d="M 103.675781 90.394531 L 97.238281 90.394531 C 96.789062 90.394531 96.421875 90.027344 96.421875 89.574219 C 96.421875 89.125 96.789062 88.757812 97.238281 88.757812 L 102.511719 88.757812 C 102.863281 88.757812 103.148438 88.472656 103.148438 88.121094 L 103.148438 86.355469 C 103.148438 86.003906 102.863281 85.71875 102.511719 85.71875 L 97.238281 85.71875 C 96.789062 85.71875 96.421875 85.351562 96.421875 84.898438 C 96.421875 84.449219 96.789062 84.082031 97.238281 84.082031 L 103.496094 84.082031 C 103.847656 84.082031 104.132812 83.792969 104.132812 83.441406 L 104.132812 81.480469 C 104.132812 81.128906 103.847656 80.84375 103.496094 80.84375 L 93.378906 80.84375 C 93.214844 80.84375 93.066406 80.90625 92.949219 81.023438 C 92.828125 81.144531 92.769531 81.289062 92.769531 81.453125 L 92.769531 93.023438 C 92.769531 93.1875 92.828125 93.332031 92.949219 93.453125 C 93.066406 93.574219 93.210938 93.632812 93.378906 93.632812 L 103.675781 93.632812 C 104.027344 93.632812 104.3125 93.347656 104.3125 92.996094 L 104.3125 91.03125 C 104.3125 90.679688 104.027344 90.394531 103.675781 90.394531 " clip-rule="nonzero"/></clipPath><clipPath id="3a281beb9e"><path d="M 105.117188 80.535156 L 118.261719 80.535156 L 118.261719 93.90625 L 105.117188 93.90625 Z M 105.117188 80.535156 " clip-rule="nonzero"/></clipPath><clipPath id="3e861e6f8b"><path d="M 111.167969 84.027344 C 111.710938 83.949219 112.28125 83.988281 112.785156 84.210938 C 113.289062 84.433594 113.714844 84.851562 113.894531 85.371094 C 113.984375 85.621094 114.019531 85.90625 114.207031 86.09375 C 114.421875 86.3125 114.761719 86.328125 115.066406 86.335938 C 115.6875 86.34375 116.308594 86.351562 116.933594 86.363281 C 117.386719 86.367188 117.859375 86.375 118.085938 85.902344 C 118.230469 85.609375 118.226562 85.265625 118.179688 84.941406 C 117.949219 83.433594 116.796875 82.203125 115.460938 81.46875 C 113.261719 80.257812 110.453125 80.222656 108.222656 81.378906 C 107.214844 81.902344 106.304688 82.671875 105.785156 83.679688 C 105.234375 84.742188 105.148438 85.976562 105.140625 87.171875 C 105.132812 88.363281 105.203125 89.59375 105.726562 90.664062 C 106.410156 92.070312 107.804688 93.027344 109.289062 93.507812 C 110.09375 93.765625 110.941406 93.898438 111.785156 93.902344 C 113.007812 93.90625 114.226562 93.636719 115.320312 93.089844 C 116.136719 92.679688 116.886719 92.113281 117.414062 91.367188 C 117.9375 90.617188 118.222656 89.683594 118.09375 88.777344 C 118.054688 88.5 117.953125 88.199219 117.707031 88.066406 C 117.558594 87.984375 117.382812 87.980469 117.210938 87.976562 C 116.539062 87.96875 115.867188 87.957031 115.195312 87.949219 C 114.914062 87.945312 114.613281 87.945312 114.382812 88.109375 C 114.058594 88.335938 114.003906 88.785156 113.847656 89.148438 C 113.464844 90.050781 112.390625 90.488281 111.417969 90.433594 C 110.636719 90.386719 109.808594 90.015625 109.507812 89.292969 C 109.363281 88.945312 109.359375 88.554688 109.355469 88.179688 C 109.351562 87.617188 109.347656 87.054688 109.34375 86.488281 C 109.335938 85.949219 109.339844 85.378906 109.621094 84.917969 C 109.941406 84.394531 110.558594 84.117188 111.167969 84.027344 " clip-rule="nonzero"/></clipPath><clipPath id="4b6a55cec0"><path d="M 115.710938 100.207031 L 121.15625 100.207031 L 121.15625 111.949219 L 115.710938 111.949219 Z M 115.710938 100.207031 " clip-rule="nonzero"/></clipPath><clipPath id="b2f8130fea"><path d="M 121.136719 110.582031 L 121.136719 111.949219 L 119.972656 111.949219 C 119.011719 111.949219 118.296875 111.722656 117.824219 111.265625 C 117.351562 110.808594 117.113281 110.042969 117.113281 108.972656 L 117.113281 103.90625 L 115.710938 103.90625 L 115.710938 102.554688 L 117.113281 102.554688 L 117.113281 100.207031 L 118.6875 100.207031 L 118.6875 102.554688 L 121.117188 102.554688 L 121.117188 103.90625 L 118.6875 103.90625 L 118.6875 109.007812 C 118.6875 109.613281 118.800781 110.023438 119.019531 110.246094 C 119.242188 110.46875 119.628906 110.582031 120.175781 110.582031 Z M 121.136719 110.582031 " clip-rule="nonzero"/></clipPath><clipPath id="2b0fd37e73"><path d="M 119.59375 80.84375 L 131.769531 80.84375 L 131.769531 93.632812 L 119.59375 93.632812 Z M 119.59375 80.84375 " clip-rule="nonzero"/></clipPath><clipPath id="c6b0b9fc44"><path d="M 123.558594 93.453125 C 123.675781 93.332031 123.738281 93.1875 123.738281 93.023438 L 123.738281 89.324219 C 123.738281 89.050781 123.960938 88.824219 124.234375 88.824219 L 127.078125 88.824219 C 127.351562 88.824219 127.574219 89.050781 127.574219 89.324219 L 127.574219 93.023438 C 127.574219 93.1875 127.636719 93.332031 127.753906 93.453125 C 127.875 93.570312 128.019531 93.632812 128.1875 93.632812 L 131.109375 93.632812 C 131.277344 93.632812 131.421875 93.570312 131.539062 93.453125 C 131.660156 93.332031 131.722656 93.1875 131.722656 93.023438 L 131.722656 81.453125 C 131.722656 81.289062 131.660156 81.144531 131.539062 81.023438 C 131.421875 80.90625 131.273438 80.84375 131.109375 80.84375 L 128.183594 80.84375 C 128.019531 80.84375 127.875 80.90625 127.753906 81.023438 C 127.636719 81.144531 127.574219 81.289062 127.574219 81.453125 L 127.574219 85.070312 C 127.574219 85.34375 127.351562 85.566406 127.078125 85.566406 L 124.375 85.566406 C 124.023438 85.566406 123.738281 85.28125 123.738281 84.929688 L 123.738281 81.453125 C 123.738281 81.289062 123.675781 81.144531 123.558594 81.023438 C 123.4375 80.90625 123.292969 80.84375 123.128906 80.84375 L 120.203125 80.84375 C 120.039062 80.84375 119.894531 80.90625 119.773438 81.023438 C 119.652344 81.144531 119.59375 81.289062 119.59375 81.453125 L 119.59375 93.023438 C 119.59375 93.199219 119.65625 93.351562 119.777344 93.464844 C 119.894531 93.574219 120.039062 93.632812 120.203125 93.632812 L 123.128906 93.632812 C 123.292969 93.632812 123.4375 93.570312 123.558594 93.449219 " clip-rule="nonzero"/></clipPath><clipPath id="4b75aa1312"><path d="M 123 102.386719 L 128.078125 102.386719 L 128.078125 111.953125 L 123 111.953125 Z M 123 102.386719 " clip-rule="nonzero"/></clipPath><clipPath id="832223ba5f"><path d="M 125.945312 102.9375 C 126.539062 102.578125 127.246094 102.398438 128.066406 102.398438 L 128.066406 104.09375 L 127.585938 104.09375 C 126.710938 104.09375 125.988281 104.320312 125.429688 104.769531 C 124.871094 105.21875 124.59375 105.964844 124.59375 107.003906 L 124.59375 111.949219 L 123.035156 111.949219 L 123.035156 102.554688 L 124.59375 102.554688 L 124.59375 104.453125 C 124.898438 103.800781 125.351562 103.296875 125.945312 102.9375 " clip-rule="nonzero"/></clipPath><clipPath id="e74f55845f"><path d="M 129.109375 98.496094 L 138.269531 98.496094 L 138.269531 112.125 L 129.109375 112.125 Z M 129.109375 98.496094 " clip-rule="nonzero"/></clipPath><clipPath id="f4b807eba8"><path d="M 136.523438 99.8125 L 132.875 101.816406 L 132.875 100.707031 L 136.523438 98.546875 Z M 136.332031 105.085938 C 136.070312 104.617188 135.710938 104.269531 135.253906 104.042969 C 134.796875 103.8125 134.300781 103.699219 133.765625 103.699219 C 132.910156 103.699219 132.191406 103.964844 131.609375 104.496094 C 131.027344 105.023438 130.714844 105.804688 130.667969 106.832031 L 136.675781 106.832031 C 136.710938 106.136719 136.597656 105.554688 136.332031 105.085938 M 138.183594 107.585938 L 130.667969 107.585938 C 130.703125 108.660156 131.007812 109.464844 131.582031 110 C 132.160156 110.535156 132.863281 110.804688 133.695312 110.804688 C 134.449219 110.804688 135.082031 110.613281 135.585938 110.230469 C 136.09375 109.847656 136.40625 109.335938 136.519531 108.699219 L 138.179688 108.699219 C 138.066406 109.347656 137.8125 109.929688 137.417969 110.445312 C 137.023438 110.957031 136.515625 111.355469 135.886719 111.640625 C 135.261719 111.925781 134.550781 112.070312 133.765625 112.070312 C 132.863281 112.070312 132.0625 111.875 131.367188 111.488281 C 130.671875 111.101562 130.125 110.542969 129.734375 109.820312 C 129.339844 109.09375 129.144531 108.242188 129.144531 107.261719 C 129.144531 106.28125 129.339844 105.421875 129.734375 104.691406 C 130.128906 103.960938 130.671875 103.402344 131.371094 103.015625 C 132.066406 102.628906 132.863281 102.433594 133.765625 102.433594 C 134.675781 102.433594 135.472656 102.628906 136.152344 103.015625 C 136.832031 103.402344 137.351562 103.921875 137.710938 104.574219 C 138.070312 105.222656 138.25 105.941406 138.25 106.730469 C 138.25 107.0625 138.226562 107.347656 138.183594 107.585938 " clip-rule="nonzero"/></clipPath><clipPath id="c08a9c94d0"><path d="M 133.417969 80.824219 L 144.984375 80.824219 L 144.984375 93.648438 L 133.417969 93.648438 Z M 133.417969 80.824219 " clip-rule="nonzero"/></clipPath><clipPath id="116fef7078"><path d="M 144.757812 93.433594 C 144.878906 93.316406 144.9375 93.167969 144.9375 93.003906 L 144.9375 81.4375 C 144.9375 81.273438 144.878906 81.128906 144.757812 81.007812 C 144.636719 80.886719 144.492188 80.824219 144.328125 80.824219 L 141.761719 80.824219 C 141.597656 80.824219 141.453125 80.886719 141.332031 81.007812 C 141.210938 81.125 141.152344 81.269531 141.152344 81.4375 L 141.152344 85.792969 C 141.152344 86.058594 140.972656 86.210938 140.808594 86.265625 C 140.640625 86.320312 140.410156 86.300781 140.253906 86.089844 L 137.222656 81.234375 C 137.019531 80.964844 136.75 80.824219 136.421875 80.824219 L 134.03125 80.824219 C 133.863281 80.824219 133.71875 80.886719 133.601562 81.007812 C 133.480469 81.125 133.417969 81.269531 133.417969 81.4375 L 133.417969 93.003906 C 133.417969 93.171875 133.480469 93.316406 133.601562 93.433594 C 133.71875 93.554688 133.867188 93.613281 134.03125 93.613281 L 136.597656 93.613281 C 136.761719 93.613281 136.90625 93.554688 137.027344 93.433594 C 137.144531 93.316406 137.207031 93.167969 137.207031 93.003906 L 137.207031 88.921875 C 137.207031 88.660156 137.378906 88.507812 137.542969 88.453125 C 137.703125 88.398438 137.933594 88.410156 138.089844 88.609375 L 141.136719 93.1875 C 141.351562 93.472656 141.625 93.613281 141.953125 93.613281 L 144.328125 93.613281 C 144.492188 93.613281 144.636719 93.554688 144.757812 93.433594 " clip-rule="nonzero"/></clipPath><clipPath id="70fc1ae351"><path d="M 139.824219 102.433594 L 149.378906 102.433594 L 149.378906 112.097656 L 139.824219 112.097656 Z M 139.824219 102.433594 " clip-rule="nonzero"/></clipPath><clipPath id="621b31f6ee"><path d="M 142.28125 104.734375 C 141.703125 105.347656 141.417969 106.1875 141.417969 107.257812 C 141.417969 108.332031 141.703125 109.175781 142.28125 109.785156 C 142.859375 110.394531 143.625 110.699219 144.582031 110.699219 C 145.199219 110.699219 145.75 110.558594 146.234375 110.273438 C 146.71875 109.988281 147.097656 109.585938 147.375 109.066406 C 147.648438 108.546875 147.785156 107.945312 147.785156 107.257812 C 147.785156 106.574219 147.648438 105.96875 147.375 105.445312 C 147.097656 104.917969 146.71875 104.519531 146.234375 104.238281 C 145.75 103.957031 145.199219 103.816406 144.582031 103.816406 C 143.625 103.816406 142.855469 104.121094 142.28125 104.734375 M 146.457031 103.117188 C 147.089844 103.574219 147.53125 104.1875 147.785156 104.949219 L 147.785156 102.554688 L 149.339844 102.554688 L 149.339844 111.949219 L 147.785156 111.949219 L 147.785156 109.554688 C 147.53125 110.316406 147.089844 110.929688 146.457031 111.386719 C 145.824219 111.839844 145.050781 112.070312 144.136719 112.070312 C 143.304688 112.070312 142.5625 111.875 141.914062 111.488281 C 141.261719 111.101562 140.753906 110.542969 140.382812 109.820312 C 140.011719 109.09375 139.824219 108.242188 139.824219 107.261719 C 139.824219 106.28125 140.011719 105.421875 140.382812 104.691406 C 140.753906 103.960938 141.261719 103.402344 141.914062 103.015625 C 142.5625 102.628906 143.304688 102.433594 144.136719 102.433594 C 145.050781 102.433594 145.824219 102.664062 146.457031 103.117188 " clip-rule="nonzero"/></clipPath><clipPath id="d003fad266"><path d="M 151.824219 99.285156 L 153.378906 99.285156 L 153.378906 111.949219 L 151.824219 111.949219 Z M 151.824219 99.285156 " clip-rule="nonzero"/></clipPath><clipPath id="0a77d8a985"><path d="M 206.421875 80.6875 L 219.539062 80.6875 L 219.539062 93.75 L 206.421875 93.75 Z M 206.421875 80.6875 " clip-rule="nonzero"/></clipPath><clipPath id="0aa5826895"><path d="M 212.976562 90.042969 C 211.421875 90.042969 210.15625 88.777344 210.15625 87.21875 C 210.15625 85.664062 211.421875 84.398438 212.976562 84.398438 C 214.535156 84.398438 215.800781 85.664062 215.800781 87.21875 C 215.800781 88.777344 214.535156 90.042969 212.976562 90.042969 M 212.976562 80.703125 C 209.386719 80.703125 206.460938 83.625 206.460938 87.21875 C 206.460938 90.8125 209.386719 93.734375 212.976562 93.734375 C 216.570312 93.734375 219.492188 90.8125 219.492188 87.21875 C 219.492188 83.625 216.570312 80.703125 212.976562 80.703125 " clip-rule="nonzero"/></clipPath><clipPath id="d5bb681ec9"><path d="M 170.71875 80.800781 L 184.445312 80.800781 L 184.445312 93.640625 L 170.71875 93.640625 Z M 170.71875 80.800781 " clip-rule="nonzero"/></clipPath><clipPath id="da6051c46a"><path d="M 177.601562 84.253906 L 178.890625 88.066406 L 176.3125 88.066406 Z M 170.769531 93.144531 C 170.769531 93.253906 170.820312 93.359375 170.921875 93.460938 C 171.023438 93.5625 171.148438 93.613281 171.289062 93.613281 L 173.910156 93.613281 C 174.347656 93.613281 174.660156 93.382812 174.835938 92.921875 L 175.34375 91.546875 C 175.414062 91.351562 175.601562 91.21875 175.8125 91.21875 L 179.417969 91.21875 C 179.628906 91.21875 179.816406 91.351562 179.886719 91.546875 L 180.371094 92.921875 C 180.542969 93.382812 180.855469 93.613281 181.292969 93.613281 L 183.914062 93.613281 C 184.054688 93.613281 184.179688 93.5625 184.28125 93.460938 C 184.382812 93.359375 184.433594 93.25 184.433594 93.144531 C 184.433594 93.0625 184.425781 92.996094 184.410156 92.945312 L 180.511719 81.507812 C 180.386719 81.0625 180.066406 80.824219 179.582031 80.824219 L 175.621094 80.824219 C 175.136719 80.824219 174.816406 81.0625 174.695312 81.503906 L 170.792969 92.945312 C 170.777344 92.992188 170.769531 93.058594 170.769531 93.144531 " clip-rule="nonzero"/></clipPath><clipPath id="3d7005cedd"><path d="M 146.199219 80.6875 L 159.261719 80.6875 L 159.261719 93.75 L 146.199219 93.75 Z M 146.199219 80.6875 " clip-rule="nonzero"/></clipPath><clipPath id="3d615ede0e"><path d="M 152.730469 90.042969 C 151.175781 90.042969 149.910156 88.777344 149.910156 87.21875 C 149.910156 85.664062 151.175781 84.398438 152.730469 84.398438 C 154.289062 84.398438 155.554688 85.664062 155.554688 87.21875 C 155.554688 88.777344 154.289062 90.042969 152.730469 90.042969 M 152.730469 80.703125 C 149.136719 80.703125 146.214844 83.625 146.214844 87.21875 C 146.214844 90.8125 149.136719 93.734375 152.730469 93.734375 C 156.324219 93.734375 159.246094 90.8125 159.246094 87.21875 C 159.246094 83.625 156.324219 80.703125 152.730469 80.703125 " clip-rule="nonzero"/></clipPath><clipPath id="999388e110"><path d="M 196.570312 80.800781 L 205.644531 80.800781 L 205.644531 93.640625 L 196.570312 93.640625 Z M 196.570312 80.800781 " clip-rule="nonzero"/></clipPath><clipPath id="6fe2516744"><path d="M 204.984375 80.824219 L 197.21875 80.824219 C 197.050781 80.824219 196.90625 80.886719 196.789062 81.007812 C 196.667969 81.128906 196.605469 81.269531 196.605469 81.4375 L 196.605469 83.554688 C 196.605469 83.722656 196.667969 83.867188 196.789062 83.984375 C 196.910156 84.105469 197.054688 84.167969 197.21875 84.167969 L 198.519531 84.167969 C 198.871094 84.167969 199.15625 84.453125 199.15625 84.804688 L 199.15625 89.636719 C 199.15625 89.988281 198.871094 90.273438 198.519531 90.273438 L 197.21875 90.273438 C 197.050781 90.273438 196.90625 90.335938 196.785156 90.457031 C 196.667969 90.574219 196.605469 90.71875 196.605469 90.886719 L 196.605469 93.003906 C 196.605469 93.167969 196.667969 93.3125 196.789062 93.433594 C 196.910156 93.554688 197.054688 93.613281 197.21875 93.613281 L 204.988281 93.613281 C 205.152344 93.613281 205.296875 93.554688 205.417969 93.433594 C 205.535156 93.316406 205.597656 93.171875 205.597656 93.003906 L 205.597656 90.886719 C 205.597656 90.71875 205.539062 90.574219 205.417969 90.457031 C 205.296875 90.335938 205.152344 90.273438 204.984375 90.273438 L 203.683594 90.273438 C 203.332031 90.273438 203.046875 89.988281 203.046875 89.636719 L 203.046875 84.804688 C 203.046875 84.453125 203.332031 84.167969 203.683594 84.167969 L 204.984375 84.167969 C 205.152344 84.167969 205.296875 84.105469 205.417969 83.984375 C 205.539062 83.863281 205.597656 83.71875 205.597656 83.554688 L 205.597656 81.4375 C 205.597656 81.273438 205.539062 81.128906 205.417969 81.007812 C 205.296875 80.886719 205.152344 80.824219 204.984375 80.824219 " clip-rule="nonzero"/></clipPath><clipPath id="6b7c7e8b01"><path d="M 159.042969 80.800781 L 172.378906 80.800781 L 172.378906 93.640625 L 159.042969 93.640625 Z M 159.042969 80.800781 " clip-rule="nonzero"/></clipPath><clipPath id="914f5b428b"><path d="M 172.359375 81.292969 C 172.359375 81.1875 172.308594 81.082031 172.207031 80.980469 C 172.105469 80.878906 171.984375 80.828125 171.839844 80.828125 L 169.335938 80.828125 C 168.851562 80.828125 168.53125 81.0625 168.410156 81.503906 L 165.707031 89.617188 L 163.003906 81.503906 C 162.949219 81.339844 162.84375 81.1875 162.691406 81.050781 C 162.53125 80.902344 162.324219 80.828125 162.078125 80.828125 L 159.574219 80.828125 C 159.429688 80.828125 159.308594 80.878906 159.207031 80.980469 C 159.105469 81.082031 159.050781 81.1875 159.050781 81.296875 C 159.050781 81.375 159.058594 81.445312 159.078125 81.515625 L 162.976562 92.996094 C 163.125 93.402344 163.4375 93.617188 163.882812 93.617188 L 167.546875 93.617188 C 168.003906 93.617188 168.324219 93.382812 168.472656 92.941406 L 172.339844 81.503906 C 172.355469 81.445312 172.363281 81.375 172.363281 81.292969 " clip-rule="nonzero"/></clipPath><clipPath id="0f1c8be246"><path d="M 182.898438 80.800781 L 195.515625 80.800781 L 195.515625 93.640625 L 182.898438 93.640625 Z M 182.898438 80.800781 " clip-rule="nonzero"/></clipPath><clipPath id="7f4565086e"><path d="M 187.441406 93.433594 C 187.5625 93.554688 187.707031 93.613281 187.871094 93.613281 L 190.542969 93.613281 C 190.707031 93.613281 190.851562 93.554688 190.972656 93.433594 C 191.089844 93.316406 191.152344 93.167969 191.152344 93.003906 L 191.152344 84.664062 C 191.152344 84.390625 191.375 84.167969 191.648438 84.167969 L 194.875 84.167969 C 195.042969 84.167969 195.1875 84.105469 195.304688 83.984375 C 195.425781 83.863281 195.488281 83.71875 195.488281 83.554688 L 195.488281 81.4375 C 195.488281 81.273438 195.425781 81.128906 195.304688 81.007812 C 195.1875 80.886719 195.042969 80.824219 194.875 80.824219 L 183.539062 80.824219 C 183.375 80.824219 183.230469 80.886719 183.109375 81.007812 C 182.988281 81.125 182.929688 81.269531 182.929688 81.4375 L 182.929688 83.554688 C 182.929688 83.722656 182.988281 83.867188 183.109375 83.984375 C 183.230469 84.105469 183.375 84.167969 183.539062 84.167969 L 186.761719 84.167969 C 187.039062 84.167969 187.261719 84.390625 187.261719 84.664062 L 187.261719 93.003906 C 187.261719 93.171875 187.320312 93.316406 187.441406 93.433594 " clip-rule="nonzero"/></clipPath><clipPath id="29405b857a"><path d="M 220.753906 80.824219 L 232.320312 80.824219 L 232.320312 93.648438 L 220.753906 93.648438 Z M 220.753906 80.824219 " clip-rule="nonzero"/></clipPath><clipPath id="329093c368"><path d="M 232.09375 81.007812 C 231.976562 80.886719 231.828125 80.824219 231.664062 80.824219 L 229.097656 80.824219 C 228.933594 80.824219 228.789062 80.886719 228.667969 81.003906 C 228.550781 81.125 228.488281 81.269531 228.488281 81.4375 L 228.488281 85.792969 C 228.488281 86.058594 228.308594 86.210938 228.144531 86.265625 C 227.976562 86.320312 227.742188 86.300781 227.589844 86.089844 L 224.558594 81.234375 C 224.355469 80.964844 224.085938 80.824219 223.757812 80.824219 L 221.367188 80.824219 C 221.203125 80.824219 221.054688 80.886719 220.9375 81.003906 C 220.816406 81.125 220.753906 81.269531 220.753906 81.4375 L 220.753906 93.003906 C 220.753906 93.171875 220.816406 93.316406 220.9375 93.433594 C 221.054688 93.554688 221.203125 93.613281 221.367188 93.613281 L 223.933594 93.613281 C 224.097656 93.613281 224.242188 93.554688 224.363281 93.433594 C 224.484375 93.316406 224.542969 93.167969 224.542969 93.003906 L 224.542969 88.921875 C 224.542969 88.660156 224.71875 88.507812 224.878906 88.453125 C 225.042969 88.398438 225.273438 88.410156 225.425781 88.609375 L 228.472656 93.1875 C 228.6875 93.472656 228.964844 93.613281 229.289062 93.613281 L 231.664062 93.613281 C 231.832031 93.613281 231.976562 93.554688 232.09375 93.433594 C 232.214844 93.316406 232.277344 93.167969 232.277344 93.003906 L 232.277344 81.4375 C 232.277344 81.273438 232.214844 81.128906 232.09375 81.007812 " clip-rule="nonzero"/></clipPath></defs><g clip-path="url(#05f605a77a)"><path fill="#ffffff" d="M 0.398438 0 L 299.601562 0 L 299.601562 187 L 0.398438 187 Z M 0.398438 0 " fill-opacity="1" fill-rule="nonzero"/><path fill="#ffffff" d="M 0.398438 0 L 299.601562 0 L 299.601562 187 L 0.398438 187 Z M 0.398438 0 " fill-opacity="1" fill-rule="nonzero"/></g><g clip-path="url(#e171b92564)"><g clip-path="url(#ca16397880)"><path fill="#007ec5" d="M 67.726562 74.363281 L 92.054688 74.363281 L 92.054688 94.199219 L 67.726562 94.199219 Z M 67.726562 74.363281 " fill-opacity="1" fill-rule="nonzero"/></g></g><g clip-path="url(#9237b9b9cb)"><g clip-path="url(#7163a1c8a7)"><path fill="#31b34a" d="M 67.726562 74.363281 L 92.054688 74.363281 L 92.054688 94.199219 L 67.726562 94.199219 Z M 67.726562 74.363281 " fill-opacity="1" fill-rule="nonzero"/></g></g><g clip-path="url(#03fd369ad5)"><g clip-path="url(#97ea0b6cde)"><path fill="#31b34a" d="M 67.726562 74.363281 L 92.054688 74.363281 L 92.054688 94.199219 L 67.726562 94.199219 Z M 67.726562 74.363281 " fill-opacity="1" fill-rule="nonzero"/></g></g><g clip-path="url(#555addf95b)"><g clip-path="url(#14c1812993)"><path fill="#31b34a" d="M 67.726562 74.363281 L 92.054688 74.363281 L 92.054688 94.199219 L 67.726562 94.199219 Z M 67.726562 74.363281 " fill-opacity="1" fill-rule="nonzero"/></g></g><g clip-path="url(#af738ee1f7)"><g clip-path="url(#96e0187ebc)"><path fill="#31b34a" d="M 80.058594 100.089844 L 92.148438 100.089844 L 92.148438 111.949219 L 80.058594 111.949219 Z M 80.058594 100.089844 " fill-opacity="1" fill-rule="nonzero"/></g></g><g clip-path="url(#115578d799)"><g clip-path="url(#9b1042543b)"><path fill="#31b34a" d="M 94.175781 102.433594 L 103.609375 102.433594 L 103.609375 112.085938 L 94.175781 112.085938 Z M 94.175781 102.433594 " fill-opacity="1" fill-rule="nonzero"/></g></g><g clip-path="url(#5541f49442)"><g clip-path="url(#00804050f5)"><path fill="#31b34a" d="M 105.644531 102.398438 L 114.253906 102.398438 L 114.253906 111.949219 L 105.644531 111.949219 Z M 105.644531 102.398438 " fill-opacity="1" fill-rule="nonzero"/></g></g><g clip-path="url(#53bbaa36b7)"><g clip-path="url(#c59dacf746)"><path fill="#007ec5" d="M 92.199219 79.96875 L 118.773438 79.96875 L 118.773438 94.472656 L 92.199219 94.472656 Z M 92.199219 79.96875 " fill-opacity="1" fill-rule="nonzero"/></g></g><g clip-path="url(#3a281beb9e)"><g clip-path="url(#3e861e6f8b)"><path fill="#007ec5" d="M 92.199219 79.96875 L 118.773438 79.96875 L 118.773438 94.472656 L 92.199219 94.472656 Z M 92.199219 79.96875 " fill-opacity="1" fill-rule="nonzero"/></g></g><g clip-path="url(#4b6a55cec0)"><g clip-path="url(#b2f8130fea)"><path fill="#31b34a" d="M 115.710938 100.207031 L 121.132812 100.207031 L 121.132812 111.949219 L 115.710938 111.949219 Z M 115.710938 100.207031 " fill-opacity="1" fill-rule="nonzero"/></g></g><g clip-path="url(#2b0fd37e73)"><g clip-path="url(#c6b0b9fc44)"><path fill="#007ec5" d="M 119.59375 80.84375 L 131.71875 80.84375 L 131.71875 93.632812 L 119.59375 93.632812 Z M 119.59375 80.84375 " fill-opacity="1" fill-rule="nonzero"/></g></g><g clip-path="url(#4b75aa1312)"><g clip-path="url(#832223ba5f)"><path fill="#31b34a" d="M 122.464844 97.980469 L 138.84375 97.980469 L 138.84375 112.636719 L 122.464844 112.636719 Z M 122.464844 97.980469 " fill-opacity="1" fill-rule="nonzero"/></g></g><g clip-path="url(#e74f55845f)"><g clip-path="url(#f4b807eba8)"><path fill="#31b34a" d="M 122.464844 97.980469 L 138.84375 97.980469 L 138.84375 112.636719 L 122.464844 112.636719 Z M 122.464844 97.980469 " fill-opacity="1" fill-rule="nonzero"/></g></g><g clip-path="url(#c08a9c94d0)"><g clip-path="url(#116fef7078)"><path fill="#007ec5" d="M 133.417969 80.824219 L 144.9375 80.824219 L 144.9375 93.605469 L 133.417969 93.605469 Z M 133.417969 80.824219 " fill-opacity="1" fill-rule="nonzero"/></g></g><g clip-path="url(#70fc1ae351)"><g clip-path="url(#621b31f6ee)"><path fill="#31b34a" d="M 139.824219 102.433594 L 149.339844 102.433594 L 149.339844 112.0625 L 139.824219 112.0625 Z M 139.824219 102.433594 " fill-opacity="1" fill-rule="nonzero"/></g></g><g clip-path="url(#d003fad266)"><path fill="#31b34a" d="M 151.824219 99.285156 L 153.378906 99.285156 L 153.378906 111.949219 L 151.824219 111.949219 Z M 151.824219 99.285156 " fill-opacity="1" fill-rule="nonzero"/></g><g clip-path="url(#0a77d8a985)"><g clip-path="url(#0aa5826895)"><path fill="#007ec5" d="M 145.648438 80.136719 L 220.035156 80.136719 L 220.035156 94.304688 L 145.648438 94.304688 Z M 145.648438 80.136719 " fill-opacity="1" fill-rule="nonzero"/></g></g><g clip-path="url(#d5bb681ec9)"><g clip-path="url(#da6051c46a)"><path fill="#007ec5" d="M 145.648438 80.136719 L 220.035156 80.136719 L 220.035156 94.304688 L 145.648438 94.304688 Z M 145.648438 80.136719 " fill-opacity="1" fill-rule="nonzero"/></g></g><g clip-path="url(#3d7005cedd)"><g clip-path="url(#3d615ede0e)"><path fill="#007ec5" d="M 145.648438 80.136719 L 220.035156 80.136719 L 220.035156 94.304688 L 145.648438 94.304688 Z M 145.648438 80.136719 " fill-opacity="1" fill-rule="nonzero"/></g></g><g clip-path="url(#999388e110)"><g clip-path="url(#6fe2516744)"><path fill="#007ec5" d="M 145.648438 80.136719 L 220.035156 80.136719 L 220.035156 94.304688 L 145.648438 94.304688 Z M 145.648438 80.136719 " fill-opacity="1" fill-rule="nonzero"/></g></g><g clip-path="url(#6b7c7e8b01)"><g clip-path="url(#914f5b428b)"><path fill="#007ec5" d="M 145.648438 80.136719 L 220.035156 80.136719 L 220.035156 94.304688 L 145.648438 94.304688 Z M 145.648438 80.136719 " fill-opacity="1" fill-rule="nonzero"/></g></g><g clip-path="url(#0f1c8be246)"><g clip-path="url(#7f4565086e)"><path fill="#007ec5" d="M 145.648438 80.136719 L 220.035156 80.136719 L 220.035156 94.304688 L 145.648438 94.304688 Z M 145.648438 80.136719 " fill-opacity="1" fill-rule="nonzero"/></g></g><g clip-path="url(#29405b857a)"><g clip-path="url(#329093c368)"><path fill="#007ec5" d="M 220.753906 80.824219 L 232.273438 80.824219 L 232.273438 93.605469 L 220.753906 93.605469 Z M 220.753906 80.824219 " fill-opacity="1" fill-rule="nonzero"/></g></g></svg>