<svg xmlns="http://www.w3.org/2000/svg" xmlns:xlink="http://www.w3.org/1999/xlink" width="3042" zoomAndPan="magnify" viewBox="0 0 2281.5 395.999985" height="528" preserveAspectRatio="xMidYMid meet" version="1.0"><defs><g/><clipPath id="ef676c145a"><path d="M 0 11.375 L 445 11.375 L 445 384.925781 L 0 384.925781 Z M 0 11.375 " clip-rule="nonzero"/></clipPath></defs><path fill="#ffffff" d="M 592.175781 45.550781 L 607.957031 45.550781 L 629.710938 133.804688 L 631.703125 141.996094 L 632.367188 141.996094 L 634.875 133.804688 L 661.714844 45.550781 L 676.464844 45.550781 L 702.128906 133.804688 L 704.636719 141.996094 L 705.300781 141.996094 L 728.972656 45.550781 L 744.753906 45.550781 L 712.378906 165.683594 L 697.628906 165.683594 L 672.113281 78.757812 L 669.460938 69.386719 L 668.796875 69.386719 L 665.921875 78.757812 L 639.445312 165.683594 L 624.695312 165.683594 Z M 765.402344 162.363281 C 758.691406 158.304688 753.457031 152.84375 749.695312 145.90625 C 745.933594 138.972656 744.089844 131.296875 744.089844 122.957031 C 744.089844 114.546875 745.933594 106.871094 749.695312 99.9375 C 753.457031 93 758.691406 87.539062 765.402344 83.480469 C 772.113281 79.421875 779.636719 77.429688 788.042969 77.429688 C 796.449219 77.429688 803.972656 79.421875 810.683594 83.480469 C 817.394531 87.539062 822.628906 93 826.390625 99.9375 C 830.152344 106.871094 831.996094 114.546875 831.996094 122.957031 C 831.996094 131.371094 830.152344 138.972656 826.390625 145.90625 C 822.628906 152.84375 817.394531 158.304688 810.683594 162.363281 C 803.972656 166.421875 796.449219 168.414062 788.042969 168.414062 C 779.636719 168.414062 772.039062 166.347656 765.402344 162.363281 Z M 802.644531 151.515625 C 807.140625 148.859375 810.828125 145.09375 813.558594 140.152344 C 816.285156 135.207031 817.6875 129.453125 817.6875 122.882812 C 817.6875 116.242188 816.285156 110.488281 813.558594 105.617188 C 810.828125 100.671875 807.214844 96.910156 802.644531 94.253906 C 798.144531 91.597656 793.203125 90.34375 787.96875 90.34375 C 782.734375 90.34375 777.792969 91.671875 773.21875 94.253906 C 768.648438 96.910156 764.960938 100.671875 762.230469 105.617188 C 759.503906 110.5625 758.101562 116.316406 758.101562 122.882812 C 758.101562 129.453125 759.429688 135.207031 762.230469 140.152344 C 764.960938 145.09375 768.648438 148.859375 773.21875 151.515625 C 777.792969 154.171875 782.734375 155.425781 787.96875 155.425781 C 793.203125 155.425781 798.144531 154.171875 802.644531 151.515625 Z M 846.816406 80.160156 L 860.386719 80.160156 L 860.386719 92.777344 L 861.050781 92.777344 C 863.484375 88.425781 867.171875 84.808594 872.113281 81.855469 C 877.054688 78.980469 882.214844 77.503906 887.671875 77.503906 C 893.941406 77.503906 899.398438 78.980469 904.042969 82.003906 C 908.691406 85.03125 912.007812 89.015625 914 94.105469 C 917.023438 89.089844 921.003906 85.03125 925.945312 82.003906 C 930.960938 78.980469 936.710938 77.503906 943.277344 77.503906 C 953.085938 77.503906 960.53125 80.527344 965.472656 86.507812 C 970.488281 92.484375 972.921875 100.601562 972.921875 110.929688 L 972.921875 165.683594 L 958.835938 165.683594 L 958.835938 112.996094 C 958.835938 105.027344 957.214844 99.273438 953.96875 95.730469 C 950.722656 92.1875 945.929688 90.34375 939.589844 90.34375 C 935.3125 90.34375 931.476562 91.597656 928.011719 94.03125 C 924.542969 96.46875 921.816406 99.789062 919.898438 103.921875 C 917.90625 108.054688 916.949219 112.554688 916.949219 117.351562 L 916.949219 165.683594 L 902.714844 165.683594 L 902.714844 113.144531 C 902.714844 105.101562 901.09375 99.273438 897.847656 95.730469 C 894.605469 92.1875 889.882812 90.34375 883.617188 90.34375 C 879.339844 90.34375 875.503906 91.597656 872.039062 94.105469 C 868.570312 96.617188 865.84375 100.007812 863.925781 104.140625 C 861.933594 108.347656 860.976562 112.847656 860.976562 117.644531 L 860.976562 165.609375 L 846.742188 165.609375 L 846.742188 80.160156 Z M 1009.648438 162.511719 C 1003.15625 158.597656 998.070312 153.210938 994.457031 146.351562 C 990.84375 139.488281 989 131.738281 989 123.105469 C 989 114.839844 990.695312 107.242188 994.085938 100.304688 C 997.480469 93.367188 1002.347656 87.835938 1008.613281 83.703125 C 1014.882812 79.570312 1022.109375 77.503906 1030.441406 77.503906 C 1038.851562 77.503906 1046.078125 79.347656 1052.199219 83.113281 C 1058.292969 86.851562 1063.015625 92.015625 1066.355469 98.609375 C 1069.675781 105.175781 1071.296875 112.773438 1071.296875 121.261719 C 1071.296875 122.957031 1071.152344 124.359375 1070.78125 125.613281 L 1003.230469 125.613281 C 1003.527344 132.109375 1005.148438 137.570312 1007.949219 142.070312 C 1010.753906 146.570312 1014.292969 149.890625 1018.570312 152.179688 C 1022.847656 154.46875 1027.347656 155.5 1032.066406 155.5 C 1043.054688 155.5 1051.460938 150.335938 1057.359375 140.078125 L 1069.453125 145.980469 C 1065.765625 152.917969 1060.753906 158.378906 1054.410156 162.4375 C 1048.066406 166.496094 1040.472656 168.488281 1031.550781 168.488281 C 1023.4375 168.390625 1016.136719 166.394531 1009.648438 162.511719 Z M 1056.253906 113.882812 C 1056.03125 110.339844 1055 106.722656 1053.230469 103.183594 C 1051.460938 99.566406 1048.585938 96.542969 1044.75 94.105469 C 1040.914062 91.671875 1036.046875 90.417969 1030.222656 90.417969 C 1023.511719 90.417969 1017.832031 92.558594 1013.1875 96.910156 C 1008.539062 101.191406 1005.515625 106.871094 1004.042969 113.957031 L 1056.253906 113.957031 Z M 1087.890625 80.160156 L 1101.460938 80.160156 L 1101.460938 92.777344 L 1102.125 92.777344 C 1104.484375 88.5 1108.246094 84.882812 1113.332031 81.929688 C 1118.496094 78.980469 1123.953125 77.503906 1129.777344 77.503906 C 1140.027344 77.503906 1147.917969 80.527344 1153.304688 86.507812 C 1158.6875 92.484375 1161.414062 100.601562 1161.414062 110.929688 L 1161.414062 165.683594 L 1147.183594 165.683594 L 1147.183594 112.996094 C 1147.183594 105.027344 1145.265625 99.273438 1141.503906 95.730469 C 1137.742188 92.1875 1132.507812 90.34375 1125.941406 90.34375 C 1121.371094 90.34375 1117.242188 91.597656 1113.628906 94.179688 C 1110.015625 96.761719 1107.136719 100.15625 1105.148438 104.363281 C 1103.15625 108.570312 1102.125 112.921875 1102.125 117.496094 L 1102.125 165.683594 L 1087.890625 165.683594 Z M 627.351562 241.539062 L 593.648438 241.539062 L 593.648438 227.960938 L 675.136719 227.960938 L 675.136719 241.539062 L 641.585938 241.539062 L 641.585938 348.09375 L 627.351562 348.09375 Z M 692.910156 344.847656 C 686.421875 340.933594 681.332031 335.546875 677.71875 328.6875 C 674.105469 321.824219 672.261719 314.074219 672.261719 305.441406 C 672.261719 297.175781 673.957031 289.578125 677.351562 282.640625 C 680.742188 275.703125 685.609375 270.171875 691.878906 266.039062 C 698.148438 261.90625 705.375 259.839844 713.707031 259.839844 C 722.113281 259.839844 729.339844 261.683594 735.460938 265.449219 C 741.558594 269.1875 746.277344 274.351562 749.621094 280.945312 C 752.941406 287.511719 754.5625 295.109375 754.5625 303.597656 C 754.5625 305.292969 754.414062 306.695312 754.046875 307.949219 L 686.570312 307.949219 C 686.863281 314.445312 688.484375 319.90625 691.289062 324.40625 C 694.089844 328.90625 697.628906 332.226562 701.90625 334.515625 C 706.183594 336.730469 710.683594 337.835938 715.402344 337.835938 C 726.390625 337.835938 734.796875 332.671875 740.699219 322.414062 L 752.792969 328.316406 C 749.105469 335.253906 744.089844 340.714844 737.75 344.773438 C 731.40625 348.832031 723.808594 350.824219 714.886719 350.824219 C 706.703125 350.75 699.402344 348.757812 692.910156 344.847656 Z M 739.519531 296.21875 C 739.296875 292.675781 738.265625 289.058594 736.496094 285.519531 C 734.722656 281.902344 731.847656 278.878906 728.015625 276.441406 C 724.179688 274.007812 719.3125 272.753906 713.484375 272.753906 C 706.773438 272.753906 701.097656 274.894531 696.449219 279.246094 C 691.804688 283.527344 688.78125 289.207031 687.304688 296.292969 L 739.519531 296.292969 Z M 788.484375 344.773438 C 781.921875 340.789062 776.757812 335.402344 773.070312 328.464844 C 769.382812 321.578125 767.542969 313.828125 767.542969 305.21875 C 767.542969 296.585938 769.382812 288.839844 773.070312 281.902344 C 776.757812 274.964844 781.921875 269.507812 788.484375 265.59375 C 795.121094 261.683594 802.496094 259.691406 810.753906 259.691406 C 820.046875 259.691406 827.789062 261.832031 834.132812 266.183594 C 840.476562 270.464844 844.972656 276.222656 847.628906 283.378906 L 834.722656 288.765625 C 832.585938 283.527344 829.414062 279.542969 825.285156 276.8125 C 821.082031 274.082031 816.066406 272.679688 810.09375 272.679688 C 805.078125 272.679688 800.359375 274.082031 796.007812 276.8125 C 791.65625 279.542969 788.191406 283.378906 785.535156 288.324219 C 782.878906 293.265625 781.625 298.875 781.625 305.292969 C 781.625 311.640625 782.953125 317.320312 785.535156 322.265625 C 788.191406 327.210938 791.65625 331.046875 796.007812 333.777344 C 800.359375 336.507812 805.078125 337.910156 810.09375 337.910156 C 816.140625 337.910156 821.300781 336.507812 825.652344 333.703125 C 830.003906 330.898438 833.25 326.914062 835.386719 321.824219 L 848.144531 327.210938 C 845.269531 334.21875 840.550781 339.976562 834.132812 344.328125 C 827.71875 348.683594 819.898438 350.898438 810.753906 350.898438 C 802.496094 350.75 795.046875 348.757812 788.484375 344.773438 Z M 863.558594 227.960938 L 877.789062 227.960938 L 877.789062 263.382812 L 877.125 275.113281 L 877.789062 275.113281 C 880.148438 270.761719 883.835938 267.144531 888.925781 264.191406 C 894.015625 261.316406 899.546875 259.839844 905.59375 259.839844 C 915.992188 259.839844 923.953125 262.863281 929.414062 268.988281 C 934.871094 275.113281 937.597656 283.15625 937.597656 293.265625 L 937.597656 348.09375 L 923.363281 348.09375 L 923.363281 295.40625 C 923.363281 287.660156 921.449219 281.976562 917.464844 278.285156 C 913.53125 274.597656 908.445312 272.753906 902.199219 272.753906 C 897.703125 272.753906 893.644531 274.082031 889.882812 276.8125 C 886.125 279.46875 883.175781 282.9375 880.960938 287.214844 C 878.75 291.496094 877.714844 295.847656 877.714844 300.496094 L 877.714844 348.167969 L 863.558594 348.167969 Z M 958.097656 262.496094 L 971.667969 262.496094 L 971.667969 275.113281 L 972.332031 275.113281 C 974.765625 270.761719 978.453125 267.144531 983.394531 264.191406 C 988.335938 261.316406 993.496094 259.839844 998.953125 259.839844 C 1005.222656 259.839844 1010.679688 261.316406 1015.324219 264.339844 C 1019.972656 267.367188 1023.289062 271.351562 1025.28125 276.441406 C 1028.304688 271.425781 1032.285156 267.367188 1037.226562 264.339844 C 1042.242188 261.316406 1047.996094 259.839844 1054.558594 259.839844 C 1064.367188 259.839844 1071.8125 262.863281 1076.753906 268.84375 C 1081.769531 274.820312 1084.203125 282.9375 1084.203125 293.265625 L 1084.203125 348.09375 L 1070.117188 348.09375 L 1070.117188 295.40625 C 1070.117188 287.4375 1068.496094 281.679688 1065.25 278.140625 C 1062.007812 274.597656 1057.210938 272.753906 1050.871094 272.753906 C 1046.59375 272.753906 1042.757812 274.007812 1039.292969 276.441406 C 1035.828125 278.878906 1033.097656 282.199219 1031.179688 286.332031 C 1029.191406 290.460938 1028.230469 294.964844 1028.230469 299.761719 L 1028.230469 348.09375 L 1013.996094 348.09375 L 1013.996094 295.554688 C 1013.996094 287.511719 1012.375 281.679688 1009.128906 278.140625 C 1005.886719 274.597656 1001.167969 272.753906 994.898438 272.753906 C 990.621094 272.753906 986.785156 274.007812 983.320312 276.515625 C 979.855469 279.023438 977.125 282.417969 975.207031 286.550781 C 973.214844 290.757812 972.257812 295.257812 972.257812 300.054688 L 972.257812 348.019531 L 958.023438 348.019531 L 958.023438 262.496094 Z M 1114.511719 347.058594 C 1109.570312 344.625 1105.8125 341.230469 1103.15625 336.949219 C 1100.5 332.671875 1099.101562 327.726562 1099.101562 322.265625 C 1099.101562 313.191406 1102.492188 306.105469 1109.351562 301.015625 C 1116.207031 295.921875 1124.761719 293.414062 1135.160156 293.414062 C 1140.324219 293.414062 1145.042969 294.003906 1149.46875 295.109375 C 1153.894531 296.21875 1157.285156 297.546875 1159.644531 298.949219 L 1159.644531 293.78125 C 1159.644531 287.4375 1157.433594 282.273438 1152.933594 278.433594 C 1148.4375 274.597656 1142.832031 272.679688 1135.972656 272.679688 C 1131.15625 272.679688 1126.730469 273.710938 1122.699219 275.777344 C 1118.640625 277.84375 1115.472656 280.722656 1113.113281 284.410156 L 1102.417969 276.367188 C 1105.738281 271.203125 1110.382812 267.21875 1116.207031 264.265625 C 1122.109375 261.390625 1128.597656 259.914062 1135.75 259.914062 C 1147.402344 259.914062 1156.472656 262.9375 1163.183594 269.0625 C 1169.820312 275.1875 1173.140625 283.453125 1173.140625 294.003906 L 1173.140625 348.167969 L 1159.570312 348.167969 L 1159.570312 335.917969 L 1158.90625 335.917969 C 1156.472656 340.050781 1152.785156 343.589844 1147.84375 346.46875 C 1142.90625 349.347656 1137.375 350.824219 1131.253906 350.824219 C 1125.058594 350.75 1119.453125 349.496094 1114.511719 347.058594 Z M 1146.074219 334.441406 C 1150.207031 332.007812 1153.523438 328.6875 1155.957031 324.554688 C 1158.390625 320.421875 1159.644531 315.921875 1159.644531 310.976562 C 1156.988281 309.207031 1153.671875 307.730469 1149.761719 306.621094 C 1145.855469 305.515625 1141.726562 304.925781 1137.375 304.925781 C 1129.558594 304.925781 1123.65625 306.546875 1119.675781 309.796875 C 1115.691406 313.042969 1113.703125 317.25 1113.703125 322.414062 C 1113.703125 327.136719 1115.472656 330.898438 1119.085938 333.851562 C 1122.699219 336.804688 1127.195312 338.203125 1132.652344 338.203125 C 1137.449219 338.132812 1141.945312 336.875 1146.074219 334.441406 Z M 1192.976562 227.960938 L 1207.210938 227.960938 L 1207.210938 303.449219 L 1247.476562 262.496094 L 1265.542969 262.496094 L 1265.542969 263.160156 L 1231.988281 297.03125 L 1266.355469 347.355469 L 1266.355469 348.019531 L 1249.394531 348.019531 L 1221.886719 306.917969 L 1207.136719 321.675781 L 1207.136719 348.019531 L 1192.902344 348.019531 L 1192.902344 227.960938 Z M 1291.28125 344.847656 C 1284.789062 340.933594 1279.703125 335.546875 1276.089844 328.6875 C 1272.476562 321.824219 1270.632812 314.074219 1270.632812 305.441406 C 1270.632812 297.175781 1272.328125 289.578125 1275.71875 282.640625 C 1279.113281 275.703125 1283.980469 270.171875 1290.246094 266.039062 C 1296.515625 261.90625 1303.742188 259.839844 1312.078125 259.839844 C 1320.484375 259.839844 1327.710938 261.683594 1333.832031 265.449219 C 1339.925781 269.1875 1344.648438 274.351562 1347.992188 280.945312 C 1351.308594 287.511719 1352.929688 295.109375 1352.929688 303.597656 C 1352.929688 305.292969 1352.785156 306.695312 1352.414062 307.949219 L 1284.863281 307.949219 C 1285.160156 314.445312 1286.78125 319.90625 1289.585938 324.40625 C 1292.386719 328.90625 1295.925781 332.226562 1300.203125 334.515625 C 1304.480469 336.730469 1308.980469 337.835938 1313.699219 337.835938 C 1324.6875 337.835938 1333.09375 332.671875 1338.992188 322.414062 L 1351.085938 328.316406 C 1347.402344 335.253906 1342.386719 340.714844 1336.042969 344.773438 C 1329.703125 348.832031 1322.105469 350.824219 1313.183594 350.824219 C 1305.070312 350.722656 1297.769531 348.730469 1291.28125 344.847656 Z M 1337.886719 296.21875 C 1337.664062 292.675781 1336.632812 289.058594 1334.863281 285.519531 C 1333.09375 281.902344 1330.21875 278.878906 1326.382812 276.441406 C 1322.546875 274.007812 1317.679688 272.753906 1311.855469 272.753906 C 1305.144531 272.753906 1299.464844 274.894531 1294.820312 279.246094 C 1290.175781 283.527344 1287.152344 289.207031 1285.675781 296.292969 L 1337.886719 296.292969 Z M 1369.523438 262.496094 L 1383.09375 262.496094 L 1383.09375 276.222656 L 1383.757812 276.222656 C 1385.429688 271.5 1388.671875 267.585938 1393.492188 264.488281 C 1398.285156 261.316406 1403.300781 259.765625 1408.609375 259.765625 C 1412.515625 259.765625 1415.910156 260.355469 1418.710938 261.609375 L 1418.710938 276.886719 C 1415.097656 275.113281 1411.117188 274.230469 1406.617188 274.230469 C 1402.488281 274.230469 1398.652344 275.410156 1395.1875 277.769531 C 1391.722656 280.132812 1388.917969 283.304688 1386.929688 287.289062 C 1384.863281 291.273438 1383.832031 295.554688 1383.832031 300.128906 L 1383.832031 348.019531 L 1369.597656 348.019531 L 1369.597656 262.496094 Z M 1435.894531 344.253906 C 1429.773438 339.976562 1425.421875 334.441406 1422.84375 327.726562 L 1435.601562 322.042969 C 1437.714844 327.210938 1440.886719 331.195312 1445.113281 334 C 1449.316406 336.804688 1453.890625 338.203125 1458.902344 338.203125 C 1464.285156 338.203125 1468.859375 337.097656 1472.621094 334.957031 C 1476.382812 332.816406 1478.296875 329.644531 1478.296875 325.660156 C 1478.296875 322.117188 1476.75 319.167969 1473.800781 317.027344 C 1470.777344 314.8125 1466.054688 312.96875 1459.566406 311.417969 L 1449.167969 308.761719 C 1442.382812 307.066406 1436.78125 304.261719 1432.429688 300.203125 C 1428.078125 296.144531 1425.867188 290.980469 1425.867188 284.632812 C 1425.867188 279.6875 1427.339844 275.410156 1430.289062 271.644531 C 1433.238281 267.882812 1437.222656 265.003906 1442.089844 263.011719 C 1447.03125 261.019531 1452.339844 259.988281 1458.019531 259.988281 C 1465.539062 259.988281 1472.175781 261.609375 1478.078125 264.855469 C 1483.976562 268.105469 1488.105469 272.605469 1490.539062 278.433594 L 1478.152344 284.117188 C 1474.316406 276.515625 1467.605469 272.679688 1457.871094 272.679688 C 1453.152344 272.679688 1449.09375 273.785156 1445.554688 275.925781 C 1442.015625 278.140625 1440.246094 280.871094 1440.246094 284.191406 C 1440.246094 287.363281 1441.5 289.871094 1443.933594 291.789062 C 1446.367188 293.78125 1450.054688 295.332031 1454.996094 296.585938 L 1467.382812 299.761719 C 1475.792969 301.898438 1482.058594 305.074219 1486.335938 309.207031 C 1490.613281 313.410156 1492.679688 318.503906 1492.679688 324.554688 C 1492.679688 329.792969 1491.128906 334.441406 1488.179688 338.351562 C 1485.15625 342.335938 1481.101562 345.363281 1475.9375 347.503906 C 1470.777344 349.640625 1465.097656 350.675781 1458.828125 350.675781 C 1449.757812 350.75 1442.089844 348.535156 1435.894531 344.253906 Z M 1435.894531 344.253906 " fill-opacity="1" fill-rule="nonzero"/><g clip-path="url(#ef676c145a)"><path fill="#ffffff" d="M 109.214844 384.839844 L 7.523438 384.839844 C 3.390625 384.839844 0.0742188 381.519531 0.0742188 377.386719 L 0.0742188 19.136719 C 0.0742188 15.003906 3.390625 11.683594 7.523438 11.683594 L 109.214844 11.683594 C 113.347656 11.683594 116.664062 15.003906 116.664062 19.136719 L 116.664062 50.867188 C 116.664062 54.996094 113.347656 58.316406 109.214844 58.316406 L 54.128906 58.316406 C 50 58.316406 46.679688 61.640625 46.679688 65.769531 L 46.679688 330.457031 C 46.679688 334.589844 50 337.910156 54.128906 337.910156 L 109.214844 337.910156 C 113.347656 337.910156 116.664062 341.230469 116.664062 345.363281 L 116.664062 377.3125 C 116.738281 381.519531 113.347656 384.839844 109.214844 384.839844 Z M 335.46875 11.683594 L 436.71875 11.683594 C 440.847656 11.683594 444.167969 15.003906 444.167969 19.136719 L 444.167969 377.386719 C 444.167969 381.519531 440.847656 384.839844 436.71875 384.839844 L 335.46875 384.839844 C 331.335938 384.839844 328.019531 381.519531 328.019531 377.386719 L 328.019531 345.65625 C 328.019531 341.523438 331.335938 338.203125 335.46875 338.203125 L 390.332031 338.203125 C 394.464844 338.203125 397.78125 334.882812 397.78125 330.75 L 397.78125 66.066406 C 397.78125 61.933594 394.464844 58.613281 390.332031 58.613281 L 335.46875 58.613281 C 331.335938 58.613281 328.019531 55.292969 328.019531 51.160156 L 328.019531 19.210938 C 328.09375 15.003906 331.410156 11.683594 335.46875 11.683594 Z M 335.46875 11.683594 " fill-opacity="1" fill-rule="nonzero"/></g><path fill="#ffffff" d="M 281.410156 194.3125 L 263.050781 167.085938 C 262.753906 168.707031 262.238281 170.257812 261.425781 171.660156 L 261.351562 171.808594 L 226.398438 224.640625 L 282.003906 308.46875 C 284.878906 313.558594 288.121094 314.8125 292.472656 314.886719 L 340.1875 314.886719 C 346.382812 314.886719 351.394531 309.871094 351.394531 303.671875 L 351.394531 297.839844 Z M 351.324219 92.851562 C 351.324219 86.652344 346.308594 81.636719 340.113281 81.636719 L 292.546875 81.636719 C 286.351562 81.636719 281.339844 86.875 281.339844 92.851562 L 281.339844 185.902344 L 351.25 289.429688 L 351.25 92.851562 Z M 164.671875 92.851562 C 164.671875 86.652344 159.660156 81.636719 153.464844 81.636719 L 105.898438 81.636719 C 99.703125 81.636719 94.6875 86.652344 94.6875 92.851562 L 94.6875 290.460938 L 164.597656 187.230469 L 164.597656 92.851562 Z M 256.855469 157.714844 C 256.3125 156.828125 255.722656 156.015625 255.085938 155.277344 C 252.945312 153.066406 249.996094 151.664062 246.457031 151.664062 L 200.882812 151.664062 C 196.382812 151.664062 192.769531 154.023438 190.042969 158.082031 L 165.707031 193.945312 L 94.6875 298.800781 L 94.6875 303.671875 C 94.6875 305.21875 95.058594 306.621094 95.722656 307.878906 C 97.492188 311.933594 101.324219 314.8125 106.710938 314.8125 L 154.644531 314.8125 C 159.140625 314.8125 162.828125 312.453125 165.484375 308.394531 L 223.667969 220.289062 L 257.445312 169.152344 C 259.289062 165.90625 259.066406 161.476562 256.855469 157.714844 Z M 256.855469 157.714844 " fill-opacity="1" fill-rule="nonzero"/><path stroke-linecap="round" transform="matrix(0, 0.870754, -0.870754, 0, 1587.227702, 28.645224)" fill="none" stroke-linejoin="miter" d="M 5.001158 4.998777 L 383.996723 4.998777 " stroke="#ffffff" stroke-width="10" stroke-opacity="1" stroke-miterlimit="4"/><g fill="#ffffff" fill-opacity="1"><g transform="translate(1673.357016, 166.652851)"><g><path d="M 37.71875 -105.21875 L 64.75 -28.90625 L 91.640625 -105.21875 L 120.109375 -105.21875 L 120.109375 0 L 98.359375 0 L 98.359375 -28.765625 L 100.515625 -78.40625 L 72.125 0 L 57.234375 0 L 28.90625 -78.34375 L 31.078125 -28.765625 L 31.078125 0 L 9.390625 0 L 9.390625 -105.21875 Z M 37.71875 -105.21875 "/></g></g></g><g fill="#ffffff" fill-opacity="1"><g transform="translate(1804.174351, 166.652851)"><g><path d="M 4.765625 -39.8125 C 4.765625 -47.570312 6.257812 -54.488281 9.25 -60.5625 C 12.238281 -66.632812 16.535156 -71.332031 22.140625 -74.65625 C 27.753906 -77.976562 34.273438 -79.640625 41.703125 -79.640625 C 52.253906 -79.640625 60.863281 -76.410156 67.53125 -69.953125 C 74.207031 -63.492188 77.929688 -54.726562 78.703125 -43.65625 L 78.84375 -38.296875 C 78.84375 -26.304688 75.492188 -16.679688 68.796875 -9.421875 C 62.097656 -2.171875 53.113281 1.453125 41.84375 1.453125 C 30.570312 1.453125 21.570312 -2.160156 14.84375 -9.390625 C 8.125 -16.617188 4.765625 -26.445312 4.765625 -38.875 Z M 25.65625 -38.296875 C 25.65625 -30.878906 27.050781 -25.207031 29.84375 -21.28125 C 32.632812 -17.351562 36.632812 -15.390625 41.84375 -15.390625 C 46.90625 -15.390625 50.851562 -17.328125 53.6875 -21.203125 C 56.53125 -25.085938 57.953125 -31.289062 57.953125 -39.8125 C 57.953125 -47.09375 56.53125 -52.734375 53.6875 -56.734375 C 50.851562 -60.734375 46.859375 -62.734375 41.703125 -62.734375 C 36.585938 -62.734375 32.632812 -60.742188 29.84375 -56.765625 C 27.050781 -52.785156 25.65625 -46.628906 25.65625 -38.296875 Z M 25.65625 -38.296875 "/></g></g></g><g fill="#ffffff" fill-opacity="1"><g transform="translate(1889.034699, 166.652851)"><g><path d="M 27.25 -78.1875 L 27.890625 -69.15625 C 33.484375 -76.144531 40.976562 -79.640625 50.375 -79.640625 C 58.65625 -79.640625 64.816406 -77.207031 68.859375 -72.34375 C 72.910156 -67.476562 74.984375 -60.203125 75.078125 -50.515625 L 75.078125 0 L 54.203125 0 L 54.203125 -50.015625 C 54.203125 -54.441406 53.238281 -57.65625 51.3125 -59.65625 C 49.382812 -61.65625 46.179688 -62.65625 41.703125 -62.65625 C 35.816406 -62.65625 31.40625 -60.148438 28.46875 -55.140625 L 28.46875 0 L 7.59375 0 L 7.59375 -78.1875 Z M 27.25 -78.1875 "/></g></g></g><g fill="#ffffff" fill-opacity="1"><g transform="translate(1973.1002, 166.652851)"><g><path d="M 33.03125 -97.421875 L 33.03125 -78.1875 L 46.390625 -78.1875 L 46.390625 -62.875 L 33.03125 -62.875 L 33.03125 -23.84375 C 33.03125 -20.957031 33.582031 -18.882812 34.6875 -17.625 C 35.789062 -16.375 37.910156 -15.75 41.046875 -15.75 C 43.359375 -15.75 45.40625 -15.921875 47.1875 -16.265625 L 47.1875 -0.4375 C 43.09375 0.820312 38.878906 1.453125 34.546875 1.453125 C 19.898438 1.453125 12.429688 -5.941406 12.140625 -20.734375 L 12.140625 -62.875 L 0.71875 -62.875 L 0.71875 -78.1875 L 12.140625 -78.1875 L 12.140625 -97.421875 Z M 33.03125 -97.421875 "/></g></g></g><g fill="#ffffff" fill-opacity="1"><g transform="translate(2024.287661, 166.652851)"><g><path d="M 51.953125 -58.609375 C 49.117188 -58.992188 46.613281 -59.1875 44.4375 -59.1875 C 36.539062 -59.1875 31.363281 -56.515625 28.90625 -51.171875 L 28.90625 0 L 8.015625 0 L 8.015625 -78.1875 L 27.75 -78.1875 L 28.328125 -68.875 C 32.515625 -76.050781 38.320312 -79.640625 45.75 -79.640625 C 48.0625 -79.640625 50.226562 -79.328125 52.25 -78.703125 Z M 51.953125 -58.609375 "/></g></g></g><g fill="#ffffff" fill-opacity="1"><g transform="translate(2079.449396, 166.652851)"><g><path d="M 44.015625 1.453125 C 32.546875 1.453125 23.207031 -2.0625 16 -9.09375 C 8.800781 -16.132812 5.203125 -25.507812 5.203125 -37.21875 L 5.203125 -39.234375 C 5.203125 -47.085938 6.71875 -54.109375 9.75 -60.296875 C 12.789062 -66.492188 17.09375 -71.265625 22.65625 -74.609375 C 28.21875 -77.960938 34.566406 -79.640625 41.703125 -79.640625 C 52.390625 -79.640625 60.804688 -76.265625 66.953125 -69.515625 C 73.097656 -62.773438 76.171875 -53.210938 76.171875 -40.828125 L 76.171875 -32.296875 L 26.375 -32.296875 C 27.050781 -27.191406 29.085938 -23.097656 32.484375 -20.015625 C 35.878906 -16.929688 40.179688 -15.390625 45.390625 -15.390625 C 53.429688 -15.390625 59.71875 -18.304688 64.25 -24.140625 L 74.5 -12.640625 C 71.375 -8.210938 67.132812 -4.753906 61.78125 -2.265625 C 56.4375 0.210938 50.515625 1.453125 44.015625 1.453125 Z M 41.625 -62.734375 C 37.476562 -62.734375 34.113281 -61.332031 31.53125 -58.53125 C 28.957031 -55.738281 27.3125 -51.742188 26.59375 -46.546875 L 55.640625 -46.546875 L 55.640625 -48.203125 C 55.546875 -52.828125 54.296875 -56.40625 51.890625 -58.9375 C 49.484375 -61.46875 46.0625 -62.734375 41.625 -62.734375 Z M 43.5 -111 L 66.265625 -111 L 46.25 -88.59375 L 29.265625 -88.59375 Z M 43.5 -111 "/></g></g></g><g fill="#ffffff" fill-opacity="1"><g transform="translate(2160.624494, 166.652851)"><g><path d="M 53.328125 0 C 52.367188 -1.875 51.671875 -4.210938 51.234375 -7.015625 C 46.179688 -1.367188 39.609375 1.453125 31.515625 1.453125 C 23.847656 1.453125 17.5 -0.765625 12.46875 -5.203125 C 7.4375 -9.640625 4.921875 -15.226562 4.921875 -21.96875 C 4.921875 -30.257812 7.988281 -36.617188 14.125 -41.046875 C 20.269531 -45.484375 29.148438 -47.722656 40.765625 -47.765625 L 50.375 -47.765625 L 50.375 -52.25 C 50.375 -55.863281 49.445312 -58.753906 47.59375 -60.921875 C 45.738281 -63.085938 42.8125 -64.171875 38.8125 -64.171875 C 35.289062 -64.171875 32.53125 -63.328125 30.53125 -61.640625 C 28.53125 -59.953125 27.53125 -57.640625 27.53125 -54.703125 L 6.65625 -54.703125 C 6.65625 -59.234375 8.050781 -63.425781 10.84375 -67.28125 C 13.632812 -71.132812 17.582031 -74.15625 22.6875 -76.34375 C 27.800781 -78.539062 33.535156 -79.640625 39.890625 -79.640625 C 49.523438 -79.640625 57.171875 -77.21875 62.828125 -72.375 C 68.492188 -67.53125 71.328125 -60.722656 71.328125 -51.953125 L 71.328125 -18.0625 C 71.378906 -10.644531 72.414062 -5.035156 74.4375 -1.234375 L 74.4375 0 Z M 36.0625 -14.53125 C 39.144531 -14.53125 41.984375 -15.210938 44.578125 -16.578125 C 47.179688 -17.953125 49.113281 -19.796875 50.375 -22.109375 L 50.375 -35.5625 L 42.5625 -35.5625 C 32.113281 -35.5625 26.550781 -31.945312 25.875 -24.71875 L 25.796875 -23.484375 C 25.796875 -20.878906 26.710938 -18.734375 28.546875 -17.046875 C 30.378906 -15.367188 32.882812 -14.53125 36.0625 -14.53125 Z M 36.0625 -14.53125 "/></g></g></g><g fill="#ffffff" fill-opacity="1"><g transform="translate(2241.149264, 166.652851)"><g><path d="M 30.0625 0 L 9.109375 0 L 9.109375 -111 L 30.0625 -111 Z M 30.0625 0 "/></g></g></g><g fill="#ffffff" fill-opacity="1"><g transform="translate(1673.34341, 328.613004)"><g><path d="M 77.6875 0 L 8.75 0 L 8.75 -9.609375 L 45.171875 -50.078125 C 50.566406 -56.203125 54.285156 -61.175781 56.328125 -65 C 58.378906 -68.832031 59.40625 -72.796875 59.40625 -76.890625 C 59.40625 -82.378906 57.742188 -86.882812 54.421875 -90.40625 C 51.097656 -93.925781 46.664062 -95.6875 41.125 -95.6875 C 34.46875 -95.6875 29.296875 -93.789062 25.609375 -90 C 21.929688 -86.21875 20.09375 -80.957031 20.09375 -74.21875 L 6.71875 -74.21875 C 6.71875 -83.90625 9.835938 -91.734375 16.078125 -97.703125 C 22.316406 -103.679688 30.664062 -106.671875 41.125 -106.671875 C 50.90625 -106.671875 58.632812 -104.101562 64.3125 -98.96875 C 70 -93.832031 72.84375 -87.003906 72.84375 -78.484375 C 72.84375 -68.117188 66.242188 -55.785156 53.046875 -41.484375 L 24.859375 -10.90625 L 77.6875 -10.90625 Z M 77.6875 0 "/></g></g></g><g fill="#ffffff" fill-opacity="1"><g transform="translate(1757.625683, 328.613004)"><g><path d="M 74.71875 -44.875 C 74.71875 -29.21875 72.046875 -17.582031 66.703125 -9.96875 C 61.359375 -2.351562 53 1.453125 41.625 1.453125 C 30.394531 1.453125 22.082031 -2.269531 16.6875 -9.71875 C 11.289062 -17.164062 8.5 -28.285156 8.3125 -43.078125 L 8.3125 -60.921875 C 8.3125 -76.390625 10.984375 -87.878906 16.328125 -95.390625 C 21.679688 -102.910156 30.066406 -106.671875 41.484375 -106.671875 C 52.804688 -106.671875 61.140625 -103.039062 66.484375 -95.78125 C 71.828125 -88.53125 74.570312 -77.34375 74.71875 -62.21875 Z M 61.359375 -63.15625 C 61.359375 -74.476562 59.765625 -82.726562 56.578125 -87.90625 C 53.398438 -93.09375 48.367188 -95.6875 41.484375 -95.6875 C 34.640625 -95.6875 29.648438 -93.109375 26.515625 -87.953125 C 23.390625 -82.796875 21.78125 -74.867188 21.6875 -64.171875 L 21.6875 -42.78125 C 21.6875 -31.414062 23.332031 -23.019531 26.625 -17.59375 C 29.925781 -12.175781 34.925781 -9.46875 41.625 -9.46875 C 48.226562 -9.46875 53.128906 -12.019531 56.328125 -17.125 C 59.535156 -22.226562 61.210938 -30.273438 61.359375 -41.265625 Z M 61.359375 -63.15625 "/></g></g></g><g fill="#ffffff" fill-opacity="1"><g transform="translate(1841.907955, 328.613004)"><g><path d="M 77.6875 0 L 8.75 0 L 8.75 -9.609375 L 45.171875 -50.078125 C 50.566406 -56.203125 54.285156 -61.175781 56.328125 -65 C 58.378906 -68.832031 59.40625 -72.796875 59.40625 -76.890625 C 59.40625 -82.378906 57.742188 -86.882812 54.421875 -90.40625 C 51.097656 -93.925781 46.664062 -95.6875 41.125 -95.6875 C 34.46875 -95.6875 29.296875 -93.789062 25.609375 -90 C 21.929688 -86.21875 20.09375 -80.957031 20.09375 -74.21875 L 6.71875 -74.21875 C 6.71875 -83.90625 9.835938 -91.734375 16.078125 -97.703125 C 22.316406 -103.679688 30.664062 -106.671875 41.125 -106.671875 C 50.90625 -106.671875 58.632812 -104.101562 64.3125 -98.96875 C 70 -93.832031 72.84375 -87.003906 72.84375 -78.484375 C 72.84375 -68.117188 66.242188 -55.785156 53.046875 -41.484375 L 24.859375 -10.90625 L 77.6875 -10.90625 Z M 77.6875 0 "/></g></g></g><g fill="#ffffff" fill-opacity="1"><g transform="translate(1926.190215, 328.613004)"><g><path d="M 14.890625 -52.75 L 20.234375 -105.21875 L 74.140625 -105.21875 L 74.140625 -92.859375 L 31.578125 -92.859375 L 28.40625 -64.171875 C 33.5625 -67.203125 39.414062 -68.71875 45.96875 -68.71875 C 55.550781 -68.71875 63.160156 -65.550781 68.796875 -59.21875 C 74.429688 -52.882812 77.25 -44.320312 77.25 -33.53125 C 77.25 -22.6875 74.320312 -14.144531 68.46875 -7.90625 C 62.613281 -1.664062 54.4375 1.453125 43.9375 1.453125 C 34.632812 1.453125 27.046875 -1.125 21.171875 -6.28125 C 15.296875 -11.4375 11.945312 -18.566406 11.125 -27.671875 L 23.78125 -27.671875 C 24.59375 -21.648438 26.734375 -17.109375 30.203125 -14.046875 C 33.671875 -10.992188 38.25 -9.46875 43.9375 -9.46875 C 50.15625 -9.46875 55.035156 -11.585938 58.578125 -15.828125 C 62.117188 -20.066406 63.890625 -25.921875 63.890625 -33.390625 C 63.890625 -40.421875 61.972656 -46.066406 58.140625 -50.328125 C 54.304688 -54.597656 49.210938 -56.734375 42.859375 -56.734375 C 37.023438 -56.734375 32.445312 -55.457031 29.125 -52.90625 L 25.578125 -50.015625 Z M 14.890625 -52.75 "/></g></g></g></svg>