<svg xmlns="http://www.w3.org/2000/svg" xmlns:xlink="http://www.w3.org/1999/xlink" width="400" zoomAndPan="magnify" viewBox="0 0 300 187.499995" height="250" preserveAspectRatio="xMidYMid meet" version="1.0"><defs><clipPath id="c8b0a6074e"><path d="M 0.398438 0 L 299.601562 0 L 299.601562 187 L 0.398438 187 Z M 0.398438 0 " clip-rule="nonzero"/></clipPath><clipPath id="a894d18a0c"><path d="M 52.757812 71.890625 L 97 71.890625 L 97 115.277344 L 52.757812 115.277344 Z M 52.757812 71.890625 " clip-rule="nonzero"/></clipPath><clipPath id="a72f09fd40"><path d="M 229 79 L 247.242188 79 L 247.242188 108 L 229 108 Z M 229 79 " clip-rule="nonzero"/></clipPath></defs><g clip-path="url(#c8b0a6074e)"><path fill="#ffffff" d="M 0.398438 0 L 299.601562 0 L 299.601562 187 L 0.398438 187 Z M 0.398438 0 " fill-opacity="1" fill-rule="nonzero"/><path fill="#ffffff" d="M 0.398438 0 L 299.601562 0 L 299.601562 187 L 0.398438 187 Z M 0.398438 0 " fill-opacity="1" fill-rule="nonzero"/></g><g clip-path="url(#a894d18a0c)"><path fill="#e5530e" d="M 74.492188 71.890625 C 62.578125 71.890625 52.902344 81.609375 52.902344 93.570312 C 52.902344 105.53125 62.578125 115.25 74.492188 115.25 C 86.40625 115.25 96.085938 105.53125 96.085938 93.570312 C 96.085938 81.609375 86.429688 71.917969 74.492188 71.890625 Z M 61.207031 85.917969 C 61.207031 84.390625 62.453125 83.140625 63.976562 83.140625 C 65.5 83.140625 66.746094 84.390625 66.746094 85.917969 C 66.746094 87.449219 65.5 88.699219 63.976562 88.699219 C 62.453125 88.699219 61.230469 87.476562 61.207031 85.917969 Z M 66.871094 106.730469 C 65.523438 106.730469 64.40625 105.636719 64.40625 104.257812 C 64.40625 103.902344 64.484375 103.570312 64.609375 103.261719 L 72.839844 84.746094 C 73.398438 83.496094 74.875 82.933594 76.09375 83.496094 C 77.335938 84.058594 77.894531 85.535156 77.335938 86.761719 L 69.105469 105.277344 C 68.726562 106.171875 67.835938 106.730469 66.871094 106.730469 Z M 87.320312 86.761719 L 79.089844 105.277344 C 78.503906 106.503906 77.03125 107.011719 75.8125 106.425781 C 74.644531 105.863281 74.109375 104.460938 74.621094 103.261719 L 82.847656 84.746094 C 83.433594 83.523438 84.90625 83.011719 86.125 83.597656 C 87.292969 84.160156 87.828125 85.5625 87.320312 86.761719 Z M 87.320312 86.761719 " fill-opacity="1" fill-rule="nonzero"/></g><path fill="#000000" d="M 119.835938 89.183594 C 122.882812 89.183594 125.625 90.511719 127.304688 92.832031 L 123.164062 95.816406 C 122.425781 94.71875 121.179688 94.054688 119.859375 94.082031 C 117.703125 94.082031 115.59375 95.636719 115.59375 98.109375 C 115.59375 100.585938 117.675781 102.242188 119.835938 102.242188 C 121.15625 102.269531 122.402344 101.605469 123.136719 100.507812 L 127.277344 103.46875 C 125.652344 105.789062 122.910156 107.164062 119.808594 107.164062 C 114.882812 107.164062 110.488281 103.542969 110.488281 98.136719 C 110.488281 92.730469 114.90625 89.183594 119.835938 89.183594 Z M 119.835938 89.183594 " fill-opacity="1" fill-rule="nonzero"/><path fill="#000000" d="M 142.570312 89.542969 L 142.570312 93.597656 L 138.960938 93.597656 L 138.960938 106.757812 L 133.882812 106.757812 L 133.882812 93.597656 L 130.785156 93.597656 L 130.785156 89.542969 L 133.90625 89.542969 L 133.90625 82.933594 L 138.988281 82.933594 L 138.988281 89.542969 Z M 142.570312 89.542969 " fill-opacity="1" fill-rule="nonzero"/><path fill="#000000" d="M 152.273438 106.78125 L 147.167969 106.78125 L 147.167969 89.542969 L 152.273438 89.542969 L 152.273438 93.699219 C 153.164062 90.484375 155.347656 89.160156 157.125 89.160156 C 158.140625 89.132812 159.15625 89.335938 160.070312 89.796875 L 159.15625 94.414062 C 158.34375 94.03125 157.457031 93.878906 156.542969 93.902344 C 153.59375 93.902344 152.273438 96.222656 152.273438 100.761719 Z M 152.273438 106.78125 " fill-opacity="1" fill-rule="nonzero"/><path fill="#000000" d="M 164.160156 80.179688 L 169.265625 80.179688 L 169.265625 106.757812 L 164.160156 106.757812 Z M 164.160156 80.179688 " fill-opacity="1" fill-rule="nonzero"/><path fill="#000000" d="M 201.933594 89.542969 L 195.507812 106.757812 L 193.984375 106.757812 L 188.039062 91.402344 L 182.324219 106.78125 L 180.773438 106.78125 L 174.171875 89.566406 L 175.972656 89.566406 L 181.511719 104.230469 L 186.972656 89.566406 L 189.132812 89.566406 L 194.667969 104.207031 L 200.132812 89.566406 Z M 201.933594 89.542969 " fill-opacity="1" fill-rule="nonzero"/><path fill="#000000" d="M 223.070312 98.875 L 207.75 98.875 C 208.054688 102.90625 211.027344 105.480469 214.6875 105.480469 C 217.253906 105.480469 219.460938 104.230469 220.679688 102.191406 L 222.257812 102.753906 C 220.78125 105.507812 217.964844 107.140625 214.6875 107.140625 C 209.886719 107.140625 206.050781 103.570312 206.050781 98.109375 C 206.050781 92.652344 209.859375 89.183594 214.6875 89.183594 C 219.5625 89.183594 223.09375 92.679688 223.09375 98.109375 C 223.121094 98.367188 223.121094 98.621094 223.070312 98.875 Z M 207.777344 97.320312 L 221.445312 97.320312 C 221.113281 93.339844 218.421875 90.84375 214.710938 90.84375 C 211.003906 90.84375 208.105469 93.339844 207.777344 97.320312 Z M 207.777344 97.320312 " fill-opacity="1" fill-rule="nonzero"/><g clip-path="url(#a72f09fd40)"><path fill="#000000" d="M 230.96875 106.78125 L 229.265625 106.78125 L 229.265625 79.746094 L 230.96875 79.746094 L 230.96875 93.238281 C 232.367188 90.6875 235.1875 89.183594 238.234375 89.183594 C 243.113281 89.183594 247.074219 92.984375 247.074219 98.136719 C 247.074219 103.289062 243.113281 107.140625 238.234375 107.140625 C 235.1875 107.140625 232.367188 105.558594 230.96875 103.058594 Z M 238.257812 90.867188 C 234.296875 90.867188 230.996094 93.929688 230.996094 98.316406 C 231.070312 102.523438 234.347656 105.429688 238.257812 105.429688 C 242.171875 105.429688 245.421875 102.269531 245.421875 98.136719 C 245.421875 94.003906 242.222656 90.867188 238.257812 90.867188 Z M 238.257812 90.867188 " fill-opacity="1" fill-rule="nonzero"/></g></svg>