<svg xmlns="http://www.w3.org/2000/svg" xmlns:xlink="http://www.w3.org/1999/xlink" width="400" zoomAndPan="magnify" viewBox="0 0 300 187.499995" height="250" preserveAspectRatio="xMidYMid meet" version="1.0"><defs><clipPath id="e07c072c4c"><path d="M 0.398438 0 L 299.601562 0 L 299.601562 187 L 0.398438 187 Z M 0.398438 0 " clip-rule="nonzero"/></clipPath></defs><g clip-path="url(#e07c072c4c)"><path fill="#ffffff" d="M 0.398438 0 L 299.601562 0 L 299.601562 187 L 0.398438 187 Z M 0.398438 0 " fill-opacity="1" fill-rule="nonzero"/><path fill="#ffffff" d="M 0.398438 0 L 299.601562 0 L 299.601562 187 L 0.398438 187 Z M 0.398438 0 " fill-opacity="1" fill-rule="nonzero"/></g><path fill="#212020" d="M 96.582031 76.597656 C 95.480469 76.597656 94.566406 76.6875 93.925781 76.824219 L 93.925781 99.9375 C 93.925781 104.460938 94.980469 105.648438 99.511719 105.648438 C 105.652344 105.648438 109.90625 101.308594 109.90625 91.582031 C 109.90625 81.714844 105.007812 76.597656 96.582031 76.597656 Z M 98.867188 106.789062 C 94.378906 106.789062 93.464844 106.652344 91.3125 106.652344 C 89.621094 106.652344 85.175781 106.742188 84.261719 106.742188 L 84.261719 106.058594 L 85.863281 105.785156 C 88.109375 105.421875 88.523438 104.277344 88.523438 98.890625 L 88.523438 83.265625 C 88.523438 77.875 88.109375 76.734375 85.863281 76.371094 L 84.261719 76.09375 L 84.261719 75.410156 C 85.179688 75.410156 88.660156 75.5 90.398438 75.5 C 92.230469 75.5 94.933594 75.410156 97.042969 75.410156 C 108.214844 75.410156 116.046875 80.9375 116.046875 91.121094 C 116.042969 101.445312 108.535156 106.789062 98.867188 106.789062 Z M 98.867188 106.789062 " fill-opacity="1" fill-rule="nonzero"/><path fill="#212020" d="M 123.777344 80.847656 C 121.949219 80.847656 120.574219 79.566406 120.574219 77.832031 C 120.574219 76.140625 121.949219 74.816406 123.777344 74.816406 C 125.65625 74.816406 127.03125 76.140625 127.03125 77.832031 C 127.03125 79.566406 125.660156 80.847656 123.777344 80.847656 Z M 129.917969 106.746094 C 128.816406 106.746094 126.296875 106.699219 124.328125 106.699219 C 122.316406 106.699219 119.613281 106.746094 118.5625 106.746094 L 118.5625 106.0625 L 119.433594 105.921875 C 121.308594 105.648438 121.675781 104.964844 121.675781 100.578125 L 121.675781 91.078125 C 121.675781 88.703125 121.308594 88.019531 119.660156 87.285156 L 118.515625 86.785156 L 118.515625 86.234375 L 126.164062 84.589844 L 126.757812 84.953125 L 126.757812 100.574219 C 126.757812 104.957031 127.128906 105.601562 129.050781 105.921875 L 129.917969 106.058594 Z M 129.917969 106.746094 " fill-opacity="1" fill-rule="nonzero"/><path fill="#212020" d="M 144.019531 95.554688 C 142.734375 95.875 141.085938 96.375 139.710938 96.96875 C 137.605469 97.929688 136.460938 99.160156 136.460938 100.945312 C 136.460938 103.136719 137.925781 104.414062 140.078125 104.414062 C 141.410156 104.414062 142.734375 103.820312 144.019531 102.722656 Z M 152.125 106.152344 C 151.027344 106.605469 149.835938 106.929688 148.046875 106.929688 C 145.894531 106.929688 144.429688 105.785156 144.0625 103.683594 C 142.003906 105.695312 139.804688 107.113281 136.917969 107.113281 C 134.21875 107.113281 131.699219 105.46875 131.699219 102.222656 C 131.699219 99.207031 133.53125 97.746094 138.660156 96.011719 C 140.308594 95.460938 142.277344 94.914062 144.015625 94.503906 L 144.015625 91.582031 C 144.015625 87.515625 142.597656 86.054688 140.171875 86.054688 C 139.347656 86.054688 138.753906 86.238281 138.203125 86.554688 C 137.652344 90.714844 136.875 92.175781 135.179688 92.175781 C 133.894531 92.175781 132.796875 91.492188 132.796875 89.894531 C 132.796875 88.019531 137.101562 84.5 142.320312 84.5 C 147.3125 84.5 149.144531 86.648438 149.144531 91.308594 L 149.144531 103.046875 C 149.144531 104.917969 149.644531 105.5625 150.835938 105.5625 C 151.15625 105.5625 151.476562 105.5625 151.933594 105.515625 Z M 152.125 106.152344 " fill-opacity="1" fill-rule="nonzero"/><path fill="#212020" d="M 164.445312 106.742188 C 163.394531 106.742188 160.871094 106.699219 158.902344 106.699219 C 156.886719 106.699219 154.183594 106.742188 153.132812 106.742188 L 153.132812 106.058594 L 154.003906 105.921875 C 155.835938 105.648438 156.199219 104.964844 156.199219 100.578125 L 156.199219 79.839844 C 156.199219 77.464844 155.789062 76.78125 154.230469 76.050781 L 153.085938 75.5 L 153.085938 75 L 160.730469 73.308594 L 161.332031 73.71875 L 161.332031 100.578125 C 161.332031 104.960938 161.695312 105.648438 163.574219 105.921875 L 164.445312 106.058594 Z M 164.445312 106.742188 " fill-opacity="1" fill-rule="nonzero"/><path fill="#212020" d="M 176.988281 85.550781 C 173.875 85.550781 172.089844 87.925781 172.089844 94.367188 C 172.089844 101.445312 174.378906 106.058594 178.179688 106.058594 C 181.339844 106.058594 183.082031 103.683594 183.082031 97.246094 C 183.082031 90.164062 180.835938 85.550781 176.988281 85.550781 Z M 177.585938 107.199219 C 171.21875 107.199219 166.503906 103.183594 166.503906 95.644531 C 166.503906 89.292969 171.082031 84.40625 177.628906 84.40625 C 183.949219 84.40625 188.714844 88.425781 188.714844 95.960938 C 188.714844 102.3125 184.085938 107.199219 177.585938 107.199219 Z M 177.585938 107.199219 " fill-opacity="1" fill-rule="nonzero"/><path fill="#212020" d="M 200.433594 85.371094 C 197.457031 85.371094 196.3125 87.835938 196.3125 91.261719 C 196.3125 95.507812 197.5 97.839844 200.570312 97.839844 C 203.542969 97.839844 204.644531 95.375 204.644531 91.902344 C 204.648438 87.699219 203.457031 85.371094 200.433594 85.371094 Z M 203.136719 106.425781 C 201.625 106.289062 198.832031 106.105469 196.128906 105.96875 C 194.941406 107.113281 194.574219 108.117188 194.574219 109.394531 C 194.574219 112.730469 197.640625 115.011719 201.902344 115.011719 C 206.070312 115.011719 209.457031 112.496094 209.457031 109.53125 C 209.457031 107.660156 208.082031 106.789062 203.136719 106.425781 Z M 213.304688 87.925781 L 208.539062 87.925781 C 209.183594 88.886719 209.503906 90.027344 209.503906 91.355469 C 209.503906 96.148438 204.832031 98.800781 200.207031 98.800781 C 199.105469 98.800781 198.191406 98.660156 197.277344 98.480469 C 195.902344 99.390625 195.582031 99.988281 195.582031 100.628906 C 195.582031 101.3125 196.039062 101.632812 198.332031 101.769531 L 205.519531 102.273438 C 209.828125 102.59375 212.023438 104.148438 212.023438 107.023438 C 212.023438 112.691406 206.300781 116.570312 199.246094 116.570312 C 194.300781 116.570312 190.59375 114.789062 190.59375 111.316406 C 190.59375 109.445312 191.96875 107.664062 194.761719 105.703125 C 193.023438 105.289062 191.921875 104.238281 191.921875 102.867188 C 191.921875 101.359375 193.523438 99.71875 196.226562 98.164062 C 193.296875 97.203125 191.417969 94.960938 191.417969 92.042969 C 191.417969 87.339844 195.953125 84.460938 200.804688 84.460938 C 203.6875 84.460938 206.070312 85.28125 207.582031 86.789062 L 213.304688 84.734375 Z M 213.304688 87.925781 " fill-opacity="1" fill-rule="nonzero"/><path fill="#212020" d="M 239.679688 106.746094 C 237.800781 106.746094 233.863281 106.746094 231.9375 106.835938 L 231.527344 103.636719 C 229.101562 105.691406 226.855469 107.0625 224.015625 107.0625 C 219.9375 107.0625 217.738281 104.871094 217.738281 100.257812 L 217.738281 91.078125 C 217.738281 88.703125 217.371094 87.972656 215.769531 87.285156 L 214.625 86.785156 L 214.625 86.234375 L 222.273438 84.589844 L 222.867188 84.953125 L 222.867188 99.296875 C 222.867188 102.628906 224.332031 104.277344 226.898438 104.277344 C 228.730469 104.277344 230.195312 103.59375 231.527344 102.589844 L 231.527344 91.308594 C 231.527344 88.886719 231.019531 88.019531 229.328125 87.285156 L 228.183594 86.785156 L 228.183594 86.234375 L 236.058594 84.589844 L 236.65625 84.953125 L 236.65625 100.574219 C 236.65625 105.050781 237.019531 105.601562 238.898438 105.921875 L 239.679688 106.058594 Z M 239.679688 106.746094 " fill-opacity="1" fill-rule="nonzero"/><path fill="#212020" d="M 255.84375 92.539062 C 255.707031 87.925781 254.058594 85.597656 251.402344 85.597656 C 248.425781 85.597656 246.5 88.15625 246.226562 92.539062 Z M 246.226562 93.773438 L 246.226562 94.089844 C 246.363281 100.351562 249.753906 104.1875 254.332031 104.1875 C 256.851562 104.1875 258.589844 103.273438 260.46875 101.402344 L 261.066406 101.859375 C 258.683594 105.148438 255.617188 107.203125 251.628906 107.203125 C 245.816406 107.203125 241.464844 103.230469 241.464844 96.425781 C 241.464844 89.070312 247.003906 84.414062 252.363281 84.414062 C 258.273438 84.414062 261.109375 87.699219 261.25 93.777344 L 246.226562 93.777344 Z M 246.226562 93.773438 " fill-opacity="1" fill-rule="nonzero"/><path fill="#212020" d="M 64.1875 75.378906 C 62.359375 75.378906 60.589844 75.839844 59.015625 76.703125 C 59.585938 77.289062 60.097656 77.933594 60.539062 78.617188 C 61.671875 78.046875 62.914062 77.75 64.1875 77.75 C 68.511719 77.75 71.894531 80.945312 71.894531 85.027344 C 71.894531 89.9375 68.492188 93.078125 59.394531 101.480469 L 58.820312 102.007812 C 58.375 102.421875 57.882812 102.792969 57.367188 103.113281 C 56.664062 103.546875 55.8125 103.660156 55.03125 103.425781 C 53.648438 103.011719 52.558594 102.644531 52.304688 102.558594 C 51.609375 101.308594 51.363281 96.582031 51.328125 94.675781 C 56.207031 93.816406 59.734375 89.816406 59.734375 85.117188 C 59.734375 83.644531 59.386719 82.226562 58.703125 80.894531 L 58.65625 80.8125 C 58.648438 80.792969 58.636719 80.773438 58.628906 80.75 C 58.535156 80.578125 58.4375 80.402344 58.328125 80.234375 L 58.332031 80.230469 L 58.257812 80.121094 C 57.75 79.328125 56.808594 78.15625 55.226562 77.082031 C 53.507812 75.96875 51.5 75.378906 49.421875 75.378906 L 49.324219 75.378906 C 43.59375 75.378906 39.109375 79.613281 39.109375 85.023438 C 39.109375 90.605469 43.191406 94.785156 52.070312 102.792969 L 52.09375 102.808594 C 52.992188 103.617188 53.933594 104.464844 54.929688 105.355469 L 55.6875 106.039062 C 55.976562 106.296875 56.355469 106.441406 56.753906 106.441406 C 57.15625 106.441406 57.535156 106.296875 57.824219 106.039062 L 58.582031 105.355469 C 69.445312 95.617188 74.402344 91.171875 74.402344 85.023438 C 74.398438 79.613281 69.914062 75.378906 64.1875 75.378906 Z M 49.617188 92.648438 C 49.179688 92.898438 48.894531 93.339844 48.851562 93.816406 L 48.824219 94.183594 C 48.8125 94.351562 48.804688 94.585938 48.84375 95.410156 L 48.960938 96.609375 C 44.191406 92.035156 41.613281 88.796875 41.613281 85.023438 C 41.613281 85.011719 41.613281 85.007812 41.613281 85 L 41.617188 85 L 41.625 84.816406 C 41.792969 80.878906 45.191406 77.773438 49.363281 77.75 C 51.753906 77.761719 53.972656 78.792969 55.613281 80.660156 C 55.625 80.667969 55.632812 80.671875 55.632812 80.671875 C 56.675781 81.96875 57.226562 83.503906 57.226562 85.113281 C 57.226562 88.847656 54.257812 91.992188 50.328125 92.425781 C 50.0625 92.453125 49.824219 92.527344 49.617188 92.648438 Z M 49.617188 92.648438 " fill-opacity="1" fill-rule="nonzero"/></svg>