<svg xmlns="http://www.w3.org/2000/svg" xmlns:xlink="http://www.w3.org/1999/xlink" width="400" zoomAndPan="magnify" viewBox="0 0 300 187.499995" height="250" preserveAspectRatio="xMidYMid meet" version="1.0"><defs><clipPath id="542159bc28"><path d="M 0.398438 0 L 299.601562 0 L 299.601562 187 L 0.398438 187 Z M 0.398438 0 " clip-rule="nonzero"/></clipPath></defs><g clip-path="url(#542159bc28)"><path fill="#ffffff" d="M 0.398438 0 L 299.601562 0 L 299.601562 187 L 0.398438 187 Z M 0.398438 0 " fill-opacity="1" fill-rule="nonzero"/><path fill="#ffffff" d="M 0.398438 0 L 299.601562 0 L 299.601562 187 L 0.398438 187 Z M 0.398438 0 " fill-opacity="1" fill-rule="nonzero"/><rect x="-30" width="360" fill="#ffffff" y="-18.749999" height="224.999994" fill-opacity="1"/></g><path fill="#243267" d="M 40.726562 47.042969 L 40.726562 51.757812 L 255.4375 51.757812 L 255.4375 47.042969 L 40.726562 47.042969 " fill-opacity="1" fill-rule="nonzero"/><path fill="#243267" d="M 40.726562 140.273438 L 255.4375 140.273438 L 255.4375 135.558594 L 40.726562 135.558594 L 40.726562 140.273438 " fill-opacity="1" fill-rule="nonzero"/><path fill="#243267" d="M 48.28125 70.601562 L 53.523438 70.601562 C 56.5625 70.601562 59.003906 71.382812 60.777344 72.921875 C 62.558594 74.46875 63.425781 76.523438 63.425781 79.207031 C 63.425781 81.792969 62.5625 83.824219 60.792969 85.414062 C 59.03125 86.992188 56.648438 87.796875 53.710938 87.796875 L 48.28125 87.796875 Z M 68.121094 72.242188 C 66.789062 70.175781 64.890625 68.550781 62.484375 67.414062 C 60.097656 66.28125 57.339844 65.707031 54.285156 65.707031 L 41.753906 65.707031 L 41.753906 92.6875 L 53.957031 92.6875 C 57.101562 92.6875 59.933594 92.128906 62.375 91.023438 C 64.835938 89.910156 66.765625 88.316406 68.109375 86.277344 C 69.453125 84.242188 70.132812 81.875 70.132812 79.246094 C 70.132812 76.667969 69.457031 74.3125 68.121094 72.242188 " fill-opacity="1" fill-rule="nonzero"/><path fill="#243267" d="M 79.203125 92.6875 L 85.726562 92.6875 L 85.726562 65.707031 L 79.203125 65.707031 L 79.203125 92.6875 " fill-opacity="1" fill-rule="nonzero"/><path fill="#243267" d="M 108.574219 76.84375 C 105.175781 75.4375 104.148438 74.953125 103.871094 74.785156 C 102.570312 74.046875 101.910156 73.273438 101.910156 72.484375 C 101.910156 71.835938 102.222656 71.328125 102.867188 70.929688 C 103.574219 70.488281 104.59375 70.265625 105.898438 70.265625 C 108.113281 70.265625 110.703125 71.066406 113.597656 72.644531 L 114.308594 73.035156 L 114.308594 67.453125 L 114.039062 67.320312 C 111.390625 66.027344 108.59375 65.375 105.734375 65.375 C 102.691406 65.375 100.199219 66.058594 98.324219 67.410156 C 96.402344 68.796875 95.425781 70.6875 95.425781 73.023438 C 95.425781 74.777344 96.035156 76.339844 97.230469 77.667969 C 98.390625 78.957031 100.160156 80.09375 102.472656 81.046875 C 104.359375 81.867188 105.925781 82.585938 107.117188 83.171875 C 108.414062 83.847656 109.042969 84.667969 109.042969 85.6875 C 109.042969 86.398438 108.703125 86.960938 108.007812 87.40625 C 107.253906 87.886719 106.230469 88.128906 104.972656 88.128906 C 102.371094 88.128906 99.542969 86.996094 96.566406 84.761719 L 95.796875 84.183594 L 95.796875 90.386719 L 96.050781 90.523438 C 97.722656 91.433594 99.257812 92.082031 100.609375 92.457031 C 101.972656 92.832031 103.613281 93.023438 105.484375 93.023438 C 108.410156 93.023438 110.835938 92.296875 112.691406 90.863281 C 114.585938 89.402344 115.546875 87.453125 115.546875 85.074219 C 115.546875 83.238281 114.980469 81.640625 113.867188 80.328125 C 112.777344 79.046875 111 77.878906 108.574219 76.84375 " fill-opacity="1" fill-rule="nonzero"/><path fill="#243267" d="M 123.722656 70.601562 L 133.941406 70.601562 L 133.941406 92.6875 L 140.464844 92.6875 L 140.464844 70.601562 L 150.683594 70.601562 L 150.683594 65.707031 L 123.722656 65.707031 L 123.722656 70.601562 " fill-opacity="1" fill-rule="nonzero"/><path fill="#243267" d="M 167.128906 81.363281 L 179.613281 81.363281 L 179.613281 76.472656 L 167.128906 76.472656 L 167.128906 70.601562 L 180.167969 70.601562 L 180.167969 65.707031 L 160.605469 65.707031 L 160.605469 92.6875 L 180.457031 92.6875 L 180.457031 87.796875 L 167.128906 87.796875 L 167.128906 81.363281 " fill-opacity="1" fill-rule="nonzero"/><path fill="#243267" d="M 210.773438 87.125 C 209.390625 87.519531 207.914062 87.71875 206.386719 87.71875 C 204.40625 87.71875 202.601562 87.355469 201.023438 86.636719 C 199.46875 85.929688 198.246094 84.910156 197.394531 83.617188 C 196.546875 82.324219 196.113281 80.839844 196.113281 79.207031 C 196.113281 77.609375 196.546875 76.136719 197.40625 74.835938 C 198.265625 73.527344 199.488281 72.496094 201.046875 71.777344 C 202.625 71.046875 204.417969 70.675781 206.386719 70.675781 C 207.972656 70.675781 209.511719 70.875 210.964844 71.273438 C 212.429688 71.671875 214.050781 72.328125 215.785156 73.226562 L 216.488281 73.59375 L 216.488281 67.757812 L 216.203125 67.632812 C 214.367188 66.8125 212.628906 66.226562 211.039062 65.886719 C 209.445312 65.546875 207.796875 65.375 206.136719 65.375 C 202.992188 65.375 200.125 65.957031 197.605469 67.113281 C 195.070312 68.273438 193.050781 69.953125 191.597656 72.105469 C 190.144531 74.261719 189.40625 76.726562 189.40625 79.429688 C 189.40625 81.960938 190.121094 84.324219 191.535156 86.449219 C 192.945312 88.570312 194.910156 90.214844 197.371094 91.339844 C 199.8125 92.457031 202.617188 93.023438 205.707031 93.023438 C 207.820312 93.023438 209.703125 92.832031 211.296875 92.449219 C 212.886719 92.074219 214.652344 91.429688 216.539062 90.535156 L 216.816406 90.40625 L 216.816406 84.601562 L 216.125 84.9375 C 213.976562 85.988281 212.179688 86.722656 210.773438 87.125 " fill-opacity="1" fill-rule="nonzero"/><path fill="#243267" d="M 247.894531 65.707031 L 247.894531 76.660156 L 233.921875 76.660156 L 233.921875 65.707031 L 227.398438 65.707031 L 227.398438 92.6875 L 233.921875 92.6875 L 233.921875 81.699219 L 247.894531 81.699219 L 247.894531 92.6875 L 254.417969 92.6875 L 254.417969 65.707031 L 247.894531 65.707031 " fill-opacity="1" fill-rule="nonzero"/><path fill="#192c66" d="M 56.320312 117.152344 C 55.359375 117.425781 54.332031 117.566406 53.277344 117.566406 C 51.90625 117.566406 50.660156 117.3125 49.570312 116.816406 C 48.5 116.328125 47.664062 115.632812 47.082031 114.746094 C 46.5 113.863281 46.207031 112.847656 46.207031 111.726562 C 46.207031 110.636719 46.503906 109.628906 47.089844 108.734375 C 47.675781 107.839844 48.519531 107.136719 49.585938 106.640625 C 50.675781 106.136719 51.914062 105.878906 53.277344 105.878906 C 54.375 105.878906 55.445312 106.019531 56.453125 106.296875 C 57.476562 106.574219 58.605469 107.03125 59.808594 107.65625 L 60.511719 108.023438 L 60.511719 103.59375 L 60.226562 103.46875 C 58.929688 102.890625 57.699219 102.476562 56.574219 102.234375 C 55.449219 101.992188 54.28125 101.871094 53.101562 101.871094 C 50.875 101.871094 48.835938 102.285156 47.050781 103.105469 C 45.246094 103.929688 43.808594 105.128906 42.773438 106.660156 C 41.734375 108.199219 41.207031 109.957031 41.207031 111.886719 C 41.207031 113.691406 41.71875 115.378906 42.726562 116.894531 C 43.734375 118.40625 45.132812 119.578125 46.882812 120.378906 C 48.617188 121.171875 50.609375 121.574219 52.796875 121.574219 C 54.292969 121.574219 55.625 121.4375 56.757812 121.167969 C 57.886719 120.898438 59.136719 120.445312 60.46875 119.816406 L 60.746094 119.683594 L 60.746094 115.285156 L 60.050781 115.625 C 58.550781 116.359375 57.296875 116.871094 56.320312 117.152344 " fill-opacity="1" fill-rule="nonzero"/><path fill="#192c66" d="M 87.148438 111.726562 C 87.148438 113.457031 86.546875 114.828125 85.308594 115.917969 C 84.070312 117.011719 82.457031 117.566406 80.511719 117.566406 C 79.222656 117.566406 78.058594 117.3125 77.042969 116.816406 C 76.046875 116.328125 75.257812 115.628906 74.699219 114.742188 C 74.144531 113.855469 73.863281 112.84375 73.863281 111.726562 C 73.863281 110.605469 74.136719 109.585938 74.675781 108.703125 C 75.210938 107.824219 75.996094 107.128906 77 106.636719 C 78.023438 106.132812 79.195312 105.878906 80.484375 105.878906 C 81.773438 105.878906 82.945312 106.132812 83.96875 106.628906 C 84.976562 107.117188 85.765625 107.816406 86.316406 108.707031 C 86.871094 109.597656 87.148438 110.613281 87.148438 111.726562 Z M 86.367188 103.085938 C 84.636719 102.277344 82.667969 101.871094 80.511719 101.871094 C 78.269531 101.871094 76.253906 102.296875 74.515625 103.140625 C 72.765625 103.992188 71.371094 105.203125 70.375 106.746094 C 69.371094 108.292969 68.863281 109.96875 68.863281 111.726562 C 68.863281 113.550781 69.371094 115.242188 70.375 116.75 C 71.375 118.25 72.785156 119.445312 74.570312 120.296875 C 76.339844 121.144531 78.328125 121.574219 80.484375 121.574219 C 82.667969 121.574219 84.664062 121.152344 86.414062 120.316406 C 88.175781 119.476562 89.585938 118.277344 90.597656 116.75 C 91.617188 115.214844 92.132812 113.527344 92.132812 111.726562 C 92.132812 109.886719 91.605469 108.167969 90.5625 106.625 C 89.523438 105.089844 88.113281 103.898438 86.367188 103.085938 " fill-opacity="1" fill-rule="nonzero"/><path fill="#192c66" d="M 116.914062 114.125 L 105.597656 102.105469 L 101.476562 102.105469 L 101.476562 121.339844 L 106.257812 121.339844 L 106.257812 109.117188 L 117.648438 121.339844 L 121.695312 121.339844 L 121.695312 102.105469 L 116.914062 102.105469 L 116.914062 114.125 " fill-opacity="1" fill-rule="nonzero"/><path fill="#192c66" d="M 130.824219 105.828125 L 138 105.828125 L 138 121.339844 L 142.867188 121.339844 L 142.867188 105.828125 L 150.042969 105.828125 L 150.042969 102.105469 L 130.824219 102.105469 L 130.824219 105.828125 " fill-opacity="1" fill-rule="nonzero"/><path fill="#192c66" d="M 164.402344 105.777344 L 166.351562 105.777344 C 167.3125 105.777344 168.050781 105.953125 168.542969 106.308594 C 168.992188 106.628906 169.210938 107.113281 169.210938 107.792969 C 169.210938 108.445312 168.984375 108.941406 168.519531 109.3125 C 168.023438 109.703125 167.316406 109.902344 166.40625 109.902344 L 164.402344 109.902344 Z M 174.203125 116.039062 C 173.433594 114.714844 172.804688 113.792969 172.273438 113.21875 C 171.957031 112.882812 171.617188 112.582031 171.246094 112.324219 C 172.074219 111.898438 172.734375 111.363281 173.21875 110.734375 C 173.875 109.878906 174.210938 108.867188 174.210938 107.726562 C 174.210938 106.054688 173.542969 104.675781 172.234375 103.636719 C 170.953125 102.621094 169.292969 102.105469 167.289062 102.105469 L 159.53125 102.105469 L 159.53125 121.339844 L 164.402344 121.339844 L 164.402344 113.621094 L 165.335938 113.621094 C 165.882812 113.621094 166.347656 113.742188 166.757812 113.980469 C 167.183594 114.230469 167.644531 114.675781 168.125 115.296875 C 168.628906 115.953125 169.445312 117.257812 170.546875 119.175781 C 171.074219 120.085938 171.484375 120.726562 171.792969 121.144531 L 171.9375 121.339844 L 177.46875 121.339844 L 176.925781 120.578125 C 176.339844 119.757812 175.425781 118.230469 174.203125 116.039062 " fill-opacity="1" fill-rule="nonzero"/><path fill="#192c66" d="M 201.867188 111.726562 C 201.867188 113.457031 201.265625 114.828125 200.023438 115.917969 C 198.785156 117.011719 197.171875 117.566406 195.230469 117.566406 C 193.941406 117.566406 192.773438 117.3125 191.761719 116.816406 C 190.761719 116.328125 189.972656 115.628906 189.417969 114.742188 C 188.859375 113.855469 188.578125 112.84375 188.578125 111.726562 C 188.578125 110.605469 188.851562 109.585938 189.390625 108.703125 C 189.929688 107.824219 190.710938 107.128906 191.714844 106.636719 C 192.738281 106.132812 193.910156 105.878906 195.199219 105.878906 C 196.488281 105.878906 197.664062 106.132812 198.6875 106.628906 C 199.691406 107.117188 200.484375 107.816406 201.035156 108.707031 C 201.585938 109.597656 201.867188 110.613281 201.867188 111.726562 Z M 201.082031 103.085938 C 199.351562 102.277344 197.382812 101.871094 195.230469 101.871094 C 192.984375 101.871094 190.96875 102.296875 189.234375 103.140625 C 187.484375 103.992188 186.089844 105.203125 185.089844 106.746094 C 184.089844 108.292969 183.582031 109.96875 183.582031 111.726562 C 183.582031 113.550781 184.089844 115.242188 185.09375 116.75 C 186.09375 118.25 187.503906 119.445312 189.285156 120.296875 C 191.054688 121.144531 193.042969 121.574219 195.199219 121.574219 C 197.382812 121.574219 199.378906 121.152344 201.128906 120.316406 C 202.894531 119.476562 204.300781 118.277344 205.316406 116.75 C 206.332031 115.214844 206.851562 113.527344 206.851562 111.726562 C 206.851562 109.886719 206.320312 108.167969 205.277344 106.625 C 204.238281 105.089844 202.828125 103.898438 201.082031 103.085938 " fill-opacity="1" fill-rule="nonzero"/><path fill="#192c66" d="M 221.457031 102.105469 L 216.589844 102.105469 L 216.589844 121.339844 L 231.265625 121.339844 L 231.265625 117.617188 L 221.457031 117.617188 L 221.457031 102.105469 " fill-opacity="1" fill-rule="nonzero"/><path fill="#192c66" d="M 253.296875 112.425781 C 252.519531 111.507812 251.253906 110.671875 249.527344 109.9375 C 247.03125 108.902344 246.402344 108.59375 246.238281 108.5 C 245.375 108.007812 244.933594 107.507812 244.933594 107.007812 C 244.933594 106.601562 245.128906 106.292969 245.539062 106.035156 C 246.015625 105.742188 246.707031 105.59375 247.59375 105.59375 C 249.125 105.59375 250.921875 106.148438 252.933594 107.246094 L 253.644531 107.636719 L 253.644531 103.386719 L 253.375 103.253906 C 251.496094 102.335938 249.511719 101.871094 247.476562 101.871094 C 245.3125 101.871094 243.53125 102.359375 242.191406 103.328125 C 240.800781 104.332031 240.097656 105.695312 240.097656 107.386719 C 240.097656 108.65625 240.535156 109.785156 241.398438 110.742188 C 242.230469 111.664062 243.488281 112.476562 245.128906 113.152344 C 246.460938 113.730469 247.558594 114.234375 248.382812 114.640625 C 249.242188 115.085938 249.65625 115.625 249.65625 116.28125 C 249.65625 116.734375 249.449219 117.078125 249 117.363281 C 248.492188 117.6875 247.800781 117.851562 246.941406 117.851562 C 245.148438 117.851562 243.191406 117.066406 241.125 115.515625 L 240.355469 114.9375 L 240.355469 119.667969 L 240.609375 119.800781 C 241.792969 120.445312 242.882812 120.90625 243.839844 121.171875 C 244.808594 121.4375 245.972656 121.574219 247.304688 121.574219 C 249.390625 121.574219 251.121094 121.054688 252.453125 120.027344 C 253.820312 118.972656 254.511719 117.566406 254.511719 115.847656 C 254.511719 114.523438 254.101562 113.375 253.296875 112.425781 " fill-opacity="1" fill-rule="nonzero"/><path fill="#243267" d="M 254.863281 102.238281 L 258.269531 102.238281 L 258.269531 102.757812 L 256.847656 102.757812 L 256.847656 106.320312 L 256.261719 106.320312 L 256.261719 102.757812 L 254.863281 102.757812 L 254.863281 102.238281 " fill-opacity="1" fill-rule="nonzero"/><path fill="#243267" d="M 262.417969 102.242188 L 262.964844 102.242188 L 262.964844 106.320312 L 262.378906 106.320312 L 262.378906 103.148438 L 261.125 104.726562 L 261.019531 104.726562 L 259.75 103.148438 L 259.75 106.320312 L 259.164062 106.320312 L 259.164062 102.242188 L 259.71875 102.242188 L 261.074219 103.917969 L 262.417969 102.242188 " fill-opacity="1" fill-rule="nonzero"/></svg>