<svg xmlns="http://www.w3.org/2000/svg" xmlns:xlink="http://www.w3.org/1999/xlink" width="400" zoomAndPan="magnify" viewBox="0 0 300 187.499995" height="250" preserveAspectRatio="xMidYMid meet" version="1.0"><defs><clipPath id="3844e9956f"><path d="M 0.398438 0 L 299.601562 0 L 299.601562 187 L 0.398438 187 Z M 0.398438 0 " clip-rule="nonzero"/></clipPath><clipPath id="c7cdd09b39"><path d="M 68.234375 78.796875 L 97.644531 78.796875 L 97.644531 108.203125 L 68.234375 108.203125 Z M 68.234375 78.796875 " clip-rule="nonzero"/></clipPath><clipPath id="d70cb40677"><path d="M 71.066406 78.796875 L 94.8125 78.796875 C 96.375 78.796875 97.640625 80.066406 97.640625 81.628906 L 97.640625 105.375 C 97.640625 106.9375 96.375 108.203125 94.8125 108.203125 L 71.066406 108.203125 C 69.503906 108.203125 68.238281 106.9375 68.238281 105.375 L 68.238281 81.628906 C 68.238281 80.066406 69.503906 78.796875 71.066406 78.796875 " clip-rule="nonzero"/></clipPath><clipPath id="a410d24aae"><path d="M 74.871094 82.371094 L 91 82.371094 L 91 104.527344 L 74.871094 104.527344 Z M 74.871094 82.371094 " clip-rule="nonzero"/></clipPath><clipPath id="6f8a9e7f70"><path d="M 90.386719 87.980469 C 89.9375 87.085938 89.089844 85.699219 87.90625 84.527344 L 85.769531 82.390625 L 85.753906 82.421875 L 82.941406 88.214844 C 82.941406 88.214844 82.9375 88.210938 82.933594 88.199219 C 82.929688 88.210938 82.925781 88.21875 82.925781 88.21875 C 82.925781 88.21875 82.921875 88.210938 82.917969 88.199219 C 82.914062 88.210938 82.910156 88.21875 82.910156 88.21875 C 82.910156 88.21875 82.90625 88.210938 82.902344 88.199219 C 82.894531 88.210938 82.894531 88.21875 82.894531 88.21875 C 82.894531 88.21875 82.890625 88.210938 82.882812 88.199219 C 82.878906 88.210938 82.875 88.21875 82.875 88.21875 L 80.0625 82.421875 L 80.050781 82.390625 L 77.914062 84.527344 C 76.730469 85.699219 75.882812 87.089844 75.433594 87.980469 C 74.128906 90.585938 75.527344 96.902344 75.867188 98.53125 L 81.398438 104.445312 L 80.496094 98.1875 L 80.054688 97.9375 C 79.949219 97.875 79.785156 97.777344 79.59375 97.667969 C 79.234375 97.457031 79.292969 97.511719 78.972656 97.246094 C 78.609375 96.945312 78.175781 96.546875 77.914062 96.167969 C 77.140625 95.054688 77.15625 94.382812 77.101562 93.867188 C 77.089844 93.769531 77.078125 93.417969 77.078125 93.417969 L 81.835938 96.046875 L 81.839844 98.566406 L 82.878906 99.28125 L 82.886719 99.277344 L 82.894531 99.28125 L 82.902344 99.277344 L 82.910156 99.28125 L 82.917969 99.277344 L 82.925781 99.28125 L 82.9375 99.277344 L 82.945312 99.28125 L 83.980469 98.566406 L 83.984375 96.046875 L 88.742188 93.417969 C 88.742188 93.417969 88.730469 93.769531 88.71875 93.867188 C 88.664062 94.382812 88.679688 95.054688 87.90625 96.167969 C 87.644531 96.546875 87.210938 96.945312 86.851562 97.246094 C 86.527344 97.511719 86.589844 97.457031 86.226562 97.667969 C 86.039062 97.777344 85.871094 97.875 85.765625 97.9375 L 85.324219 98.1875 L 84.421875 104.445312 L 89.953125 98.53125 C 90.292969 96.902344 91.691406 90.585938 90.386719 87.980469 Z M 90.386719 87.980469 " clip-rule="nonzero"/></clipPath><clipPath id="ec28f59af8"><path d="M 123.496094 89.324219 L 136 89.324219 L 136 101.84375 L 123.496094 101.84375 Z M 123.496094 89.324219 " clip-rule="nonzero"/></clipPath><clipPath id="7624fd445d"><path d="M 129.765625 98.777344 C 130.332031 98.777344 130.785156 98.648438 131.125 98.398438 C 131.464844 98.128906 131.71875 97.796875 131.882812 97.394531 C 132.0625 96.980469 132.152344 96.546875 132.152344 96.101562 L 132.152344 95.035156 C 132.152344 94.574219 132.0625 94.140625 131.882812 93.742188 C 131.71875 93.324219 131.46875 92.992188 131.125 92.738281 C 130.785156 92.484375 130.332031 92.359375 129.765625 92.359375 C 129.292969 92.359375 128.875 92.472656 128.519531 92.695312 C 128.164062 92.914062 127.878906 93.265625 127.671875 93.738281 C 127.480469 94.199219 127.382812 94.808594 127.382812 95.566406 C 127.382812 96.308594 127.480469 96.917969 127.671875 97.394531 C 127.878906 97.867188 128.164062 98.21875 128.519531 98.441406 C 128.875 98.664062 129.292969 98.773438 129.765625 98.773438 M 128.296875 101.800781 C 127.582031 101.800781 126.9375 101.675781 126.359375 101.421875 C 125.777344 101.15625 125.273438 100.761719 124.84375 100.242188 C 124.429688 99.722656 124.109375 99.078125 123.886719 98.304688 C 123.664062 97.515625 123.550781 96.605469 123.550781 95.566406 C 123.550781 94.167969 123.746094 93.011719 124.132812 92.089844 C 124.535156 91.15625 125.089844 90.464844 125.804688 90.019531 C 126.515625 89.558594 127.347656 89.328125 128.296875 89.328125 C 128.90625 89.328125 129.449219 89.417969 129.921875 89.597656 C 130.414062 89.773438 130.828125 90.027344 131.171875 90.355469 C 131.527344 90.679688 131.800781 91.066406 131.996094 91.511719 L 132.195312 91.511719 L 132.328125 89.550781 L 135.960938 89.550781 L 135.960938 101.582031 L 132.195312 101.582031 L 132.195312 99.621094 L 131.992188 99.621094 C 131.710938 100.273438 131.25 100.800781 130.613281 101.203125 C 129.972656 101.601562 129.203125 101.804688 128.296875 101.804688 " clip-rule="nonzero"/></clipPath><clipPath id="30bfd346bb"><path d="M 106.621094 85.105469 L 122.804688 85.105469 L 122.804688 101.84375 L 106.621094 101.84375 Z M 106.621094 85.105469 " clip-rule="nonzero"/></clipPath><clipPath id="542bd15a4c"><path d="M 114.730469 101.816406 C 113.457031 101.816406 112.3125 101.617188 111.300781 101.214844 C 110.308594 100.816406 109.460938 100.25 108.761719 99.523438 C 108.078125 98.78125 107.550781 97.898438 107.179688 96.871094 C 106.824219 95.847656 106.648438 94.710938 106.648438 93.464844 C 106.648438 92.128906 106.839844 90.949219 107.226562 89.921875 C 107.628906 88.898438 108.191406 88.03125 108.917969 87.316406 C 109.644531 86.605469 110.515625 86.0625 111.527344 85.691406 C 112.550781 85.320312 113.679688 85.132812 114.910156 85.132812 C 116.394531 85.132812 117.6875 85.378906 118.785156 85.871094 C 119.886719 86.34375 120.753906 87.011719 121.390625 87.875 C 122.03125 88.722656 122.410156 89.714844 122.527344 90.859375 L 118.410156 90.859375 C 118.304688 90.367188 118.097656 89.953125 117.785156 89.613281 C 117.472656 89.269531 117.070312 89.011719 116.582031 88.832031 C 116.105469 88.640625 115.550781 88.542969 114.910156 88.542969 C 114.078125 88.542969 113.34375 88.722656 112.703125 89.078125 C 112.082031 89.417969 111.597656 89.953125 111.257812 90.679688 C 110.914062 91.40625 110.746094 92.335938 110.746094 93.464844 C 110.746094 94.3125 110.835938 95.054688 111.011719 95.691406 C 111.207031 96.332031 111.480469 96.859375 111.835938 97.273438 C 112.191406 97.675781 112.625 97.976562 113.128906 98.1875 C 113.632812 98.394531 114.191406 98.5 114.800781 98.5 C 115.632812 98.5 116.335938 98.355469 116.917969 98.074219 C 117.511719 97.792969 117.964844 97.390625 118.273438 96.871094 C 118.601562 96.351562 118.765625 95.738281 118.765625 95.023438 L 118.765625 94.398438 L 119.8125 95.648438 L 114.644531 95.648438 L 115.332031 92.839844 L 122.796875 92.839844 L 122.796875 94.601562 C 122.796875 95.683594 122.601562 96.671875 122.214844 97.5625 C 121.832031 98.453125 121.28125 99.210938 120.566406 99.835938 C 119.871094 100.457031 119.023438 100.949219 118.027344 101.304688 C 117.046875 101.648438 115.949219 101.816406 114.730469 101.816406 " clip-rule="nonzero"/></clipPath><clipPath id="6ec05fad36"><path d="M 137.863281 89.332031 L 157.246094 89.332031 L 157.246094 101.628906 L 137.863281 101.628906 Z M 137.863281 89.332031 " clip-rule="nonzero"/></clipPath><clipPath id="e888fdd8e1"><path d="M 137.863281 101.582031 L 137.863281 89.554688 L 141.519531 89.554688 L 141.628906 91.625 L 141.808594 91.625 C 142.089844 90.855469 142.550781 90.28125 143.1875 89.910156 C 143.84375 89.523438 144.554688 89.332031 145.328125 89.332031 C 146.144531 89.332031 146.894531 89.523438 147.578125 89.910156 C 148.257812 90.296875 148.765625 90.972656 149.089844 91.9375 L 149.269531 91.9375 C 149.535156 91.0625 150.019531 90.410156 150.714844 89.980469 C 151.429688 89.546875 152.230469 89.332031 153.121094 89.332031 C 153.894531 89.332031 154.585938 89.496094 155.195312 89.820312 C 155.804688 90.132812 156.285156 90.652344 156.640625 91.382812 C 157.011719 92.109375 157.199219 93.074219 157.199219 94.277344 L 157.199219 101.582031 L 153.433594 101.582031 L 153.433594 95.101562 C 153.433594 94.492188 153.367188 93.988281 153.234375 93.585938 C 153.117188 93.183594 152.914062 92.886719 152.632812 92.695312 C 152.367188 92.488281 152.011719 92.382812 151.5625 92.382812 C 151.105469 92.382812 150.710938 92.5 150.382812 92.738281 C 150.070312 92.976562 149.835938 93.28125 149.671875 93.652344 C 149.507812 94.023438 149.425781 94.417969 149.425781 94.832031 L 149.425781 101.582031 L 145.640625 101.582031 L 145.640625 95.101562 C 145.640625 94.492188 145.578125 93.988281 145.460938 93.585938 C 145.34375 93.1875 145.140625 92.886719 144.859375 92.695312 C 144.59375 92.488281 144.234375 92.382812 143.789062 92.382812 C 143.332031 92.382812 142.9375 92.5 142.609375 92.738281 C 142.296875 92.976562 142.054688 93.28125 141.875 93.652344 C 141.710938 94.023438 141.628906 94.417969 141.628906 94.832031 L 141.628906 101.582031 Z M 137.863281 101.582031 " clip-rule="nonzero"/></clipPath><clipPath id="d756ce858d"><path d="M 186.007812 84.40625 L 198.449219 84.40625 L 198.449219 101.8125 L 186.007812 101.8125 Z M 186.007812 84.40625 " clip-rule="nonzero"/></clipPath><clipPath id="0d21e32c1e"><path d="M 192.242188 98.777344 C 192.804688 98.777344 193.257812 98.648438 193.601562 98.398438 C 193.941406 98.128906 194.195312 97.796875 194.359375 97.394531 C 194.535156 96.976562 194.625 96.546875 194.625 96.101562 L 194.625 95.035156 C 194.625 94.675781 194.574219 94.34375 194.46875 94.03125 C 194.378906 93.71875 194.238281 93.4375 194.046875 93.183594 C 193.867188 92.933594 193.621094 92.730469 193.3125 92.582031 C 193.015625 92.433594 192.65625 92.363281 192.242188 92.363281 C 191.765625 92.363281 191.351562 92.472656 190.992188 92.695312 C 190.636719 92.917969 190.355469 93.265625 190.148438 93.742188 C 189.953125 94.203125 189.859375 94.8125 189.859375 95.570312 C 189.859375 96.3125 189.953125 96.921875 190.148438 97.394531 C 190.355469 97.871094 190.636719 98.21875 190.992188 98.441406 C 191.351562 98.664062 191.765625 98.777344 192.242188 98.777344 M 190.773438 101.804688 C 190.058594 101.804688 189.414062 101.679688 188.832031 101.425781 C 188.253906 101.15625 187.75 100.765625 187.320312 100.246094 C 186.902344 99.722656 186.582031 99.078125 186.363281 98.304688 C 186.136719 97.519531 186.027344 96.605469 186.027344 95.566406 C 186.027344 94.171875 186.21875 93.011719 186.605469 92.089844 C 187.007812 91.15625 187.5625 90.464844 188.277344 90.019531 C 188.988281 89.558594 189.820312 89.328125 190.773438 89.328125 C 191.378906 89.328125 191.921875 89.417969 192.398438 89.597656 C 192.886719 89.773438 193.304688 90.027344 193.644531 90.355469 C 194 90.679688 194.277344 91.066406 194.46875 91.511719 L 194.667969 91.511719 L 194.667969 85.351562 L 198.433594 84.414062 L 198.410156 101.582031 L 194.804688 101.582031 L 194.667969 99.621094 L 194.46875 99.621094 C 194.1875 100.277344 193.726562 100.804688 193.089844 101.203125 C 192.449219 101.605469 191.675781 101.804688 190.773438 101.804688 " clip-rule="nonzero"/></clipPath><clipPath id="5ca814f996"><path d="M 170.113281 85.34375 L 186.296875 85.34375 L 186.296875 101.597656 L 170.113281 101.597656 Z M 170.113281 85.34375 " clip-rule="nonzero"/></clipPath><clipPath id="38df36e1d2"><path d="M 176.164062 95.410156 L 180.261719 95.410156 L 179.082031 91.714844 L 178.277344 88.953125 L 178.144531 88.953125 L 177.320312 91.714844 Z M 170.128906 101.582031 L 175.363281 85.34375 L 181.042969 85.34375 L 186.277344 101.582031 L 182.132812 101.582031 L 181.152344 98.464844 L 175.25 98.464844 L 174.292969 101.582031 Z M 170.128906 101.582031 " clip-rule="nonzero"/></clipPath><clipPath id="3bcf510851"><path d="M 158.316406 89.296875 L 170.253906 89.296875 L 170.253906 101.8125 L 158.316406 101.8125 Z M 158.316406 89.296875 " clip-rule="nonzero"/></clipPath><clipPath id="a2d26a8613"><path d="M 162.023438 94.476562 L 161.710938 94.121094 L 166.789062 94.121094 L 166.433594 94.453125 C 166.460938 93.949219 166.390625 93.527344 166.210938 93.183594 C 166.03125 92.84375 165.769531 92.582031 165.429688 92.40625 C 165.105469 92.226562 164.71875 92.136719 164.273438 92.136719 C 163.8125 92.136719 163.410156 92.234375 163.070312 92.429688 C 162.726562 92.621094 162.46875 92.894531 162.289062 93.253906 C 162.113281 93.59375 162.023438 94 162.023438 94.476562 M 164.425781 101.804688 C 163.132812 101.804688 162.035156 101.550781 161.128906 101.046875 C 160.222656 100.527344 159.527344 99.808594 159.035156 98.886719 C 158.5625 97.964844 158.324219 96.890625 158.324219 95.65625 C 158.324219 94.367188 158.570312 93.242188 159.058594 92.292969 C 159.550781 91.34375 160.238281 90.617188 161.128906 90.109375 C 162.035156 89.589844 163.082031 89.332031 164.269531 89.332031 C 165.710938 89.332031 166.882812 89.644531 167.789062 90.265625 C 168.695312 90.875 169.351562 91.714844 169.75 92.785156 C 170.152344 93.851562 170.277344 95.070312 170.128906 96.4375 L 162.023438 96.4375 C 162.023438 96.972656 162.117188 97.433594 162.3125 97.820312 C 162.519531 98.191406 162.800781 98.480469 163.160156 98.6875 C 163.515625 98.882812 163.9375 98.976562 164.429688 98.976562 C 164.960938 98.976562 165.414062 98.867188 165.785156 98.644531 C 166.171875 98.40625 166.417969 98.101562 166.523438 97.730469 L 170.0625 97.730469 C 169.972656 98.53125 169.675781 99.246094 169.171875 99.867188 C 168.667969 100.476562 168.007812 100.953125 167.191406 101.292969 C 166.375 101.632812 165.453125 101.804688 164.429688 101.804688 " clip-rule="nonzero"/></clipPath><clipPath id="ab13a531ac"><path d="M 199.691406 84.421875 L 212.097656 84.421875 L 212.097656 101.820312 L 199.691406 101.820312 Z M 199.691406 84.421875 " clip-rule="nonzero"/></clipPath><clipPath id="92f786ee5e"><path d="M 205.90625 98.78125 C 206.46875 98.78125 206.921875 98.65625 207.265625 98.402344 C 207.605469 98.136719 207.859375 97.800781 208.019531 97.398438 C 208.199219 96.984375 208.289062 96.554688 208.289062 96.109375 L 208.289062 95.039062 C 208.289062 94.683594 208.238281 94.351562 208.132812 94.039062 C 208.042969 93.726562 207.902344 93.445312 207.710938 93.191406 C 207.53125 92.9375 207.285156 92.738281 206.972656 92.589844 C 206.675781 92.441406 206.320312 92.367188 205.90625 92.367188 C 205.429688 92.367188 205.015625 92.476562 204.660156 92.699219 C 204.300781 92.921875 204.019531 93.273438 203.8125 93.746094 C 203.617188 94.207031 203.523438 94.816406 203.523438 95.574219 C 203.523438 96.316406 203.617188 96.925781 203.8125 97.398438 C 204.019531 97.875 204.300781 98.222656 204.660156 98.445312 C 205.015625 98.667969 205.429688 98.78125 205.90625 98.78125 M 204.433594 101.8125 C 203.722656 101.8125 203.078125 101.683594 202.496094 101.433594 C 201.917969 101.164062 201.414062 100.773438 200.980469 100.25 C 200.566406 99.730469 200.246094 99.085938 200.023438 98.3125 C 199.800781 97.527344 199.691406 96.613281 199.691406 95.574219 C 199.691406 94.179688 199.882812 93.019531 200.269531 92.097656 C 200.671875 91.164062 201.226562 90.472656 201.941406 90.027344 C 202.652344 89.566406 203.484375 89.335938 204.433594 89.335938 C 205.042969 89.335938 205.585938 89.425781 206.0625 89.605469 C 206.550781 89.785156 206.96875 90.035156 207.308594 90.363281 C 207.664062 90.6875 207.941406 91.074219 208.132812 91.519531 L 208.332031 91.519531 L 208.332031 85.359375 L 212.097656 84.421875 L 212.074219 101.589844 L 208.464844 101.589844 L 208.332031 99.628906 L 208.132812 99.628906 C 207.851562 100.28125 207.390625 100.808594 206.75 101.210938 C 206.113281 101.609375 205.339844 101.808594 204.433594 101.808594 " clip-rule="nonzero"/></clipPath><clipPath id="f35be5e136"><path d="M 213.976562 90.089844 L 217.753906 90.089844 L 217.753906 101.609375 L 213.976562 101.609375 Z M 213.976562 90.089844 " clip-rule="nonzero"/></clipPath><clipPath id="ba80e10c3f"><path d="M 213.980469 101.59375 L 213.980469 91.019531 L 217.746094 90.097656 L 217.746094 101.59375 Z M 213.980469 101.59375 " clip-rule="nonzero"/></clipPath><clipPath id="e902b49773"><path d="M 213.976562 85.882812 L 217.753906 85.882812 L 217.753906 89.769531 L 213.976562 89.769531 Z M 213.976562 85.882812 " clip-rule="nonzero"/></clipPath><clipPath id="d14333a40a"><path d="M 213.980469 86.808594 L 213.980469 89.757812 L 217.746094 88.867188 L 217.746094 85.886719 Z M 213.980469 86.808594 " clip-rule="nonzero"/></clipPath><clipPath id="2b4d7c2d7f"><path d="M 219.691406 84.40625 L 232.324219 84.40625 L 232.324219 101.613281 L 219.691406 101.613281 Z M 219.691406 84.40625 " clip-rule="nonzero"/></clipPath><clipPath id="c36a4fc346"><path d="M 219.691406 85.34375 L 219.691406 101.582031 L 223.519531 101.582031 L 223.519531 98.285156 L 224.96875 96.835938 L 225.683594 98.105469 L 227.84375 101.582031 L 232.273438 101.582031 L 227.597656 94.34375 L 232.230469 89.554688 L 227.597656 89.554688 L 224.480469 93.027344 L 223.519531 94.1875 L 223.519531 84.40625 Z M 219.691406 85.34375 " clip-rule="nonzero"/></clipPath></defs><g clip-path="url(#3844e9956f)"><path fill="#ffffff" d="M 0.398438 0 L 299.601562 0 L 299.601562 187 L 0.398438 187 Z M 0.398438 0 " fill-opacity="1" fill-rule="nonzero"/></g><g clip-path="url(#c7cdd09b39)"><g clip-path="url(#d70cb40677)"><path fill="#030303" d="M 67.726562 78.285156 L 98.152344 78.285156 L 98.152344 108.714844 L 67.726562 108.714844 Z M 67.726562 78.285156 " fill-opacity="1" fill-rule="nonzero"/></g></g><g clip-path="url(#a410d24aae)"><g clip-path="url(#6f8a9e7f70)"><path fill="#ffffff" d="M 67.726562 78.285156 L 98.152344 78.285156 L 98.152344 108.714844 L 67.726562 108.714844 Z M 67.726562 78.285156 " fill-opacity="1" fill-rule="nonzero"/></g></g><g clip-path="url(#ec28f59af8)"><g clip-path="url(#7624fd445d)"><path fill="#030303" d="M 106.136719 84.621094 L 136.5 84.621094 L 136.5 102.328125 L 106.136719 102.328125 Z M 106.136719 84.621094 " fill-opacity="1" fill-rule="nonzero"/></g></g><g clip-path="url(#30bfd346bb)"><g clip-path="url(#542bd15a4c)"><path fill="#030303" d="M 106.136719 84.621094 L 136.5 84.621094 L 136.5 102.328125 L 106.136719 102.328125 Z M 106.136719 84.621094 " fill-opacity="1" fill-rule="nonzero"/></g></g><g clip-path="url(#6ec05fad36)"><g clip-path="url(#e888fdd8e1)"><path fill="#030303" d="M 137.863281 89.332031 L 157.199219 89.332031 L 157.199219 101.582031 L 137.863281 101.582031 Z M 137.863281 89.332031 " fill-opacity="1" fill-rule="nonzero"/></g></g><g clip-path="url(#d756ce858d)"><g clip-path="url(#0d21e32c1e)"><path fill="#030303" d="M 157.8125 83.902344 L 198.953125 83.902344 L 198.953125 102.316406 L 157.8125 102.316406 Z M 157.8125 83.902344 " fill-opacity="1" fill-rule="nonzero"/></g></g><g clip-path="url(#5ca814f996)"><g clip-path="url(#38df36e1d2)"><path fill="#030303" d="M 157.8125 83.902344 L 198.953125 83.902344 L 198.953125 102.316406 L 157.8125 102.316406 Z M 157.8125 83.902344 " fill-opacity="1" fill-rule="nonzero"/></g></g><g clip-path="url(#3bcf510851)"><g clip-path="url(#a2d26a8613)"><path fill="#030303" d="M 157.8125 83.902344 L 198.953125 83.902344 L 198.953125 102.316406 L 157.8125 102.316406 Z M 157.8125 83.902344 " fill-opacity="1" fill-rule="nonzero"/></g></g><g clip-path="url(#ab13a531ac)"><g clip-path="url(#92f786ee5e)"><path fill="#030303" d="M 199.691406 84.421875 L 212.097656 84.421875 L 212.097656 101.820312 L 199.691406 101.820312 Z M 199.691406 84.421875 " fill-opacity="1" fill-rule="nonzero"/></g></g><g clip-path="url(#f35be5e136)"><g clip-path="url(#ba80e10c3f)"><path fill="#030303" d="M 213.46875 85.375 L 218.257812 85.375 L 218.257812 102.113281 L 213.46875 102.113281 Z M 213.46875 85.375 " fill-opacity="1" fill-rule="nonzero"/></g></g><g clip-path="url(#e902b49773)"><g clip-path="url(#d14333a40a)"><path fill="#030303" d="M 213.46875 85.375 L 218.257812 85.375 L 218.257812 102.113281 L 213.46875 102.113281 Z M 213.46875 85.375 " fill-opacity="1" fill-rule="nonzero"/></g></g><g clip-path="url(#2b4d7c2d7f)"><g clip-path="url(#c36a4fc346)"><path fill="#030303" d="M 219.691406 84.40625 L 232.273438 84.40625 L 232.273438 101.5625 L 219.691406 101.5625 Z M 219.691406 84.40625 " fill-opacity="1" fill-rule="nonzero"/></g></g></svg>