<svg xmlns="http://www.w3.org/2000/svg" xmlns:xlink="http://www.w3.org/1999/xlink" width="400" zoomAndPan="magnify" viewBox="0 0 300 187.499995" height="250" preserveAspectRatio="xMidYMid meet" version="1.0"><defs><g/><clipPath id="d59343a212"><path d="M 0.398438 0 L 299.601562 0 L 299.601562 187 L 0.398438 187 Z M 0.398438 0 " clip-rule="nonzero"/></clipPath><clipPath id="58573e4f88"><path d="M 55 67.335938 L 246 67.335938 L 246 119.695312 L 55 119.695312 Z M 55 67.335938 " clip-rule="nonzero"/></clipPath><clipPath id="f741f1f7ac"><path d="M 55 67.335938 L 247 67.335938 L 247 119.695312 L 55 119.695312 Z M 55 67.335938 " clip-rule="nonzero"/></clipPath><clipPath id="b7307268f8"><path d="M 52.757812 67.335938 L 247.242188 67.335938 L 247.242188 119.695312 L 52.757812 119.695312 Z M 52.757812 67.335938 " clip-rule="nonzero"/></clipPath></defs><g clip-path="url(#d59343a212)"><path fill="#ffffff" d="M 0.398438 0 L 299.601562 0 L 299.601562 187 L 0.398438 187 Z M 0.398438 0 " fill-opacity="1" fill-rule="nonzero"/><path fill="#ffffff" d="M 0.398438 0 L 299.601562 0 L 299.601562 187 L 0.398438 187 Z M 0.398438 0 " fill-opacity="1" fill-rule="nonzero"/></g><g fill="#000000" fill-opacity="1"><g transform="translate(134.432134, 91.256643)"><g><path d="M 3.03125 -0.46875 C 2.90625 -0.289062 2.734375 -0.160156 2.515625 -0.078125 C 2.304688 0.00390625 2.0625 0.046875 1.78125 0.046875 C 1.488281 0.046875 1.226562 -0.0195312 1 -0.15625 C 0.78125 -0.289062 0.609375 -0.484375 0.484375 -0.734375 C 0.359375 -0.984375 0.296875 -1.269531 0.296875 -1.59375 L 0.296875 -1.90625 C 0.296875 -2.445312 0.421875 -2.863281 0.671875 -3.15625 C 0.921875 -3.445312 1.269531 -3.59375 1.71875 -3.59375 C 2.09375 -3.59375 2.390625 -3.5 2.609375 -3.3125 C 2.835938 -3.125 2.976562 -2.851562 3.03125 -2.5 L 2.5625 -2.5 C 2.46875 -2.96875 2.1875 -3.203125 1.71875 -3.203125 C 1.40625 -3.203125 1.164062 -3.09375 1 -2.875 C 0.84375 -2.65625 0.765625 -2.335938 0.765625 -1.921875 L 0.765625 -1.640625 C 0.765625 -1.234375 0.851562 -0.910156 1.03125 -0.671875 C 1.21875 -0.441406 1.46875 -0.328125 1.78125 -0.328125 C 1.957031 -0.328125 2.109375 -0.347656 2.234375 -0.390625 C 2.367188 -0.429688 2.476562 -0.5 2.5625 -0.59375 L 2.5625 -1.390625 L 1.75 -1.390625 L 1.75 -1.765625 L 3.03125 -1.765625 Z M 3.03125 -0.46875 "/></g></g></g><g fill="#000000" fill-opacity="1"><g transform="translate(137.82353, 91.256643)"><g><path d="M 0.21875 -1.34375 C 0.21875 -1.601562 0.269531 -1.832031 0.375 -2.03125 C 0.476562 -2.238281 0.617188 -2.398438 0.796875 -2.515625 C 0.972656 -2.628906 1.179688 -2.6875 1.421875 -2.6875 C 1.773438 -2.6875 2.0625 -2.5625 2.28125 -2.3125 C 2.507812 -2.0625 2.625 -1.726562 2.625 -1.3125 L 2.625 -1.28125 C 2.625 -1.03125 2.570312 -0.800781 2.46875 -0.59375 C 2.375 -0.394531 2.234375 -0.238281 2.046875 -0.125 C 1.867188 -0.0078125 1.660156 0.046875 1.421875 0.046875 C 1.066406 0.046875 0.773438 -0.078125 0.546875 -0.328125 C 0.328125 -0.578125 0.21875 -0.90625 0.21875 -1.3125 Z M 0.671875 -1.28125 C 0.671875 -0.988281 0.738281 -0.753906 0.875 -0.578125 C 1.007812 -0.398438 1.191406 -0.3125 1.421875 -0.3125 C 1.648438 -0.3125 1.832031 -0.398438 1.96875 -0.578125 C 2.101562 -0.765625 2.171875 -1.019531 2.171875 -1.34375 C 2.171875 -1.632812 2.097656 -1.867188 1.953125 -2.046875 C 1.816406 -2.222656 1.640625 -2.3125 1.421875 -2.3125 C 1.191406 -2.3125 1.007812 -2.222656 0.875 -2.046875 C 0.738281 -1.867188 0.671875 -1.613281 0.671875 -1.28125 Z M 0.671875 -1.28125 "/></g></g></g><g fill="#000000" fill-opacity="1"><g transform="translate(140.663065, 91.256643)"><g><path d="M 0.828125 0 L 0.375 0 L 0.375 -3.734375 L 0.828125 -3.734375 Z M 0.828125 0 "/></g></g></g><g fill="#000000" fill-opacity="1"><g transform="translate(141.871326, 91.256643)"><g><path d="M 0.234375 -1.34375 C 0.234375 -1.738281 0.328125 -2.0625 0.515625 -2.3125 C 0.710938 -2.5625 0.960938 -2.6875 1.265625 -2.6875 C 1.578125 -2.6875 1.820312 -2.578125 2 -2.359375 L 2 -3.734375 L 2.453125 -3.734375 L 2.453125 0 L 2.046875 0 L 2.015625 -0.28125 C 1.835938 -0.0625 1.585938 0.046875 1.265625 0.046875 C 0.960938 0.046875 0.710938 -0.078125 0.515625 -0.328125 C 0.328125 -0.578125 0.234375 -0.898438 0.234375 -1.296875 Z M 0.6875 -1.28125 C 0.6875 -0.988281 0.742188 -0.753906 0.859375 -0.578125 C 0.984375 -0.410156 1.15625 -0.328125 1.375 -0.328125 C 1.664062 -0.328125 1.875 -0.457031 2 -0.71875 L 2 -1.921875 C 1.863281 -2.171875 1.65625 -2.296875 1.375 -2.296875 C 1.15625 -2.296875 0.984375 -2.207031 0.859375 -2.03125 C 0.742188 -1.863281 0.6875 -1.613281 0.6875 -1.28125 Z M 0.6875 -1.28125 "/></g></g></g><g fill="#000000" fill-opacity="1"><g transform="translate(144.679256, 91.256643)"><g/></g></g><g fill="#000000" fill-opacity="1"><g transform="translate(145.911828, 91.256643)"><g><path d="M 0.765625 -2.640625 L 0.78125 -2.34375 C 0.96875 -2.570312 1.226562 -2.6875 1.5625 -2.6875 C 1.925781 -2.6875 2.175781 -2.546875 2.3125 -2.265625 C 2.394531 -2.390625 2.503906 -2.488281 2.640625 -2.5625 C 2.785156 -2.644531 2.957031 -2.6875 3.15625 -2.6875 C 3.726562 -2.6875 4.019531 -2.378906 4.03125 -1.765625 L 4.03125 0 L 3.578125 0 L 3.578125 -1.734375 C 3.578125 -1.921875 3.535156 -2.0625 3.453125 -2.15625 C 3.367188 -2.25 3.222656 -2.296875 3.015625 -2.296875 C 2.847656 -2.296875 2.707031 -2.242188 2.59375 -2.140625 C 2.488281 -2.046875 2.425781 -1.914062 2.40625 -1.75 L 2.40625 0 L 1.953125 0 L 1.953125 -1.71875 C 1.953125 -2.101562 1.765625 -2.296875 1.390625 -2.296875 C 1.097656 -2.296875 0.894531 -2.171875 0.78125 -1.921875 L 0.78125 0 L 0.34375 0 L 0.34375 -2.640625 Z M 0.765625 -2.640625 "/></g></g></g><g fill="#000000" fill-opacity="1"><g transform="translate(150.275668, 91.256643)"><g><path d="M 1.96875 0 C 1.9375 -0.0507812 1.914062 -0.144531 1.90625 -0.28125 C 1.695312 -0.0625 1.445312 0.046875 1.15625 0.046875 C 0.894531 0.046875 0.679688 -0.0234375 0.515625 -0.171875 C 0.347656 -0.316406 0.265625 -0.503906 0.265625 -0.734375 C 0.265625 -1.003906 0.367188 -1.210938 0.578125 -1.359375 C 0.785156 -1.515625 1.078125 -1.59375 1.453125 -1.59375 L 1.890625 -1.59375 L 1.890625 -1.796875 C 1.890625 -1.960938 1.84375 -2.085938 1.75 -2.171875 C 1.65625 -2.265625 1.519531 -2.3125 1.34375 -2.3125 C 1.175781 -2.3125 1.035156 -2.269531 0.921875 -2.1875 C 0.816406 -2.113281 0.765625 -2.019531 0.765625 -1.90625 L 0.3125 -1.90625 C 0.3125 -2.03125 0.359375 -2.15625 0.453125 -2.28125 C 0.546875 -2.40625 0.671875 -2.503906 0.828125 -2.578125 C 0.992188 -2.648438 1.171875 -2.6875 1.359375 -2.6875 C 1.671875 -2.6875 1.910156 -2.609375 2.078125 -2.453125 C 2.253906 -2.304688 2.34375 -2.097656 2.34375 -1.828125 L 2.34375 -0.609375 C 2.34375 -0.367188 2.375 -0.175781 2.4375 -0.03125 L 2.4375 0 Z M 1.21875 -0.34375 C 1.363281 -0.34375 1.5 -0.378906 1.625 -0.453125 C 1.75 -0.523438 1.835938 -0.617188 1.890625 -0.734375 L 1.890625 -1.28125 L 1.546875 -1.28125 C 0.992188 -1.28125 0.71875 -1.117188 0.71875 -0.796875 C 0.71875 -0.648438 0.765625 -0.535156 0.859375 -0.453125 C 0.953125 -0.378906 1.070312 -0.34375 1.21875 -0.34375 Z M 1.21875 -0.34375 "/></g></g></g><g fill="#000000" fill-opacity="1"><g transform="translate(152.983923, 91.256643)"><g><path d="M 1.21875 -1.671875 L 1.8125 -2.640625 L 2.328125 -2.640625 L 1.46875 -1.328125 L 2.359375 0 L 1.84375 0 L 1.234375 -0.984375 L 0.625 0 L 0.09375 0 L 0.984375 -1.328125 L 0.125 -2.640625 L 0.640625 -2.640625 Z M 1.21875 -1.671875 "/></g></g></g><g fill="#000000" fill-opacity="1"><g transform="translate(155.451498, 91.256643)"><g/></g></g><g fill="#000000" fill-opacity="1"><g transform="translate(156.68407, 91.256643)"><g><path d="M 1.875 -0.703125 C 1.875 -0.816406 1.828125 -0.90625 1.734375 -0.96875 C 1.640625 -1.039062 1.476562 -1.101562 1.25 -1.15625 C 1.03125 -1.207031 0.851562 -1.265625 0.71875 -1.328125 C 0.582031 -1.398438 0.484375 -1.484375 0.421875 -1.578125 C 0.359375 -1.671875 0.328125 -1.78125 0.328125 -1.90625 C 0.328125 -2.125 0.414062 -2.304688 0.59375 -2.453125 C 0.78125 -2.609375 1.015625 -2.6875 1.296875 -2.6875 C 1.597656 -2.6875 1.835938 -2.609375 2.015625 -2.453125 C 2.203125 -2.296875 2.296875 -2.097656 2.296875 -1.859375 L 1.84375 -1.859375 C 1.84375 -1.984375 1.789062 -2.085938 1.6875 -2.171875 C 1.582031 -2.265625 1.453125 -2.3125 1.296875 -2.3125 C 1.128906 -2.3125 1 -2.273438 0.90625 -2.203125 C 0.8125 -2.128906 0.765625 -2.035156 0.765625 -1.921875 C 0.765625 -1.816406 0.804688 -1.734375 0.890625 -1.671875 C 0.984375 -1.617188 1.140625 -1.566406 1.359375 -1.515625 C 1.585938 -1.472656 1.769531 -1.414062 1.90625 -1.34375 C 2.050781 -1.269531 2.15625 -1.179688 2.21875 -1.078125 C 2.289062 -0.984375 2.328125 -0.867188 2.328125 -0.734375 C 2.328125 -0.492188 2.234375 -0.300781 2.046875 -0.15625 C 1.859375 -0.0195312 1.613281 0.046875 1.3125 0.046875 C 1.101562 0.046875 0.914062 0.0078125 0.75 -0.0625 C 0.582031 -0.132812 0.453125 -0.238281 0.359375 -0.375 C 0.273438 -0.507812 0.234375 -0.65625 0.234375 -0.8125 L 0.6875 -0.8125 C 0.6875 -0.65625 0.742188 -0.53125 0.859375 -0.4375 C 0.972656 -0.351562 1.125 -0.3125 1.3125 -0.3125 C 1.476562 -0.3125 1.613281 -0.347656 1.71875 -0.421875 C 1.820312 -0.492188 1.875 -0.585938 1.875 -0.703125 Z M 1.875 -0.703125 "/></g></g></g><g fill="#000000" fill-opacity="1"><g transform="translate(159.25132, 91.256643)"><g><path d="M 0.828125 0 L 0.375 0 L 0.375 -2.640625 L 0.828125 -2.640625 Z M 0.34375 -3.328125 C 0.34375 -3.398438 0.363281 -3.460938 0.40625 -3.515625 C 0.457031 -3.566406 0.523438 -3.59375 0.609375 -3.59375 C 0.691406 -3.59375 0.753906 -3.566406 0.796875 -3.515625 C 0.847656 -3.460938 0.875 -3.398438 0.875 -3.328125 C 0.875 -3.253906 0.847656 -3.191406 0.796875 -3.140625 C 0.753906 -3.097656 0.691406 -3.078125 0.609375 -3.078125 C 0.523438 -3.078125 0.457031 -3.097656 0.40625 -3.140625 C 0.363281 -3.191406 0.34375 -3.253906 0.34375 -3.328125 Z M 0.34375 -3.328125 "/></g></g></g><g fill="#000000" fill-opacity="1"><g transform="translate(160.459581, 91.256643)"><g><path d="M 0.765625 -0.375 L 2.3125 -0.375 L 2.3125 0 L 0.21875 0 L 0.21875 -0.328125 L 1.671875 -2.265625 L 0.234375 -2.265625 L 0.234375 -2.640625 L 2.234375 -2.640625 L 2.234375 -2.3125 Z M 0.765625 -0.375 "/></g></g></g><g fill="#000000" fill-opacity="1"><g transform="translate(162.927156, 91.256643)"><g><path d="M 1.4375 0.046875 C 1.070312 0.046875 0.773438 -0.0664062 0.546875 -0.296875 C 0.328125 -0.535156 0.21875 -0.851562 0.21875 -1.25 L 0.21875 -1.328125 C 0.21875 -1.585938 0.269531 -1.816406 0.375 -2.015625 C 0.476562 -2.222656 0.617188 -2.382812 0.796875 -2.5 C 0.972656 -2.625 1.164062 -2.6875 1.375 -2.6875 C 1.71875 -2.6875 1.984375 -2.570312 2.171875 -2.34375 C 2.359375 -2.113281 2.453125 -1.789062 2.453125 -1.375 L 2.453125 -1.1875 L 0.671875 -1.1875 C 0.679688 -0.925781 0.757812 -0.710938 0.90625 -0.546875 C 1.050781 -0.390625 1.234375 -0.3125 1.453125 -0.3125 C 1.617188 -0.3125 1.753906 -0.34375 1.859375 -0.40625 C 1.972656 -0.476562 2.070312 -0.566406 2.15625 -0.671875 L 2.421875 -0.453125 C 2.203125 -0.117188 1.875 0.046875 1.4375 0.046875 Z M 1.375 -2.3125 C 1.195312 -2.3125 1.046875 -2.242188 0.921875 -2.109375 C 0.796875 -1.984375 0.71875 -1.800781 0.6875 -1.5625 L 2.015625 -1.5625 L 2.015625 -1.59375 C 1.992188 -1.820312 1.925781 -2 1.8125 -2.125 C 1.707031 -2.25 1.5625 -2.3125 1.375 -2.3125 Z M 1.375 -2.3125 "/></g></g></g><g fill="#000000" fill-opacity="1"><g transform="translate(139.14223, 97.98869)"><g><path d="M 2.609375 0 L 0.296875 0 L 0.296875 -0.328125 L 1.515625 -1.6875 C 1.703125 -1.894531 1.828125 -2.0625 1.890625 -2.1875 C 1.960938 -2.3125 2 -2.445312 2 -2.59375 C 2 -2.769531 1.941406 -2.914062 1.828125 -3.03125 C 1.722656 -3.15625 1.578125 -3.21875 1.390625 -3.21875 C 1.160156 -3.21875 0.984375 -3.15625 0.859375 -3.03125 C 0.734375 -2.90625 0.671875 -2.726562 0.671875 -2.5 L 0.21875 -2.5 C 0.21875 -2.820312 0.320312 -3.082031 0.53125 -3.28125 C 0.75 -3.488281 1.035156 -3.59375 1.390625 -3.59375 C 1.710938 -3.59375 1.96875 -3.503906 2.15625 -3.328125 C 2.351562 -3.160156 2.453125 -2.929688 2.453125 -2.640625 C 2.453125 -2.296875 2.226562 -1.878906 1.78125 -1.390625 L 0.84375 -0.375 L 2.609375 -0.375 Z M 2.609375 0 "/></g></g></g><g fill="#000000" fill-opacity="1"><g transform="translate(141.938005, 97.98869)"><g><path d="M 2.0625 -3.546875 L 2.0625 -3.15625 L 1.984375 -3.15625 C 1.628906 -3.15625 1.347656 -3.050781 1.140625 -2.84375 C 0.929688 -2.644531 0.8125 -2.363281 0.78125 -2 C 0.96875 -2.21875 1.222656 -2.328125 1.546875 -2.328125 C 1.859375 -2.328125 2.101562 -2.21875 2.28125 -2 C 2.46875 -1.78125 2.5625 -1.5 2.5625 -1.15625 C 2.5625 -0.789062 2.460938 -0.5 2.265625 -0.28125 C 2.066406 -0.0625 1.800781 0.046875 1.46875 0.046875 C 1.125 0.046875 0.847656 -0.0820312 0.640625 -0.34375 C 0.429688 -0.601562 0.328125 -0.9375 0.328125 -1.34375 L 0.328125 -1.515625 C 0.328125 -2.171875 0.460938 -2.671875 0.734375 -3.015625 C 1.015625 -3.359375 1.429688 -3.535156 1.984375 -3.546875 Z M 1.46875 -1.953125 C 1.3125 -1.953125 1.164062 -1.90625 1.03125 -1.8125 C 0.90625 -1.71875 0.820312 -1.601562 0.78125 -1.46875 L 0.78125 -1.296875 C 0.78125 -1.003906 0.84375 -0.769531 0.96875 -0.59375 C 1.101562 -0.414062 1.269531 -0.328125 1.46875 -0.328125 C 1.664062 -0.328125 1.820312 -0.398438 1.9375 -0.546875 C 2.050781 -0.691406 2.109375 -0.890625 2.109375 -1.140625 C 2.109375 -1.378906 2.050781 -1.570312 1.9375 -1.71875 C 1.820312 -1.875 1.664062 -1.953125 1.46875 -1.953125 Z M 1.46875 -1.953125 "/></g></g></g><g fill="#000000" fill-opacity="1"><g transform="translate(144.733779, 97.98869)"><g><path d="M 2.515625 -1.515625 C 2.515625 -0.984375 2.421875 -0.585938 2.234375 -0.328125 C 2.054688 -0.078125 1.78125 0.046875 1.40625 0.046875 C 1.019531 0.046875 0.738281 -0.078125 0.5625 -0.328125 C 0.382812 -0.578125 0.289062 -0.953125 0.28125 -1.453125 L 0.28125 -2.046875 C 0.28125 -2.566406 0.367188 -2.953125 0.546875 -3.203125 C 0.722656 -3.460938 1.003906 -3.59375 1.390625 -3.59375 C 1.773438 -3.59375 2.054688 -3.46875 2.234375 -3.21875 C 2.421875 -2.976562 2.515625 -2.601562 2.515625 -2.09375 Z M 2.0625 -2.125 C 2.0625 -2.507812 2.007812 -2.785156 1.90625 -2.953125 C 1.800781 -3.128906 1.628906 -3.21875 1.390625 -3.21875 C 1.160156 -3.21875 0.992188 -3.128906 0.890625 -2.953125 C 0.785156 -2.785156 0.734375 -2.519531 0.734375 -2.15625 L 0.734375 -1.4375 C 0.734375 -1.050781 0.785156 -0.765625 0.890625 -0.578125 C 1.003906 -0.398438 1.175781 -0.3125 1.40625 -0.3125 C 1.625 -0.3125 1.785156 -0.394531 1.890625 -0.5625 C 2.003906 -0.738281 2.0625 -1.015625 2.0625 -1.390625 Z M 2.0625 -2.125 "/></g></g></g><g fill="#000000" fill-opacity="1"><g transform="translate(147.529554, 97.98869)"><g/></g></g><g fill="#000000" fill-opacity="1"><g transform="translate(148.762126, 97.98869)"><g><path d="M 1.21875 -1.671875 L 1.8125 -2.640625 L 2.328125 -2.640625 L 1.46875 -1.328125 L 2.359375 0 L 1.84375 0 L 1.234375 -0.984375 L 0.625 0 L 0.09375 0 L 0.984375 -1.328125 L 0.125 -2.640625 L 0.640625 -2.640625 Z M 1.21875 -1.671875 "/></g></g></g><g fill="#000000" fill-opacity="1"><g transform="translate(151.229701, 97.98869)"><g/></g></g><g fill="#000000" fill-opacity="1"><g transform="translate(152.462273, 97.98869)"><g><path d="M 1.78125 0 L 1.328125 0 L 1.328125 -3 L 0.40625 -2.671875 L 0.40625 -3.078125 L 1.703125 -3.5625 L 1.78125 -3.5625 Z M 1.78125 0 "/></g></g></g><g fill="#000000" fill-opacity="1"><g transform="translate(155.258048, 97.98869)"><g><path d="M 0.5 -1.78125 L 0.6875 -3.546875 L 2.5 -3.546875 L 2.5 -3.125 L 1.0625 -3.125 L 0.953125 -2.15625 C 1.128906 -2.257812 1.328125 -2.3125 1.546875 -2.3125 C 1.867188 -2.3125 2.125 -2.203125 2.3125 -1.984375 C 2.507812 -1.773438 2.609375 -1.488281 2.609375 -1.125 C 2.609375 -0.757812 2.507812 -0.472656 2.3125 -0.265625 C 2.113281 -0.0546875 1.835938 0.046875 1.484375 0.046875 C 1.171875 0.046875 0.914062 -0.0351562 0.71875 -0.203125 C 0.519531 -0.378906 0.40625 -0.625 0.375 -0.9375 L 0.796875 -0.9375 C 0.828125 -0.726562 0.898438 -0.570312 1.015625 -0.46875 C 1.128906 -0.363281 1.285156 -0.3125 1.484375 -0.3125 C 1.691406 -0.3125 1.851562 -0.382812 1.96875 -0.53125 C 2.09375 -0.675781 2.15625 -0.875 2.15625 -1.125 C 2.15625 -1.363281 2.085938 -1.550781 1.953125 -1.6875 C 1.828125 -1.832031 1.65625 -1.90625 1.4375 -1.90625 C 1.25 -1.90625 1.097656 -1.863281 0.984375 -1.78125 L 0.859375 -1.6875 Z M 0.5 -1.78125 "/></g></g></g><g fill="#000000" fill-opacity="1"><g transform="translate(158.053822, 97.98869)"><g><path d="M 2.0625 -3.546875 L 2.0625 -3.15625 L 1.984375 -3.15625 C 1.628906 -3.15625 1.347656 -3.050781 1.140625 -2.84375 C 0.929688 -2.644531 0.8125 -2.363281 0.78125 -2 C 0.96875 -2.21875 1.222656 -2.328125 1.546875 -2.328125 C 1.859375 -2.328125 2.101562 -2.21875 2.28125 -2 C 2.46875 -1.78125 2.5625 -1.5 2.5625 -1.15625 C 2.5625 -0.789062 2.460938 -0.5 2.265625 -0.28125 C 2.066406 -0.0625 1.800781 0.046875 1.46875 0.046875 C 1.125 0.046875 0.847656 -0.0820312 0.640625 -0.34375 C 0.429688 -0.601562 0.328125 -0.9375 0.328125 -1.34375 L 0.328125 -1.515625 C 0.328125 -2.171875 0.460938 -2.671875 0.734375 -3.015625 C 1.015625 -3.359375 1.429688 -3.535156 1.984375 -3.546875 Z M 1.46875 -1.953125 C 1.3125 -1.953125 1.164062 -1.90625 1.03125 -1.8125 C 0.90625 -1.71875 0.820312 -1.601562 0.78125 -1.46875 L 0.78125 -1.296875 C 0.78125 -1.003906 0.84375 -0.769531 0.96875 -0.59375 C 1.101562 -0.414062 1.269531 -0.328125 1.46875 -0.328125 C 1.664062 -0.328125 1.820312 -0.398438 1.9375 -0.546875 C 2.050781 -0.691406 2.109375 -0.890625 2.109375 -1.140625 C 2.109375 -1.378906 2.050781 -1.570312 1.9375 -1.71875 C 1.820312 -1.875 1.664062 -1.953125 1.46875 -1.953125 Z M 1.46875 -1.953125 "/></g></g></g><g clip-path="url(#58573e4f88)"><path fill="#fefefe" d="M 55.992188 67.777344 L 245.78125 67.777344 L 245.78125 119.25 L 55.992188 119.25 Z M 55.992188 67.777344 " fill-opacity="1" fill-rule="evenodd"/></g><g clip-path="url(#f741f1f7ac)"><path stroke-linecap="butt" transform="matrix(0.88687, 0, 0, 0.887464, 52.887774, 67.334089)" fill="none" stroke-linejoin="miter" d="M 3.500416 0.499462 L 217.499251 0.499462 L 217.499251 58.499179 L 3.500416 58.499179 Z M 3.500416 0.499462 " stroke="#979797" stroke-width="1" stroke-opacity="1" stroke-miterlimit="4"/></g><g clip-path="url(#b7307268f8)"><path fill="#000000" d="M 52.886719 93.515625 L 52.886719 67.335938 L 247.113281 67.335938 L 247.113281 119.695312 L 52.886719 119.695312 Z M 242.796875 93.480469 L 242.796875 71.332031 L 58.011719 71.332031 L 58.011719 115.566406 L 87.585938 115.597656 C 103.851562 115.617188 145.425781 115.632812 179.976562 115.632812 L 242.796875 115.632812 Z M 117.628906 93.515625 L 117.628906 73.136719 L 240.90625 73.136719 L 240.90625 113.890625 L 117.628906 113.890625 Z M 156.378906 102.09375 C 156.878906 101.992188 157.609375 101.746094 157.996094 101.550781 C 158.382812 101.351562 159.035156 100.871094 159.441406 100.476562 C 159.871094 100.0625 160.359375 99.414062 160.605469 98.929688 C 160.839844 98.46875 161.113281 97.773438 161.214844 97.382812 C 161.34375 96.882812 161.398438 95.761719 161.398438 93.578125 C 161.398438 90.941406 161.359375 90.371094 161.148438 89.710938 C 161.011719 89.285156 160.71875 88.609375 160.5 88.210938 C 160.277344 87.8125 159.84375 87.238281 159.53125 86.933594 C 159.222656 86.632812 158.695312 86.214844 158.363281 86.011719 C 158.027344 85.804688 157.339844 85.515625 156.832031 85.367188 C 156.074219 85.148438 155.664062 85.109375 154.53125 85.15625 C 153.335938 85.207031 153.03125 85.269531 152.191406 85.640625 C 151.484375 85.953125 151 86.289062 150.402344 86.882812 C 149.890625 87.394531 149.4375 88.003906 149.199219 88.511719 C 148.988281 88.957031 148.734375 89.671875 148.632812 90.097656 C 148.503906 90.640625 148.453125 91.726562 148.46875 93.773438 C 148.484375 96.035156 148.539062 96.859375 148.714844 97.511719 C 148.839844 97.972656 149.136719 98.695312 149.371094 99.121094 C 149.605469 99.542969 150.105469 100.183594 150.476562 100.539062 C 150.851562 100.894531 151.472656 101.351562 151.859375 101.550781 C 152.246094 101.75 152.941406 101.992188 153.40625 102.089844 C 153.871094 102.183594 154.523438 102.265625 154.855469 102.273438 C 155.1875 102.277344 155.875 102.195312 156.378906 102.09375 Z M 153.464844 100.421875 C 153.183594 100.324219 152.71875 100.097656 152.433594 99.917969 C 152.144531 99.734375 151.757812 99.390625 151.566406 99.15625 C 151.378906 98.917969 151.066406 98.390625 150.867188 97.984375 C 150.578125 97.371094 150.488281 96.917969 150.367188 95.429688 C 150.257812 94.121094 150.257812 93.152344 150.367188 91.921875 C 150.464844 90.789062 150.609375 89.980469 150.804688 89.484375 C 150.96875 89.074219 151.332031 88.457031 151.621094 88.109375 C 151.96875 87.691406 152.40625 87.355469 152.925781 87.109375 C 153.609375 86.789062 153.863281 86.742188 154.921875 86.742188 C 155.980469 86.742188 156.238281 86.789062 156.90625 87.105469 C 157.332031 87.304688 157.914062 87.722656 158.203125 88.035156 C 158.492188 88.351562 158.859375 88.933594 159.019531 89.335938 C 159.179688 89.738281 159.378906 90.65625 159.460938 91.371094 C 159.550781 92.136719 159.578125 93.503906 159.53125 94.679688 C 159.472656 96.144531 159.378906 96.90625 159.179688 97.523438 C 159.03125 97.984375 158.722656 98.628906 158.5 98.953125 C 158.273438 99.277344 157.855469 99.699219 157.566406 99.890625 C 157.277344 100.082031 156.75 100.320312 156.398438 100.421875 C 156.046875 100.523438 155.355469 100.605469 154.867188 100.601562 C 154.378906 100.597656 153.75 100.515625 153.464844 100.421875 Z M 143.175781 102.078125 C 143.320312 102.023438 143.390625 101.839844 143.390625 101.527344 C 143.386719 101.269531 143.351562 100.925781 143.304688 100.765625 C 143.242188 100.542969 143.15625 100.492188 142.960938 100.550781 C 142.816406 100.59375 142.519531 100.558594 142.300781 100.472656 C 142.054688 100.375 141.734375 100.046875 141.449219 99.59375 C 141.199219 99.191406 140.675781 98.257812 140.289062 97.511719 C 139.902344 96.765625 139.382812 95.886719 139.132812 95.554688 L 138.683594 94.953125 L 139.386719 94.742188 C 139.769531 94.625 140.378906 94.328125 140.734375 94.082031 C 141.089844 93.832031 141.617188 93.285156 141.902344 92.863281 C 142.1875 92.441406 142.496094 91.800781 142.585938 91.4375 C 142.675781 91.070312 142.722656 90.34375 142.6875 89.792969 C 142.644531 89.082031 142.523438 88.582031 142.25 88.003906 C 142.003906 87.476562 141.625 86.976562 141.148438 86.546875 C 140.75 86.1875 140.136719 85.761719 139.78125 85.609375 C 139.179688 85.34375 138.917969 85.324219 135.46875 85.285156 L 131.792969 85.246094 L 131.792969 102.027344 L 133.542969 102.027344 L 133.542969 95.191406 L 134.925781 95.191406 C 136.054688 95.191406 136.390625 95.238281 136.734375 95.441406 C 136.96875 95.574219 137.339844 95.9375 137.558594 96.246094 C 137.78125 96.550781 138.402344 97.644531 138.9375 98.671875 C 139.476562 99.703125 140.117188 100.78125 140.367188 101.074219 C 140.617188 101.367188 141.078125 101.730469 141.398438 101.882812 C 141.714844 102.03125 142.199219 102.15625 142.46875 102.15625 C 142.742188 102.15625 143.058594 102.121094 143.175781 102.078125 Z M 133.636719 93.429688 C 133.585938 93.382812 133.542969 91.898438 133.542969 90.132812 L 133.542969 86.921875 L 138.761719 87 L 139.421875 87.394531 C 139.925781 87.691406 140.179688 87.960938 140.488281 88.542969 C 140.8125 89.148438 140.894531 89.464844 140.890625 90.085938 C 140.886719 90.519531 140.800781 91.097656 140.703125 91.378906 C 140.601562 91.660156 140.246094 92.167969 139.914062 92.507812 C 139.472656 92.960938 139.125 93.179688 138.628906 93.320312 C 138.148438 93.457031 137.316406 93.515625 135.835938 93.515625 C 134.675781 93.515625 133.683594 93.476562 133.636719 93.429688 Z M 174.757812 101.957031 C 175.3125 101.847656 176.042969 101.644531 176.378906 101.507812 C 176.714844 101.367188 177.273438 101.070312 177.621094 100.847656 C 177.972656 100.621094 178.277344 100.421875 178.304688 100.398438 C 178.332031 100.378906 178.160156 100.054688 177.917969 99.679688 C 177.679688 99.304688 177.460938 98.972656 177.4375 98.945312 C 177.410156 98.917969 177.171875 99.078125 176.910156 99.300781 C 176.644531 99.523438 176.203125 99.8125 175.925781 99.949219 C 175.648438 100.082031 175.160156 100.261719 174.84375 100.34375 C 174.523438 100.425781 173.816406 100.492188 173.273438 100.492188 C 172.671875 100.492188 172.078125 100.410156 171.761719 100.285156 C 171.476562 100.171875 171.019531 99.929688 170.746094 99.75 C 170.46875 99.570312 170.035156 99.121094 169.777344 98.757812 C 169.515625 98.390625 169.207031 97.773438 169.085938 97.382812 C 168.949219 96.929688 168.84375 95.929688 168.792969 94.609375 C 168.75 93.476562 168.78125 92.023438 168.855469 91.386719 C 168.933594 90.746094 169.132812 89.878906 169.300781 89.453125 C 169.515625 88.898438 169.816406 88.476562 170.367188 87.949219 C 170.949219 87.390625 171.300781 87.167969 171.851562 87.011719 C 172.25 86.898438 172.851562 86.808594 173.195312 86.808594 C 173.535156 86.808594 174.179688 86.894531 174.621094 87.003906 C 175.070312 87.113281 175.773438 87.429688 176.21875 87.71875 L 177.015625 88.238281 L 177.597656 87.621094 L 178.179688 87 L 177.746094 86.640625 C 177.507812 86.441406 176.949219 86.113281 176.503906 85.910156 C 176.058594 85.710938 175.355469 85.472656 174.941406 85.386719 C 174.503906 85.296875 173.617188 85.25 172.839844 85.28125 C 171.644531 85.328125 171.386719 85.382812 170.582031 85.761719 C 170.046875 86.011719 169.382812 86.46875 168.96875 86.871094 C 168.582031 87.246094 168.101562 87.84375 167.898438 88.203125 C 167.695312 88.558594 167.40625 89.300781 167.261719 89.851562 C 167.035156 90.695312 166.996094 91.277344 166.996094 93.695312 C 166.996094 95.777344 167.054688 96.765625 167.203125 97.371094 C 167.3125 97.824219 167.625 98.59375 167.890625 99.082031 C 168.195312 99.632812 168.667969 100.222656 169.152344 100.652344 C 169.578125 101.027344 170.21875 101.46875 170.574219 101.628906 C 170.929688 101.785156 171.464844 101.964844 171.769531 102.023438 C 172.074219 102.078125 172.644531 102.132812 173.035156 102.140625 C 173.429688 102.148438 174.203125 102.066406 174.757812 101.957031 Z M 195.734375 102.023438 C 195.945312 101.914062 195.992188 101.746094 195.992188 101.125 L 195.992188 100.367188 L 195.539062 100.4375 C 195.289062 100.476562 194.953125 100.4375 194.789062 100.355469 C 194.625 100.269531 194.050781 99.550781 193.511719 98.761719 C 192.972656 97.96875 191.914062 96.316406 191.152344 95.09375 L 189.773438 92.871094 L 195.96875 85.324219 L 195.082031 85.285156 C 194.597656 85.265625 194.125 85.273438 194.035156 85.308594 C 193.941406 85.34375 192.023438 87.558594 189.769531 90.234375 L 185.675781 95.097656 L 185.605469 85.261719 L 183.855469 85.261719 L 183.855469 102.027344 L 185.609375 102.027344 L 185.609375 97.699219 L 187.035156 95.992188 C 187.820312 95.054688 188.511719 94.3125 188.566406 94.347656 C 188.625 94.382812 189.574219 95.8125 190.679688 97.523438 C 191.785156 99.234375 192.929688 100.898438 193.222656 101.21875 C 193.515625 101.539062 193.941406 101.878906 194.167969 101.972656 C 194.390625 102.066406 194.777344 102.148438 195.023438 102.148438 C 195.269531 102.152344 195.589844 102.09375 195.734375 102.019531 Z M 210.828125 93.636719 L 210.828125 85.25 L 209.917969 85.285156 L 209.007812 85.324219 L 208.972656 93.675781 L 208.941406 102.027344 L 210.828125 102.027344 Z M 222.835938 94.417969 L 222.835938 86.808594 L 227.824219 86.808594 L 227.824219 85.261719 L 216.089844 85.261719 L 216.089844 86.808594 L 221.082031 86.808594 L 221.082031 102.027344 L 222.835938 102.027344 Z M 75.714844 101.957031 C 75.324219 101.855469 74.804688 101.675781 74.566406 101.5625 C 74.328125 101.445312 73.816406 101.125 73.429688 100.851562 C 73.046875 100.578125 72.449219 99.972656 72.101562 99.507812 C 71.753906 99.042969 71.3125 98.246094 71.117188 97.734375 C 70.78125 96.847656 70.761719 96.660156 70.71875 93.769531 C 70.679688 91.355469 70.714844 90.5625 70.882812 89.871094 C 70.996094 89.390625 71.28125 88.640625 71.515625 88.199219 C 71.761719 87.734375 72.296875 87.054688 72.785156 86.589844 C 73.355469 86.042969 73.945312 85.632812 74.597656 85.335938 C 75.125 85.09375 75.996094 84.824219 76.53125 84.738281 C 77.105469 84.644531 77.945312 84.613281 78.597656 84.664062 C 79.203125 84.707031 80.082031 84.859375 80.554688 85 C 81.027344 85.140625 81.800781 85.472656 82.273438 85.742188 C 82.746094 86.007812 83.164062 86.300781 83.199219 86.386719 C 83.234375 86.472656 82.882812 87.035156 82.421875 87.628906 L 81.582031 88.714844 L 80.957031 88.257812 C 80.617188 88.007812 80.0625 87.679688 79.726562 87.53125 C 79.238281 87.3125 78.859375 87.257812 77.773438 87.257812 C 76.542969 87.257812 76.367188 87.292969 75.792969 87.613281 C 75.445312 87.808594 74.976562 88.1875 74.746094 88.453125 C 74.515625 88.71875 74.195312 89.253906 74.035156 89.644531 C 73.769531 90.28125 73.734375 90.648438 73.6875 93.164062 C 73.640625 95.710938 73.660156 96.054688 73.910156 96.839844 C 74.0625 97.316406 74.378906 97.953125 74.609375 98.253906 C 74.84375 98.558594 75.304688 98.957031 75.636719 99.144531 C 76.074219 99.386719 76.496094 99.5 77.15625 99.546875 C 77.800781 99.589844 78.273438 99.542969 78.746094 99.394531 C 79.117188 99.277344 79.65625 98.988281 79.945312 98.75 C 80.234375 98.511719 80.613281 98.050781 80.785156 97.71875 C 80.957031 97.390625 81.152344 96.757812 81.21875 96.316406 C 81.285156 95.875 81.34375 95.355469 81.34375 95.160156 L 81.347656 94.804688 L 77.597656 94.804688 L 77.382812 93.675781 C 77.261719 93.054688 77.164062 92.503906 77.164062 92.449219 C 77.164062 92.398438 78.742188 92.355469 80.671875 92.355469 L 84.179688 92.355469 L 84.175781 94.320312 C 84.175781 95.554688 84.101562 96.621094 83.976562 97.1875 C 83.867188 97.683594 83.621094 98.394531 83.429688 98.765625 C 83.238281 99.140625 82.789062 99.75 82.429688 100.125 C 82.074219 100.496094 81.429688 101.003906 81 101.25 C 80.574219 101.496094 79.824219 101.796875 79.335938 101.917969 C 78.847656 102.039062 77.992188 102.140625 77.4375 102.140625 C 76.878906 102.136719 76.105469 102.054688 75.714844 101.957031 Z M 94.132812 102.015625 C 93.859375 101.953125 93.324219 101.761719 92.945312 101.585938 C 92.566406 101.410156 91.949219 101.046875 91.578125 100.777344 C 91.203125 100.507812 90.601562 99.90625 90.238281 99.445312 C 89.878906 98.984375 89.417969 98.203125 89.214844 97.707031 C 88.871094 96.847656 88.847656 96.664062 88.796875 94.09375 C 88.753906 91.941406 88.785156 91.207031 88.953125 90.515625 C 89.070312 90.035156 89.355469 89.285156 89.589844 88.839844 C 89.84375 88.359375 90.375 87.691406 90.910156 87.179688 C 91.441406 86.671875 92.144531 86.164062 92.644531 85.921875 C 93.105469 85.699219 93.863281 85.429688 94.328125 85.324219 C 94.792969 85.222656 95.535156 85.136719 95.980469 85.136719 C 96.425781 85.136719 97.171875 85.222656 97.636719 85.324219 C 98.097656 85.429688 98.855469 85.699219 99.320312 85.921875 C 99.820312 86.164062 100.519531 86.671875 101.054688 87.179688 C 101.585938 87.691406 102.117188 88.363281 102.371094 88.839844 C 102.605469 89.28125 102.882812 90.007812 102.996094 90.449219 C 103.132812 91.007812 103.191406 91.992188 103.191406 93.644531 C 103.191406 95.320312 103.132812 96.273438 102.988281 96.855469 C 102.878906 97.308594 102.589844 98.03125 102.351562 98.457031 C 102.117188 98.882812 101.628906 99.539062 101.269531 99.914062 C 100.910156 100.289062 100.25 100.832031 99.804688 101.117188 C 99.355469 101.402344 98.59375 101.753906 98.113281 101.894531 C 97.46875 102.085938 96.886719 102.152344 95.933594 102.140625 C 95.21875 102.136719 94.40625 102.078125 94.132812 102.015625 Z M 98.972656 98.199219 C 99.230469 97.902344 99.566406 97.347656 99.71875 96.972656 C 99.949219 96.410156 100.011719 95.90625 100.0625 94.160156 C 100.101562 92.875 100.066406 91.726562 99.976562 91.265625 C 99.894531 90.84375 99.695312 90.238281 99.53125 89.921875 C 99.371094 89.601562 99 89.113281 98.710938 88.835938 C 98.417969 88.558594 97.898438 88.207031 97.550781 88.058594 C 97.105469 87.867188 96.652344 87.789062 95.980469 87.792969 C 95.292969 87.792969 94.847656 87.875 94.332031 88.089844 C 93.9375 88.253906 93.382812 88.636719 93.074219 88.960938 C 92.765625 89.277344 92.386719 89.808594 92.226562 90.136719 C 91.953125 90.699219 91.933594 90.941406 91.933594 93.644531 L 91.933594 96.546875 L 92.3125 97.28125 C 92.535156 97.710938 92.972656 98.261719 93.371094 98.601562 C 93.753906 98.929688 94.332031 99.273438 94.679688 99.382812 C 95.0625 99.5 95.652344 99.554688 96.195312 99.527344 C 96.859375 99.496094 97.269531 99.390625 97.796875 99.113281 C 98.1875 98.910156 98.71875 98.5 98.972656 98.199219 Z M 98.972656 98.199219 " fill-opacity="1" fill-rule="nonzero"/></g><path stroke-linecap="round" transform="matrix(0.88687, 0, 0, 0.887464, 52.887774, 67.334089)" fill="none" stroke-linejoin="miter" d="M 98.16713 22.797904 C 97.598945 22.428171 97.1673 22.199288 96.863387 22.102453 C 96.687206 22.045233 96.418529 22.01002 96.057357 21.992414 " stroke="#fefefe" stroke-width="0.3" stroke-opacity="1" stroke-miterlimit="4"/></svg>