<svg xmlns="http://www.w3.org/2000/svg" xmlns:xlink="http://www.w3.org/1999/xlink" width="400" zoomAndPan="magnify" viewBox="0 0 300 187.499995" height="250" preserveAspectRatio="xMidYMid meet" version="1.0"><defs><clipPath id="a747aa198b"><path d="M 0.398438 0 L 299.601562 0 L 299.601562 187 L 0.398438 187 Z M 0.398438 0 " clip-rule="nonzero"/></clipPath><clipPath id="cd2f5d86de"><path d="M 40.195312 73.378906 L 260.109375 73.378906 L 260.109375 113.769531 L 40.195312 113.769531 Z M 40.195312 73.378906 " clip-rule="nonzero"/></clipPath></defs><g clip-path="url(#a747aa198b)"><path fill="#ffffff" d="M 0.398438 0 L 299.601562 0 L 299.601562 187 L 0.398438 187 Z M 0.398438 0 " fill-opacity="1" fill-rule="nonzero"/><path fill="#ffffff" d="M 0.398438 0 L 299.601562 0 L 299.601562 187 L 0.398438 187 Z M 0.398438 0 " fill-opacity="1" fill-rule="nonzero"/></g><g clip-path="url(#cd2f5d86de)"><path fill="#524a8a" d="M 112.175781 75.132812 L 87.8125 75.132812 C 87.679688 75.132812 87.566406 75.179688 87.46875 75.277344 C 87.375 75.371094 87.324219 75.488281 87.324219 75.621094 L 87.324219 83.734375 C 87.324219 83.871094 87.371094 83.984375 87.46875 84.082031 C 87.5625 84.175781 87.679688 84.222656 87.8125 84.222656 L 111.652344 84.222656 C 113.871094 84.222656 114.980469 85.175781 114.980469 87.082031 L 114.980469 89.054688 L 96.683594 89.054688 C 93.113281 89.054688 90.398438 89.847656 88.546875 91.441406 C 86.695312 93.035156 85.765625 95.335938 85.761719 98.351562 L 85.761719 101.003906 C 85.761719 104.738281 86.796875 107.511719 88.859375 109.3125 C 90.921875 111.113281 93.703125 112.015625 97.203125 112.011719 L 112.175781 112.011719 C 115.640625 112.011719 119.109375 111.035156 121.191406 109.082031 C 123.273438 107.128906 124.308594 104.261719 124.308594 100.484375 L 124.308594 86.664062 C 124.308594 82.890625 123.269531 80.023438 121.191406 78.066406 C 119.113281 76.113281 115.636719 75.132812 112.175781 75.132812 Z M 111.652344 102.921875 L 97.207031 102.921875 C 96.527344 102.921875 95.890625 102.75 95.304688 102.402344 C 94.699219 102.058594 94.398438 101.453125 94.398438 100.585938 C 94.398438 98.957031 95.332031 98.144531 97.207031 98.144531 L 114.980469 98.144531 L 114.980469 100.066406 C 114.980469 101.972656 113.871094 102.925781 111.652344 102.921875 Z M 188.128906 112.011719 L 212.488281 112.011719 C 212.625 112.011719 212.738281 111.964844 212.832031 111.871094 C 212.929688 111.777344 212.976562 111.660156 212.976562 111.527344 L 212.976562 103.40625 C 212.976562 103.269531 212.929688 103.15625 212.832031 103.0625 C 212.738281 102.964844 212.621094 102.917969 212.488281 102.917969 L 188.65625 102.917969 C 186.4375 102.917969 185.332031 101.964844 185.332031 100.0625 L 185.332031 98.09375 L 203.625 98.09375 C 207.195312 98.09375 209.90625 97.296875 211.757812 95.703125 C 213.609375 94.109375 214.539062 91.804688 214.542969 88.792969 L 214.542969 86.144531 C 214.542969 82.40625 213.511719 79.636719 211.445312 77.832031 C 209.382812 76.03125 206.601562 75.132812 203.105469 75.132812 L 188.128906 75.132812 C 184.664062 75.132812 181.195312 76.109375 179.113281 78.070312 C 177.03125 80.03125 175.996094 82.890625 175.996094 86.664062 L 175.996094 100.480469 C 175.996094 104.257812 177.035156 107.121094 179.113281 109.078125 C 181.195312 111.035156 184.664062 112.011719 188.128906 112.011719 Z M 188.648438 84.222656 L 203.097656 84.222656 C 203.765625 84.226562 204.421875 84.40625 205 84.742188 C 205.605469 85.089844 205.90625 85.695312 205.910156 86.5625 C 205.910156 88.1875 204.972656 89.003906 203.097656 89.003906 L 185.332031 89.003906 L 185.332031 87.082031 C 185.328125 85.175781 186.433594 84.222656 188.648438 84.222656 Z M 257.53125 83.035156 C 255.839844 80.066406 253.523438 77.714844 250.585938 75.984375 C 247.679688 74.253906 243.960938 73.378906 240.5625 73.378906 C 237.148438 73.363281 233.980469 74.230469 231.054688 75.984375 C 228.117188 77.71875 225.800781 80.070312 224.109375 83.035156 C 222.386719 86.023438 221.535156 89.242188 221.550781 92.695312 L 221.550781 111.515625 C 221.550781 111.648438 221.601562 111.773438 221.691406 111.867188 C 221.789062 111.964844 221.902344 112.011719 222.039062 112.011719 L 231.703125 112.011719 C 231.839844 112.011719 231.957031 111.964844 232.050781 111.867188 C 232.148438 111.769531 232.195312 111.652344 232.195312 111.515625 L 232.195312 92.695312 C 232.179688 91.175781 232.558594 89.765625 233.328125 88.457031 C 234.082031 87.160156 235.101562 86.121094 236.386719 85.347656 C 237.671875 84.566406 239.0625 84.183594 240.566406 84.199219 C 242.074219 84.199219 244 84.585938 245.257812 85.351562 C 246.542969 86.125 247.558594 87.160156 248.3125 88.460938 C 249.082031 89.765625 249.460938 91.179688 249.453125 92.695312 L 249.453125 111.515625 C 249.453125 111.648438 249.503906 111.773438 249.597656 111.867188 C 249.691406 111.964844 249.808594 112.011719 249.941406 112.011719 L 259.609375 112.011719 C 259.746094 112.011719 259.859375 111.964844 259.953125 111.867188 C 260.050781 111.769531 260.097656 111.652344 260.097656 111.515625 L 260.097656 92.695312 C 260.109375 89.242188 259.253906 86.023438 257.53125 83.035156 Z M 159.792969 75.132812 C 159.660156 75.132812 159.542969 75.179688 159.449219 75.277344 C 159.351562 75.371094 159.304688 75.488281 159.304688 75.625 L 159.304688 92.710938 C 159.316406 94.273438 158.921875 95.726562 158.121094 97.066406 C 157.332031 98.398438 156.269531 99.460938 154.9375 100.25 C 154.28125 100.640625 153.582031 100.933594 152.839844 101.136719 C 152.101562 101.335938 151.351562 101.4375 150.585938 101.4375 C 149.820312 101.4375 149.066406 101.335938 148.328125 101.136719 C 147.589844 100.933594 146.890625 100.640625 146.230469 100.25 C 144.898438 99.460938 143.839844 98.398438 143.050781 97.066406 C 142.25 95.726562 141.855469 94.273438 141.863281 92.710938 L 141.863281 75.625 C 141.863281 75.488281 141.816406 75.371094 141.71875 75.277344 C 141.625 75.179688 141.507812 75.132812 141.375 75.132812 L 131.804688 75.132812 C 131.671875 75.132812 131.554688 75.179688 131.460938 75.277344 C 131.367188 75.371094 131.316406 75.488281 131.316406 75.625 L 131.316406 94.3125 C 131.316406 98.582031 133.804688 102.792969 138.722656 106.808594 C 141.679688 109.265625 145.113281 111.394531 148.960938 113.140625 L 150.539062 113.769531 L 152.257812 113.125 C 155.277344 111.757812 158.125 110.089844 160.796875 108.125 C 166.8125 103.699219 169.863281 99.050781 169.863281 94.3125 L 169.863281 75.625 C 169.863281 75.488281 169.816406 75.371094 169.71875 75.277344 C 169.625 75.179688 169.507812 75.132812 169.375 75.132812 Z M 78.257812 75.132812 L 69.152344 75.132812 C 69.019531 75.132812 68.902344 75.179688 68.808594 75.277344 C 68.710938 75.371094 68.664062 75.488281 68.660156 75.621094 L 68.660156 80.882812 C 68.675781 82.46875 68.273438 83.941406 67.453125 85.300781 C 66.644531 86.65625 65.558594 87.738281 64.199219 88.539062 C 62.832031 89.359375 61.351562 89.761719 59.757812 89.746094 C 58.152344 89.746094 56.105469 89.339844 54.761719 88.539062 C 53.402344 87.738281 52.316406 86.660156 51.507812 85.300781 C 50.691406 83.941406 50.289062 82.46875 50.300781 80.882812 L 50.300781 75.625 C 50.296875 75.488281 50.25 75.375 50.152344 75.277344 C 50.058594 75.183594 49.941406 75.136719 49.804688 75.136719 L 40.699219 75.136719 C 40.425781 75.136719 40.207031 75.355469 40.207031 75.625 L 40.207031 111.523438 C 40.207031 111.660156 40.257812 111.773438 40.351562 111.871094 C 40.449219 111.96875 40.5625 112.015625 40.699219 112.011719 L 49.804688 112.011719 C 49.9375 112.011719 50.054688 111.964844 50.148438 111.871094 C 50.246094 111.773438 50.292969 111.660156 50.292969 111.523438 L 50.292969 106.0625 C 50.28125 104.476562 50.6875 103 51.503906 101.644531 C 52.3125 100.285156 53.398438 99.203125 54.757812 98.402344 C 56.128906 97.585938 57.609375 97.183594 59.203125 97.195312 C 60.8125 97.195312 62.859375 97.601562 64.199219 98.402344 C 65.542969 99.191406 66.660156 100.308594 67.457031 101.644531 C 68.269531 103.003906 68.671875 104.476562 68.664062 106.0625 L 68.664062 111.523438 C 68.664062 111.792969 68.882812 112.011719 69.15625 112.011719 L 78.265625 112.011719 C 78.535156 112.011719 78.753906 111.792969 78.753906 111.523438 L 78.753906 75.621094 C 78.753906 75.488281 78.703125 75.371094 78.605469 75.273438 C 78.511719 75.179688 78.394531 75.132812 78.257812 75.132812 Z M 78.257812 75.132812 " fill-opacity="1" fill-rule="nonzero"/></g></svg>