<svg xmlns="http://www.w3.org/2000/svg" xmlns:xlink="http://www.w3.org/1999/xlink" width="400" zoomAndPan="magnify" viewBox="0 0 300 187.499995" height="250" preserveAspectRatio="xMidYMid meet" version="1.0"><defs><clipPath id="b9dce8ea94"><path d="M 0.398438 0 L 299.601562 0 L 299.601562 187 L 0.398438 187 Z M 0.398438 0 " clip-rule="nonzero"/></clipPath></defs><g clip-path="url(#b9dce8ea94)"><path fill="#ffffff" d="M 0.398438 0 L 299.601562 0 L 299.601562 187 L 0.398438 187 Z M 0.398438 0 " fill-opacity="1" fill-rule="nonzero"/><path fill="#ffffff" d="M 0.398438 0 L 299.601562 0 L 299.601562 187 L 0.398438 187 Z M 0.398438 0 " fill-opacity="1" fill-rule="nonzero"/></g><path fill="#1c1c1c" d="M 97.433594 79.421875 L 96.824219 79.421875 C 96.632812 79.421875 96.289062 79.578125 96.171875 79.816406 L 87.292969 96.769531 L 87.21875 96.769531 L 78.335938 79.816406 C 78.21875 79.578125 77.875 79.421875 77.683594 79.421875 L 77.074219 79.421875 C 76.765625 79.421875 76.421875 79.695312 76.382812 80.050781 L 72.058594 106.421875 C 71.980469 106.933594 72.324219 107.289062 72.785156 107.289062 L 77.300781 107.289062 C 77.683594 107.289062 77.992188 106.972656 78.027344 106.660156 L 79.710938 94.53125 L 79.789062 94.53125 L 86.257812 107.25 C 86.371094 107.484375 86.679688 107.679688 86.90625 107.679688 L 87.597656 107.679688 C 87.789062 107.679688 88.132812 107.484375 88.246094 107.25 L 94.675781 94.53125 L 94.753906 94.53125 L 96.476562 106.660156 C 96.515625 106.972656 96.859375 107.289062 97.203125 107.289062 L 101.71875 107.289062 C 102.179688 107.289062 102.523438 106.933594 102.445312 106.421875 L 98.121094 80.050781 C 98.085938 79.695312 97.742188 79.421875 97.433594 79.421875 Z M 113.988281 79.816406 L 109.394531 79.816406 C 109.011719 79.816406 108.667969 80.167969 108.667969 80.5625 L 108.667969 106.542969 C 108.667969 106.9375 109.011719 107.289062 109.394531 107.289062 L 113.988281 107.289062 C 114.371094 107.289062 114.714844 106.9375 114.714844 106.542969 L 114.714844 80.5625 C 114.714844 80.167969 114.371094 79.816406 113.988281 79.816406 Z M 143.105469 88.292969 C 143.105469 83.621094 139.355469 79.816406 134.761719 79.816406 L 123.316406 79.816406 C 122.894531 79.816406 122.589844 80.167969 122.589844 80.5625 L 122.589844 106.542969 C 122.589844 106.9375 122.894531 107.289062 123.316406 107.289062 L 127.871094 107.289062 C 128.253906 107.289062 128.597656 106.9375 128.597656 106.542969 L 128.597656 96.535156 L 131.242188 96.535156 L 136.332031 106.9375 C 136.40625 107.09375 136.640625 107.289062 136.941406 107.289062 L 142.035156 107.289062 C 142.683594 107.289062 142.953125 106.664062 142.683594 106.152344 L 137.441406 96.179688 C 140.769531 94.804688 143.105469 91.902344 143.105469 88.292969 Z M 134.265625 91.546875 L 128.597656 91.546875 L 128.597656 85.425781 L 134.265625 85.425781 C 135.832031 85.425781 137.175781 86.761719 137.175781 88.410156 C 137.171875 90.058594 135.832031 91.546875 134.265625 91.546875 Z M 166.191406 79.816406 L 150.34375 79.816406 C 149.921875 79.816406 149.617188 80.167969 149.617188 80.5625 L 149.617188 106.542969 C 149.617188 106.9375 149.921875 107.289062 150.34375 107.289062 L 166.191406 107.289062 C 166.613281 107.289062 166.917969 106.9375 166.917969 106.542969 L 166.917969 102.265625 C 166.917969 101.871094 166.613281 101.519531 166.191406 101.519531 L 155.585938 101.519531 L 155.585938 96.222656 L 164.3125 96.222656 C 164.695312 96.222656 165.039062 95.90625 165.039062 95.472656 L 165.039062 91.195312 C 165.039062 90.800781 164.695312 90.449219 164.3125 90.449219 L 155.585938 90.449219 L 155.585938 85.585938 L 166.191406 85.585938 C 166.613281 85.585938 166.917969 85.230469 166.917969 84.839844 L 166.917969 80.5625 C 166.917969 80.167969 166.613281 79.816406 166.191406 79.816406 Z M 194.347656 93.160156 L 186.65625 93.160156 C 186.234375 93.160156 185.929688 93.472656 185.929688 93.90625 L 185.929688 97.789062 C 185.929688 98.183594 186.234375 98.496094 186.65625 98.496094 L 189.066406 98.496094 L 189.066406 100.769531 C 187.917969 101.242188 186.769531 101.402344 185.65625 101.402344 C 181.488281 101.402344 178.078125 97.871094 178.078125 93.589844 C 178.078125 89.273438 181.449219 85.660156 185.621094 85.660156 C 187.496094 85.660156 189.179688 86.171875 190.632812 87.546875 C 190.941406 87.78125 191.363281 87.78125 191.667969 87.507812 L 194.691406 84.210938 C 194.996094 83.894531 194.960938 83.425781 194.613281 83.148438 C 192.011719 80.835938 188.488281 79.460938 185.273438 79.460938 C 177.65625 79.460938 171.535156 85.738281 171.535156 93.589844 C 171.535156 101.433594 177.660156 107.636719 185.273438 107.636719 C 190.824219 107.636719 194.769531 105.085938 194.769531 105.085938 C 194.921875 104.96875 195.074219 104.652344 195.074219 104.460938 L 195.035156 93.902344 C 195.039062 93.511719 194.730469 93.160156 194.347656 93.160156 Z M 213.816406 79.421875 C 206.164062 79.421875 200.078125 85.742188 200.078125 93.589844 C 200.078125 101.4375 206.164062 107.679688 213.816406 107.679688 C 221.476562 107.679688 227.597656 101.4375 227.597656 93.589844 C 227.597656 85.742188 221.476562 79.421875 213.816406 79.421875 Z M 213.816406 101.402344 C 209.648438 101.402344 206.203125 97.871094 206.203125 93.589844 C 206.203125 89.273438 209.648438 85.703125 213.816406 85.703125 C 218.027344 85.703125 221.476562 89.277344 221.476562 93.589844 C 221.476562 97.871094 218.027344 101.402344 213.816406 101.402344 Z M 213.816406 101.402344 " fill-opacity="1" fill-rule="nonzero"/></svg>