<svg xmlns="http://www.w3.org/2000/svg" xmlns:xlink="http://www.w3.org/1999/xlink" width="400" zoomAndPan="magnify" viewBox="0 0 300 187.499995" height="250" preserveAspectRatio="xMidYMid meet" version="1.0"><defs><clipPath id="a1e7ad6ca3"><path d="M 0.398438 0 L 299.601562 0 L 299.601562 187 L 0.398438 187 Z M 0.398438 0 " clip-rule="nonzero"/></clipPath></defs><g clip-path="url(#a1e7ad6ca3)"><path fill="#ffffff" d="M 0.398438 0 L 299.601562 0 L 299.601562 187 L 0.398438 187 Z M 0.398438 0 " fill-opacity="1" fill-rule="nonzero"/><path fill="#ffffff" d="M 0.398438 0 L 299.601562 0 L 299.601562 187 L 0.398438 187 Z M 0.398438 0 " fill-opacity="1" fill-rule="nonzero"/></g><path fill="#000000" d="M 117.71875 88.894531 C 116.378906 88.894531 115.210938 89.363281 114.21875 90.121094 L 114.21875 89.011719 L 111.070312 89.011719 L 111.070312 101.355469 L 114.335938 101.355469 L 114.335938 93.457031 C 114.804688 92.8125 115.914062 91.9375 117.3125 91.9375 C 117.835938 91.9375 118.246094 91.996094 118.652344 92.113281 L 118.652344 88.953125 C 118.363281 88.894531 118.011719 88.894531 117.71875 88.894531 " fill-opacity="1" fill-rule="evenodd"/><path fill="#000000" d="M 88.960938 97.609375 C 89.777344 98.371094 91.0625 98.839844 92.34375 98.839844 C 93.21875 98.839844 93.917969 98.429688 93.917969 97.785156 C 93.917969 95.914062 87.96875 96.617188 87.96875 92.578125 C 87.96875 90.179688 90.246094 88.71875 92.695312 88.71875 C 94.269531 88.71875 96.019531 89.304688 96.835938 89.945312 L 95.320312 92.34375 C 94.679688 91.878906 93.859375 91.527344 92.984375 91.527344 C 92.050781 91.527344 91.292969 91.878906 91.292969 92.519531 C 91.292969 94.101562 97.246094 93.515625 97.246094 97.785156 C 97.246094 100.183594 94.910156 101.589844 92.34375 101.589844 C 90.652344 101.589844 88.84375 101.003906 87.386719 99.953125 Z M 88.960938 97.609375 " fill-opacity="1" fill-rule="evenodd"/><path fill="#000000" d="M 109.671875 95.09375 C 109.671875 91.644531 107.277344 88.777344 103.894531 88.777344 C 100.21875 88.777344 97.886719 91.761719 97.886719 95.210938 C 97.886719 99.074219 100.628906 101.648438 104.304688 101.648438 C 106.226562 101.648438 108.152344 100.828125 109.320312 99.425781 L 107.453125 97.550781 C 106.871094 98.195312 105.761719 98.957031 104.363281 98.957031 C 102.613281 98.957031 101.210938 97.785156 101.035156 96.03125 L 109.554688 96.03125 C 109.613281 95.738281 109.671875 95.445312 109.671875 95.09375 Z M 101.210938 93.632812 C 101.386719 92.519531 102.496094 91.46875 103.835938 91.46875 C 105.179688 91.46875 106.171875 92.519531 106.285156 93.632812 Z M 101.210938 93.632812 " fill-opacity="1" fill-rule="evenodd"/><path fill="#000000" d="M 126.53125 96.558594 L 129.855469 89.011719 L 133.296875 89.011719 L 127.636719 101.414062 L 125.363281 101.414062 L 119.703125 89.011719 L 123.144531 89.011719 Z M 126.53125 96.558594 " fill-opacity="1" fill-rule="evenodd"/><path fill="#000000" d="M 136.097656 83.21875 C 137.261719 83.21875 138.253906 84.15625 138.253906 85.324219 C 138.253906 86.496094 137.261719 87.429688 136.097656 87.429688 C 134.929688 87.429688 133.9375 86.496094 133.9375 85.324219 C 133.9375 84.15625 134.871094 83.21875 136.097656 83.21875 " fill-opacity="1" fill-rule="evenodd"/><path fill="#000000" d="M 134.40625 89.011719 L 137.671875 89.011719 L 137.671875 101.355469 L 134.40625 101.355469 Z M 134.40625 89.011719 " fill-opacity="1" fill-rule="evenodd"/><path fill="#000000" d="M 151.320312 98.839844 C 149.863281 100.769531 148.054688 101.648438 145.722656 101.648438 C 141.929688 101.648438 139.128906 98.78125 139.128906 95.210938 C 139.128906 91.644531 141.988281 88.777344 145.722656 88.777344 C 147.820312 88.777344 149.746094 89.769531 150.914062 91.234375 L 148.582031 93.28125 C 147.9375 92.402344 146.945312 91.820312 145.722656 91.820312 C 143.796875 91.820312 142.398438 93.339844 142.398438 95.210938 C 142.398438 97.144531 143.796875 98.605469 145.78125 98.605469 C 147.121094 98.605469 148.171875 97.785156 148.695312 96.96875 Z M 151.320312 98.839844 " fill-opacity="1" fill-rule="evenodd"/><path fill="#000000" d="M 163.28125 99.425781 C 162.113281 100.828125 160.132812 101.648438 158.265625 101.648438 C 154.589844 101.648438 151.847656 99.074219 151.847656 95.210938 C 151.847656 91.761719 154.179688 88.777344 157.855469 88.777344 C 161.238281 88.777344 163.632812 91.644531 163.632812 95.09375 C 163.632812 95.445312 163.632812 95.738281 163.574219 96.03125 L 155.054688 96.03125 C 155.230469 97.785156 156.628906 98.957031 158.378906 98.957031 C 159.78125 98.957031 160.890625 98.136719 161.472656 97.550781 Z M 160.246094 93.632812 C 160.132812 92.519531 159.140625 91.46875 157.796875 91.46875 C 156.457031 91.46875 155.289062 92.519531 155.171875 93.632812 Z M 160.246094 93.632812 " fill-opacity="1" fill-rule="evenodd"/><path fill="#000000" d="M 164.914062 101.414062 L 164.914062 89.011719 L 168.066406 89.011719 L 168.066406 90.003906 C 168.996094 89.246094 170.164062 88.777344 171.566406 88.777344 C 173.257812 88.777344 174.832031 89.535156 175.824219 90.765625 C 176.640625 91.761719 177.105469 92.988281 177.105469 95.09375 L 177.105469 101.414062 L 173.839844 101.414062 L 173.839844 94.859375 C 173.839844 93.632812 173.546875 92.988281 173.082031 92.519531 C 172.671875 92.113281 171.972656 91.820312 171.214844 91.820312 C 169.816406 91.820312 168.707031 92.695312 168.238281 93.339844 L 168.238281 101.355469 L 164.914062 101.355469 Z M 164.914062 101.414062 " fill-opacity="1" fill-rule="evenodd"/><path fill="#62d84e" d="M 185.566406 88.777344 C 181.65625 88.777344 178.390625 91.996094 178.332031 95.972656 C 178.332031 98.078125 179.207031 99.953125 180.605469 101.296875 C 181.132812 101.765625 181.890625 101.824219 182.472656 101.414062 C 183.289062 100.769531 184.339844 100.417969 185.566406 100.417969 C 186.789062 100.417969 187.839844 100.828125 188.65625 101.414062 C 189.242188 101.824219 190 101.824219 190.523438 101.296875 C 191.925781 99.953125 192.742188 98.136719 192.742188 96.03125 C 192.683594 91.996094 189.53125 88.777344 185.566406 88.777344 M 185.507812 99.601562 C 183.347656 99.601562 181.890625 97.960938 181.890625 95.972656 C 181.890625 93.984375 183.347656 92.34375 185.507812 92.34375 C 187.664062 92.34375 189.125 93.984375 189.125 95.972656 C 189.125 98.019531 187.664062 99.601562 185.507812 99.601562 " fill-opacity="1" fill-rule="evenodd"/><path fill="#000000" d="M 199.214844 101.414062 L 196.765625 101.414062 L 191.867188 89.011719 L 195.191406 89.011719 L 197.875 96.089844 L 200.5 89.011719 L 203.242188 89.011719 L 205.867188 96.089844 L 208.550781 89.011719 L 211.816406 89.011719 L 206.917969 101.414062 L 204.464844 101.414062 L 201.839844 94.335938 Z M 199.214844 101.414062 " fill-opacity="1" fill-rule="evenodd"/><path fill="#000000" d="M 211.875 100.011719 L 211.582031 100.011719 L 211.582031 100.535156 L 211.351562 100.535156 L 211.351562 99.074219 L 211.933594 99.074219 C 212.167969 99.074219 212.398438 99.308594 212.398438 99.542969 C 212.398438 99.71875 212.285156 99.894531 212.109375 99.953125 L 212.457031 100.535156 L 212.226562 100.535156 Z M 211.582031 99.777344 L 211.933594 99.777344 C 212.050781 99.777344 212.167969 99.660156 212.167969 99.542969 C 212.167969 99.425781 212.050781 99.308594 211.933594 99.308594 L 211.582031 99.308594 Z M 211.582031 99.777344 " fill-opacity="1" fill-rule="nonzero"/><path fill="#000000" d="M 211.816406 98.488281 C 212.574219 98.488281 213.160156 99.074219 213.160156 99.835938 C 213.160156 100.59375 212.574219 101.179688 211.816406 101.179688 C 211.058594 101.179688 210.476562 100.59375 210.476562 99.835938 C 210.476562 99.074219 211.117188 98.488281 211.816406 98.488281 M 211.816406 98.3125 C 210.941406 98.3125 210.300781 99.015625 210.300781 99.835938 C 210.300781 100.710938 211 101.355469 211.816406 101.355469 C 212.691406 101.355469 213.332031 100.652344 213.332031 99.835938 C 213.390625 98.957031 212.691406 98.3125 211.816406 98.3125 Z M 211.816406 98.3125 " fill-opacity="1" fill-rule="nonzero"/></svg>