<svg xmlns="http://www.w3.org/2000/svg" xmlns:xlink="http://www.w3.org/1999/xlink" width="400" zoomAndPan="magnify" viewBox="0 0 300 187.499995" height="250" preserveAspectRatio="xMidYMid meet" version="1.0"><defs><clipPath id="dff6180452"><path d="M 0.398438 0 L 299.601562 0 L 299.601562 187 L 0.398438 187 Z M 0.398438 0 " clip-rule="nonzero"/></clipPath><clipPath id="24b94d5da5"><path d="M 108 82 L 136 82 L 136 110.234375 L 108 110.234375 Z M 108 82 " clip-rule="nonzero"/></clipPath><clipPath id="721d2b46b1"><path d="M 168 82 L 189 82 L 189 110.234375 L 168 110.234375 Z M 168 82 " clip-rule="nonzero"/></clipPath><clipPath id="f72d66ea94"><path d="M 202 76.574219 L 221 76.574219 L 221 110 L 202 110 Z M 202 76.574219 " clip-rule="nonzero"/></clipPath><clipPath id="96f48a43df"><path d="M 67.726562 76.574219 L 86 76.574219 L 86 110 L 67.726562 110 Z M 67.726562 76.574219 " clip-rule="nonzero"/></clipPath><clipPath id="85afcb6431"><path d="M 225 82 L 232.285156 82 L 232.285156 90 L 225 90 Z M 225 82 " clip-rule="nonzero"/></clipPath></defs><g clip-path="url(#dff6180452)"><path fill="#ffffff" d="M 0.398438 0 L 299.601562 0 L 299.601562 187 L 0.398438 187 Z M 0.398438 0 " fill-opacity="1" fill-rule="nonzero"/><path fill="#ffffff" d="M 0.398438 0 L 299.601562 0 L 299.601562 187 L 0.398438 187 Z M 0.398438 0 " fill-opacity="1" fill-rule="nonzero"/></g><path fill="#1e212d" d="M 91.222656 82.976562 L 95.84375 82.976562 C 96.207031 82.976562 96.5 83.269531 96.5 83.628906 L 96.5 85.148438 C 96.5 85.304688 96.691406 85.382812 96.796875 85.269531 C 98.488281 83.460938 100.707031 82.601562 103.453125 82.601562 C 103.933594 82.601562 104.390625 82.628906 104.820312 82.679688 C 105.148438 82.71875 105.394531 82.996094 105.394531 83.324219 L 105.394531 88.195312 C 105.394531 88.554688 105.0625 88.820312 104.707031 88.75 C 104.035156 88.613281 103.261719 88.554688 102.429688 88.554688 C 99.953125 88.554688 97.78125 89.476562 96.578125 91.625 C 96.527344 91.71875 96.5 91.828125 96.5 91.9375 L 96.5 109.132812 C 96.5 109.492188 96.207031 109.78125 95.84375 109.78125 L 91.222656 109.78125 C 90.863281 109.78125 90.570312 109.492188 90.570312 109.132812 L 90.570312 83.628906 C 90.570312 83.269531 90.863281 82.976562 91.222656 82.976562 " fill-opacity="1" fill-rule="nonzero"/><g clip-path="url(#24b94d5da5)"><path fill="#1e212d" d="M 129.1875 100.738281 L 129.1875 92.023438 C 129.1875 91.890625 129.148438 91.761719 129.070312 91.652344 C 127.585938 89.550781 124.90625 88.179688 122.019531 88.179688 C 117.4375 88.179688 114.203125 91.714844 114.203125 96.382812 C 114.203125 101.042969 117.4375 104.582031 122.019531 104.582031 C 124.90625 104.582031 127.585938 103.210938 129.070312 101.109375 C 129.144531 101 129.1875 100.871094 129.1875 100.738281 Z M 129.1875 108.28125 C 129.1875 108.109375 128.988281 108.007812 128.847656 108.109375 C 127.007812 109.453125 124.652344 110.210938 121.964844 110.210938 C 113.988281 110.210938 108.109375 104.207031 108.109375 96.382812 C 108.109375 88.554688 113.988281 82.550781 121.964844 82.550781 C 124.652344 82.550781 127.007812 83.355469 128.847656 84.703125 C 128.988281 84.804688 129.1875 84.707031 129.1875 84.53125 L 129.1875 83.628906 C 129.1875 83.269531 129.480469 82.976562 129.84375 82.976562 L 134.464844 82.976562 C 134.824219 82.976562 135.117188 83.269531 135.117188 83.628906 L 135.117188 109.132812 C 135.117188 109.492188 134.824219 109.78125 134.464844 109.78125 L 129.84375 109.78125 C 129.480469 109.78125 129.1875 109.492188 129.1875 109.132812 L 129.1875 108.28125 " fill-opacity="1" fill-rule="nonzero"/></g><path fill="#1e212d" d="M 140.855469 82.976562 L 145.476562 82.976562 C 145.839844 82.976562 146.132812 83.269531 146.132812 83.628906 L 146.132812 84.980469 C 146.132812 85.167969 146.355469 85.261719 146.492188 85.132812 C 148.371094 83.351562 151.050781 82.550781 153.679688 82.550781 C 160.363281 82.550781 164.625 87.160156 164.625 94.074219 L 164.625 109.132812 C 164.625 109.492188 164.328125 109.78125 163.96875 109.78125 L 159.347656 109.78125 C 158.984375 109.78125 158.691406 109.492188 158.691406 109.132812 L 158.691406 94.183594 C 158.691406 91.289062 156.539062 88.179688 152.546875 88.179688 C 149.5625 88.179688 147.261719 89.699219 146.167969 92.789062 C 146.144531 92.859375 146.132812 92.933594 146.132812 93.003906 L 146.132812 109.132812 C 146.132812 109.492188 145.839844 109.78125 145.476562 109.78125 L 140.855469 109.78125 C 140.496094 109.78125 140.203125 109.492188 140.203125 109.132812 L 140.203125 83.628906 C 140.203125 83.269531 140.496094 82.976562 140.855469 82.976562 " fill-opacity="1" fill-rule="nonzero"/><g clip-path="url(#721d2b46b1)"><path fill="#1e212d" d="M 168.882812 104.390625 L 172.34375 101.929688 C 172.648438 101.714844 173.066406 101.792969 173.269531 102.101562 C 174.488281 103.9375 175.960938 104.957031 178.410156 104.957031 C 180.460938 104.957031 181.863281 103.9375 181.863281 102.492188 C 181.863281 100.9375 180.730469 100.027344 178.25 99.113281 L 176.363281 98.363281 C 171.78125 96.59375 169.785156 93.753906 169.785156 90.109375 C 169.785156 85.765625 173.453125 82.550781 178.464844 82.550781 C 181.71875 82.550781 184.542969 83.742188 186.527344 86.667969 C 186.726562 86.964844 186.652344 87.367188 186.359375 87.570312 L 183.074219 89.824219 C 182.777344 90.03125 182.371094 89.953125 182.164062 89.65625 C 181.277344 88.386719 180.09375 87.804688 178.574219 87.804688 C 177.011719 87.804688 175.609375 88.609375 175.609375 89.949219 C 175.609375 91.339844 176.523438 92.199219 179.058594 93.21875 L 181 93.914062 C 185.527344 95.683594 188.0625 98.042969 188.0625 102.222656 C 188.0625 106.941406 184.125 110.210938 178.410156 110.210938 C 174.359375 110.210938 170.941406 108.65625 168.714844 105.277344 C 168.523438 104.984375 168.597656 104.59375 168.882812 104.390625 " fill-opacity="1" fill-rule="nonzero"/></g><path fill="#1e212d" d="M 193.253906 82.976562 L 197.875 82.976562 C 198.234375 82.976562 198.527344 83.269531 198.527344 83.628906 L 198.527344 109.132812 C 198.527344 109.492188 198.234375 109.78125 197.875 109.78125 L 193.253906 109.78125 C 192.890625 109.78125 192.597656 109.492188 192.597656 109.132812 L 192.597656 83.628906 C 192.597656 83.269531 192.890625 82.976562 193.253906 82.976562 " fill-opacity="1" fill-rule="nonzero"/><g clip-path="url(#f72d66ea94)"><path fill="#1e212d" d="M 203.445312 82.976562 L 206.777344 82.976562 C 207.066406 82.976562 207.300781 82.746094 207.300781 82.457031 L 207.300781 77.25 C 207.300781 76.890625 207.59375 76.597656 207.957031 76.597656 L 212.578125 76.597656 C 212.9375 76.597656 213.230469 76.890625 213.230469 77.25 L 213.230469 82.457031 C 213.230469 82.746094 213.464844 82.976562 213.753906 82.976562 L 220.125 82.976562 C 220.484375 82.976562 220.777344 83.269531 220.777344 83.628906 L 220.777344 87.582031 C 220.777344 87.941406 220.484375 88.230469 220.125 88.230469 L 213.753906 88.230469 C 213.464844 88.230469 213.230469 88.464844 213.230469 88.753906 L 213.230469 100.402344 C 213.230469 103.132812 213.984375 104.367188 217.058594 104.367188 L 220.125 104.367188 C 220.484375 104.367188 220.777344 104.660156 220.777344 105.019531 L 220.777344 109.132812 C 220.777344 109.492188 220.484375 109.78125 220.125 109.78125 L 215.550781 109.78125 C 210.375 109.78125 207.300781 106.726562 207.300781 101.632812 L 207.300781 88.753906 C 207.300781 88.464844 207.066406 88.230469 206.777344 88.230469 L 203.445312 88.230469 C 203.082031 88.230469 202.789062 87.941406 202.789062 87.582031 L 202.789062 83.628906 C 202.789062 83.269531 203.082031 82.976562 203.445312 82.976562 " fill-opacity="1" fill-rule="nonzero"/></g><g clip-path="url(#96f48a43df)"><path fill="#1e212d" d="M 68.378906 82.976562 L 71.714844 82.976562 C 72.003906 82.976562 72.234375 82.746094 72.234375 82.457031 L 72.234375 77.25 C 72.234375 76.890625 72.527344 76.597656 72.890625 76.597656 L 77.511719 76.597656 C 77.875 76.597656 78.167969 76.890625 78.167969 77.25 L 78.167969 82.457031 C 78.167969 82.746094 78.398438 82.976562 78.6875 82.976562 L 85.058594 82.976562 C 85.421875 82.976562 85.714844 83.269531 85.714844 83.628906 L 85.714844 87.582031 C 85.714844 87.941406 85.421875 88.230469 85.058594 88.230469 L 78.6875 88.230469 C 78.398438 88.230469 78.167969 88.464844 78.167969 88.753906 L 78.167969 100.402344 C 78.167969 103.132812 78.921875 104.367188 81.992188 104.367188 L 85.058594 104.367188 C 85.421875 104.367188 85.714844 104.660156 85.714844 105.019531 L 85.714844 109.132812 C 85.714844 109.492188 85.421875 109.78125 85.058594 109.78125 L 80.484375 109.78125 C 75.308594 109.78125 72.234375 106.726562 72.234375 101.632812 L 72.234375 88.753906 C 72.234375 88.464844 72.003906 88.230469 71.714844 88.230469 L 68.378906 88.230469 C 68.019531 88.230469 67.726562 87.941406 67.726562 87.582031 L 67.726562 83.628906 C 67.726562 83.269531 68.019531 82.976562 68.378906 82.976562 " fill-opacity="1" fill-rule="nonzero"/></g><g clip-path="url(#85afcb6431)"><path fill="#1e212d" d="M 225.039062 85.605469 C 225.039062 83.617188 226.660156 82.003906 228.664062 82.003906 C 230.664062 82.003906 232.285156 83.617188 232.285156 85.605469 C 232.285156 87.59375 230.664062 89.207031 228.664062 89.207031 C 226.660156 89.207031 225.039062 87.59375 225.039062 85.605469 " fill-opacity="1" fill-rule="nonzero"/></g></svg>